<?xml version="1.0" encoding="UTF-8" standalone="no"?>
<!-- Created with Inkscape (http://www.inkscape.org/) -->

<svg
   xmlns:dc="http://purl.org/dc/elements/1.1/"
   xmlns:cc="http://creativecommons.org/ns#"
   xmlns:rdf="http://www.w3.org/1999/02/22-rdf-syntax-ns#"
   xmlns:svg="http://www.w3.org/2000/svg"
   xmlns="http://www.w3.org/2000/svg"
   xmlns:sodipodi="http://sodipodi.sourceforge.net/DTD/sodipodi-0.dtd"
   xmlns:inkscape="http://www.inkscape.org/namespaces/inkscape"
   id="svg4136"
   version="1.1"
   inkscape:version="0.91 r13725"
   xml:space="preserve"
   width="297mm"
   height="210mm"
   viewBox="0 0 1052.3622 744.09448"
   sodipodi:docname="cartoon landscape.svg"
   inkscape:export-filename="C:\Users\Emese\Desktop\képek\proba vektor\kész\shutter\shutter újra\solar_eclipse_mod.png"
   inkscape:export-xdpi="1000"
   inkscape:export-ydpi="1000"><metadata
     id="metadata4142"><rdf:RDF><cc:Work
         rdf:about=""><dc:format>image/svg+xml</dc:format><dc:type
           rdf:resource="http://purl.org/dc/dcmitype/StillImage" /><dc:title /></cc:Work></rdf:RDF></metadata><defs
     id="defs4140"><clipPath
       clipPathUnits="userSpaceOnUse"
       id="clipPath4154"><path
         d="m -4.934e-6,275.76 595.320004934,0 0,495.36 -595.320004934,0 0,-495.36 z"
         id="path4156"
         inkscape:connector-curvature="0"
         style="clip-rule:evenodd" /></clipPath></defs><sodipodi:namedview
     pagecolor="#ffffff"
     bordercolor="#666666"
     borderopacity="1"
     objecttolerance="10"
     gridtolerance="10"
     guidetolerance="10"
     inkscape:pageopacity="0"
     inkscape:pageshadow="2"
     inkscape:window-width="1366"
     inkscape:window-height="705"
     id="namedview4138"
     showgrid="false"
     inkscape:zoom="0.37606507"
     inkscape:cx="689.32538"
     inkscape:cy="171.64401"
     inkscape:window-x="-8"
     inkscape:window-y="-8"
     inkscape:window-maximized="1"
     inkscape:current-layer="g4144"
     units="mm"
     showguides="false" /><g
     id="g4144"
     inkscape:groupmode="layer"
     inkscape:label="V"
     transform="matrix(1.25,0,0,-1.25,0,744.09438)"><g
       style="stroke:#000000;stroke-width:0.80000001;stroke-miterlimit:4;stroke-dasharray:none;stroke-opacity:1"
       id="g4217"
       transform="matrix(0.9344023,-0.30335616,0.30335616,0.9344023,-405.17235,-173.3891)" /><g
       id="g7233"
       transform="matrix(0.98241164,0,0,0.98241164,-161.83668,-444.14814)" /><rect
       style="opacity:1;fill:#afe9dd;fill-opacity:1;fill-rule:nonzero;stroke:#000000;stroke-width:1.87860131;stroke-linecap:round;stroke-linejoin:round;stroke-miterlimit:4;stroke-dasharray:none;stroke-dashoffset:0;stroke-opacity:1"
       id="rect4770"
       width="840.01111"
       height="593.39697"
       x="0.93930066"
       y="-594.33618"
       transform="scale(1,-1)"
       rx="0"
       ry="0" /><rect
       style="opacity:1;fill:#d3bc5f;fill-opacity:1;fill-rule:nonzero;stroke:#000000;stroke-width:1.31594861;stroke-linecap:round;stroke-linejoin:round;stroke-miterlimit:4;stroke-dasharray:none;stroke-dashoffset:0;stroke-opacity:1"
       id="rect4770-9"
       width="840.57379"
       height="290.98007"
       x="0.6579743"
       y="-291.63794"
       rx="0"
       ry="0"
       transform="scale(1,-1)"
       inkscape:transform-center-x="-367.95544"
       inkscape:transform-center-y="141.14708" /><g
       id="g4763"
       transform="matrix(1.8532052,0,0,2.0153919,-325.57289,555.40686)"><path
         sodipodi:nodetypes="cssssaaaaascccccc"
         inkscape:connector-curvature="0"
         id="path5730"
         d="m 176.24481,-18.233658 c 0,0 29.19908,6.37557 43.09603,8.4082002 20.08669,2.93798 40.39545,3.84826 60.64231,4.92952 21.38286,1.14192 42.80084,1.81158 64.2095,1.64317 13.25901,-0.1043 26.55968,-0.17728 39.74873,-1.64317 11.13891,-1.23804 22.17807,-3.4839 33.12396,-6.0249602 7.70057,-1.78767 15.24306,-4.28754 22.85342,-6.47649 6.99765,-2.01272 13.9338,-4.27955 20.97212,-6.12115 8.6109,-2.25308 17.26737,-4.33719 25.98954,-6.02496 7.97267,-1.54274 16.00298,-2.75708 24.05164,-3.74376 14.53155,-1.78141 24.00908,-0.77106 43.72507,-3.92437 15.49036,-2.47748 45.86392,-10.95448 45.86392,-10.95448 l -131.47659,-7.66812 -127.39981,-19.17033 -149.31257,-23.55211 -16.11456,8.21585 z"
         style="opacity:1;fill:#5fd35f;fill-opacity:1;fill-rule:evenodd;stroke:#000000;stroke-width:1px;stroke-linecap:butt;stroke-linejoin:miter;stroke-opacity:1" /><path
         sodipodi:nodetypes="cssssscccccc"
         inkscape:connector-curvature="0"
         id="path5728"
         d="m 344.70225,-72.265928 c 0,0 50.43525,5.82452 75.42068,10.40674 15.23853,2.79468 30.06039,7.98679 45.35432,10.40675 12.30939,1.94772 24.78462,2.42342 37.20076,3.28633 17.98828,1.25017 35.99665,2.28207 54.01751,2.73863 15.62337,0.39583 31.25855,0.33575 46.88313,0 8.4984,-0.18261 25.47996,-1.09545 25.47996,-1.09545 l 0.0273,-69.324532 -51.49682,-6.80904 -67.77669,-2.73862 -116.69823,26.838452 z"
         style="opacity:1;fill:#d3bc5f;fill-opacity:1;fill-rule:evenodd;stroke:#000000;stroke-width:1px;stroke-linecap:butt;stroke-linejoin:miter;stroke-opacity:1" /><path
         sodipodi:nodetypes="csssssssssccccc"
         inkscape:connector-curvature="0"
         id="path5722"
         d="m 199.46647,-98.008938 c 0,0 25.68195,8.923 38.72954,12.59764 15.14946,4.26659 30.44918,7.98177 45.86393,10.95447 8.60696,1.65983 17.26548,3.19356 25.98956,3.83406 8.64305,0.63455 17.35732,0.78635 25.98957,0 7.04006,-0.6413 14.09654,-1.7613 20.89356,-3.83406 9.16444,-2.7947 17.54823,-7.99816 26.49917,-11.50219 7.21779,-2.82555 14.38134,-6.0432 21.91275,-7.66814 8.1878,-1.76657 16.7509,-0.60327 24.97038,-2.19088 11.11518,-2.14692 21.74737,-6.555632 32.61434,-9.859022 18.5231,-5.63076 55.54631,-16.97944 55.54631,-16.97944 l -77.96869,-8.76358 -75.93028,-1.64316 -30.57595,-8.21585 z"
         style="opacity:1;fill:#aad400;fill-opacity:1;fill-rule:evenodd;stroke:#000000;stroke-width:1px;stroke-linecap:butt;stroke-linejoin:miter;stroke-opacity:1" /><path
         sodipodi:nodetypes="cssssccsc"
         inkscape:connector-curvature="0"
         id="path5714"
         d="m 297.67062,-168.55871 c 51.63821,47.18751 64.43465,40.10412 99.85786,51.0605 21.79497,6.74118 44.96739,6.59687 67.57844,8.48909 31.01364,2.5954 62.14977,3.26407 93.25135,3.91704 15.05368,0.31605 30.35606,2.89543 45.16966,0 8.94563,-1.74848 25.53068,-10.32163 25.53068,-10.32163 l 0.38682,-53.05219 c 0,0 -21.30193,-9.51129 -113.57462,-9.75737 -18.31891,-0.0489 -218.20019,9.66456 -218.20019,9.66456 z"
         style="opacity:1;fill:#71c837;fill-opacity:1;fill-rule:evenodd;stroke:#000000;stroke-width:1px;stroke-linecap:butt;stroke-linejoin:miter;stroke-opacity:1" /><path
         sodipodi:nodetypes="cssscc"
         inkscape:connector-curvature="0"
         id="path5712"
         d="m 176.20387,-89.615418 c 0,0 61.97086,-17.499662 92.5681,-27.016122 24.92901,-7.75352 49.68125,-16.87314 74.40148,-25.36387 24.2022,-8.31278 100.54814,-29.32789 75.49038,-34.86388 -61.1488,-13.50956 -242.30829,7.36425 -242.30829,7.36425 z"
         style="opacity:1;fill:#cdde87;fill-opacity:1;fill-rule:evenodd;stroke:#000000;stroke-width:1px;stroke-linecap:butt;stroke-linejoin:miter;stroke-opacity:1" /></g><path
       style="opacity:1;fill:none;fill-rule:evenodd;stroke:none;stroke-width:0.80000001px;stroke-linecap:butt;stroke-linejoin:miter;stroke-opacity:1"
       d="m 319.9871,126.64939 -40.33822,16.502 0,0"
       id="path4188"
       inkscape:connector-curvature="0" /></g></svg>