<?xml version="1.0" encoding="UTF-8" standalone="no"?>
<!-- Created with Inkscape (http://www.inkscape.org/) -->

<svg
   xmlns:dc="http://purl.org/dc/elements/1.1/"
   xmlns:cc="http://creativecommons.org/ns#"
   xmlns:rdf="http://www.w3.org/1999/02/22-rdf-syntax-ns#"
   xmlns:svg="http://www.w3.org/2000/svg"
   xmlns="http://www.w3.org/2000/svg"
   xmlns:sodipodi="http://sodipodi.sourceforge.net/DTD/sodipodi-0.dtd"
   xmlns:inkscape="http://www.inkscape.org/namespaces/inkscape"
   width="611.42853"
   height="325"
   viewBox="0 0 611.42853 325.00001"
   id="svg4252"
   version="1.1"
   inkscape:version="0.91 r13725"
   sodipodi:docname="flat_minimal_drawing_mountain_sun_monsterbrain.svg">
  <title
     id="title4300">minimal_flat_sun_drawing_mountains</title>
  <defs
     id="defs4254" />
  <sodipodi:namedview
     id="base"
     pagecolor="#ffffff"
     bordercolor="#666666"
     borderopacity="1.0"
     inkscape:pageopacity="0.0"
     inkscape:pageshadow="2"
     inkscape:zoom="0.7"
     inkscape:cx="285.3772"
     inkscape:cy="104.7726"
     inkscape:document-units="px"
     inkscape:current-layer="layer1"
     showgrid="false"
     showguides="false"
     units="px"
     fit-margin-top="0"
     fit-margin-left="0"
     fit-margin-right="0"
     fit-margin-bottom="0"
     inkscape:window-width="1600"
     inkscape:window-height="838"
     inkscape:window-x="-8"
     inkscape:window-y="-8"
     inkscape:window-maximized="1" />
  <metadata
     id="metadata4257">
    <rdf:RDF>
      <cc:Work
         rdf:about="">
        <dc:format>image/svg+xml</dc:format>
        <dc:type
           rdf:resource="http://purl.org/dc/dcmitype/StillImage" />
        <dc:title>minimal_flat_sun_drawing_mountains</dc:title>
      </cc:Work>
    </rdf:RDF>
  </metadata>
  <g
     inkscape:label="Layer 1"
     inkscape:groupmode="layer"
     id="layer1"
     transform="translate(-15.000001,-73.076462)">
    <rect
       style="opacity:1;fill:#53e0f0;fill-opacity:1;stroke:none;stroke-width:2;stroke-linecap:round;stroke-linejoin:round;stroke-miterlimit:4;stroke-dasharray:none;stroke-dashoffset:0;stroke-opacity:1"
       id="rect4266"
       width="611.42853"
       height="325"
       x="15.000001"
       y="73.076462" />
    <rect
       y="73.076462"
       x="15.000001"
       height="30.000015"
       width="611.42853"
       id="rect4276"
       style="opacity:1;fill:#2ab6ec;fill-opacity:1;stroke:none;stroke-width:2;stroke-linecap:round;stroke-linejoin:round;stroke-miterlimit:4;stroke-dasharray:none;stroke-dashoffset:0;stroke-opacity:1" />
    <rect
       y="157.36218"
       x="15.000001"
       height="240.71429"
       width="611.42853"
       id="rect4268"
       style="opacity:1;fill:#87e9f5;fill-opacity:1;stroke:none;stroke-width:2;stroke-linecap:round;stroke-linejoin:round;stroke-miterlimit:4;stroke-dasharray:none;stroke-dashoffset:0;stroke-opacity:1" />
    <path
       style="fill:#73d216;fill-rule:evenodd;stroke:none;stroke-width:1px;stroke-linecap:butt;stroke-linejoin:miter;stroke-opacity:1"
       d="m 19.285714,396.6479 0,-64.28572 74.493116,-129.02586 75.56593,130.88402 42.80857,-159.76378 78.40503,135.8015 L 369.35449,173.77918 457.84,327.04058 573.04491,211.83567 625,349.50504 l 0,50 -604.285714,0 z"
       id="path4262"
       inkscape:connector-curvature="0" />
    <path
       style="fill:#4e9a06;fill-rule:evenodd;stroke:#8ae234;stroke-width:3;stroke-linecap:butt;stroke-linejoin:miter;stroke-miterlimit:4;stroke-dasharray:none;stroke-opacity:1"
       d="m 18.182746,397.78333 607.101684,0 0,-57.57869 L 445.20435,236.23535 18.048934,350.6913 Z"
       id="path4260"
       inkscape:connector-curvature="0" />
    <path
       style="fill:#73d216;fill-rule:evenodd;stroke:none;stroke-width:5;stroke-linecap:butt;stroke-linejoin:miter;stroke-miterlimit:4;stroke-dasharray:none;stroke-opacity:1"
       d="m 11.612399,332.36218 168.323251,43.6202 295.77864,0 79.5511,-45.92885 75.73903,-18.94087 0,86.96381 -619.392021,0 z"
       id="path4264"
       inkscape:connector-curvature="0"
       sodipodi:nodetypes="cccccccc" />
    <rect
       style="opacity:1;fill:#ecf8a7;fill-opacity:1;stroke:none;stroke-width:2;stroke-linecap:round;stroke-linejoin:round;stroke-miterlimit:4;stroke-dasharray:none;stroke-dashoffset:0;stroke-opacity:1"
       id="rect4270"
       width="32.678574"
       height="32.678574"
       x="468.97528"
       y="-333.75024"
       transform="matrix(0.70710678,0.70710678,-0.70710678,0.70710678,0,0)" />
    <rect
       transform="matrix(0.70710678,0.70710678,-0.70710678,0.70710678,0,0)"
       y="-343.3931"
       x="459.33243"
       height="51.964287"
       width="51.964287"
       id="rect4272"
       style="opacity:1;fill:#ecf8a7;fill-opacity:0.62209305;stroke:none;stroke-width:2;stroke-linecap:round;stroke-linejoin:round;stroke-miterlimit:4;stroke-dasharray:none;stroke-dashoffset:0;stroke-opacity:1" />
    <rect
       style="opacity:1;fill:#ecf8a7;fill-opacity:0.26744187;stroke:none;stroke-width:2;stroke-linecap:round;stroke-linejoin:round;stroke-miterlimit:4;stroke-dasharray:none;stroke-dashoffset:0;stroke-opacity:1"
       id="rect4274"
       width="71.964287"
       height="71.964287"
       x="449.33243"
       y="-353.3931"
       transform="matrix(0.70710678,0.70710678,-0.70710678,0.70710678,0,0)" />
    <path
       style="fill:#ffffff;fill-rule:evenodd;stroke:none;stroke-width:1px;stroke-linecap:butt;stroke-linejoin:miter;stroke-opacity:1"
       d="m 47.151784,144.49994 138.643426,0 0,-10.77647 -15.33574,0 0,-19.48054 -34.40181,0 0,10.77647 -18.65157,0 0,-21.13847 -44.349327,0 0,21.13847 -25.904979,0 z"
       id="path4280"
       inkscape:connector-curvature="0"
       sodipodi:nodetypes="ccccccccccccc" />
    <path
       sodipodi:nodetypes="ccccccccccccc"
       inkscape:connector-curvature="0"
       id="path4282"
       d="m 415.46281,127.75618 -77.97863,0 0,-6.06112 8.62544,0 0,-10.95664 19.34896,0 0,6.06112 10.49038,0 0,-11.88913 24.94385,0 0,11.88913 14.57,0 z"
       style="fill:#ffffff;fill-rule:evenodd;stroke:none;stroke-width:1px;stroke-linecap:butt;stroke-linejoin:miter;stroke-opacity:1" />
    <path
       style="fill:#42a7ff;fill-opacity:1;fill-rule:evenodd;stroke:none;stroke-width:1px;stroke-linecap:butt;stroke-linejoin:miter;stroke-opacity:1"
       d="m 475.27677,399.29856 -297.48992,0 0,-25.25381 38.93733,-10.43323 0,11.94846 45.27267,-12.13078 0,12.63586 50.8469,-13.62439 0,13.62439 46.29824,-12.40558 0,11.39542 50.65399,-13.57269 0,14.58285 48.35516,-12.95673 0,11.94657 16.93194,-10.94208 z"
       id="path4284"
       inkscape:connector-curvature="0"
       sodipodi:nodetypes="ccccccccccccccccc" />
    <path
       style="fill:#4e9a06;fill-rule:evenodd;stroke:none;stroke-width:1px;stroke-linecap:butt;stroke-linejoin:miter;stroke-opacity:1"
       d="m 275.07968,283.63607 -1.83907,-6.86353 -6.91344,1.85245 0,-27.81887 21.52312,21.5231 -6.81689,1.82658 1.92848,7.19721 z"
       id="path4286"
       inkscape:connector-curvature="0" />
    <path
       inkscape:connector-curvature="0"
       id="path4288"
       d="m 367.50864,258.88733 -1.83907,-6.86353 -6.91344,1.85245 0,-27.81887 21.52312,21.5231 -6.81689,1.82658 1.92848,7.19721 z"
       style="fill:#4e9a06;fill-rule:evenodd;stroke:none;stroke-width:1px;stroke-linecap:butt;stroke-linejoin:miter;stroke-opacity:1" />
    <path
       style="fill:#4e9a06;fill-rule:evenodd;stroke:none;stroke-width:1px;stroke-linecap:butt;stroke-linejoin:miter;stroke-opacity:1"
       d="m 214.97561,300.80866 -1.83907,-6.86353 -6.91344,1.85245 0,-27.81887 21.52312,21.5231 -6.81689,1.82658 1.92848,7.19721 z"
       id="path4290"
       inkscape:connector-curvature="0" />
    <path
       inkscape:connector-curvature="0"
       id="path4292"
       d="m 119.01112,326.06247 -1.83907,-6.86353 -6.91344,1.85245 0,-27.81887 21.52312,21.5231 -6.81689,1.82658 1.92848,7.19721 z"
       style="fill:#4e9a06;fill-rule:evenodd;stroke:none;stroke-width:1px;stroke-linecap:butt;stroke-linejoin:miter;stroke-opacity:1" />
    <path
       style="fill:#4e9a06;fill-rule:evenodd;stroke:none;stroke-width:1px;stroke-linecap:butt;stroke-linejoin:miter;stroke-opacity:1"
       d="m 497.0087,267.97837 3.89256,-5.9446 5.98782,3.92088 8.6967,-26.42455 -27.17288,13.7158 5.9042,3.86611 -4.08181,6.2336 z"
       id="path4294"
       inkscape:connector-curvature="0" />
    <path
       inkscape:connector-curvature="0"
       id="path4296"
       d="m 552.72299,299.40694 3.89256,-5.9446 5.98782,3.92088 8.6967,-26.42455 -27.17288,13.7158 5.9042,3.86611 -4.08181,6.2336 z"
       style="fill:#4e9a06;fill-rule:evenodd;stroke:none;stroke-width:1px;stroke-linecap:butt;stroke-linejoin:miter;stroke-opacity:1" />
  </g>
</svg>
