<?xml version="1.0" encoding="UTF-8" standalone="no"?>
<!-- Created with Inkscape (http://www.inkscape.org/) -->

<svg
   version="1.1"
   id="svg799"
   width="800"
   height="800"
   viewBox="0 0 800 800"
   sodipodi:docname="cow-logo-publicdomainvectors.org.svg"
   inkscape:version="1.2 (dc2aedaf03, 2022-05-15)"
   xmlns:inkscape="http://www.inkscape.org/namespaces/inkscape"
   xmlns:sodipodi="http://sodipodi.sourceforge.net/DTD/sodipodi-0.dtd"
   xmlns="http://www.w3.org/2000/svg"
   xmlns:svg="http://www.w3.org/2000/svg">
  <defs
     id="defs803">
    <clipPath
       clipPathUnits="userSpaceOnUse"
       id="clipPath815">
      <path
         d="M 0,600 H 600 V 0 H 0 Z"
         id="path813" />
    </clipPath>
  </defs>
  <sodipodi:namedview
     id="namedview801"
     pagecolor="#ffffff"
     bordercolor="#000000"
     borderopacity="0.25"
     inkscape:showpageshadow="2"
     inkscape:pageopacity="0.0"
     inkscape:pagecheckerboard="0"
     inkscape:deskcolor="#d1d1d1"
     showgrid="false"
     inkscape:zoom="1.04625"
     inkscape:cx="400"
     inkscape:cy="400.4779"
     inkscape:window-width="1920"
     inkscape:window-height="1017"
     inkscape:window-x="-8"
     inkscape:window-y="-8"
     inkscape:window-maximized="1"
     inkscape:current-layer="g807">
    <inkscape:page
       x="0"
       y="0"
       id="page805"
       width="800"
       height="800" />
  </sodipodi:namedview>
  <g
     id="g807"
     inkscape:groupmode="layer"
     inkscape:label="Page 1"
     transform="matrix(1.3333333,0,0,-1.3333333,0,800)">
    <g
       id="g809">
      <g
         id="g811"
         clip-path="url(#clipPath815)">
        <g
           id="g817"
           transform="translate(85.4312,245.5723)">
          <path
             d="m 0,0 c 29.653,-93.064 116.789,-160.478 219.682,-160.478 55.055,0 165.846,-6.815 185.498,58.341 -99.599,14.129 -238.313,38.555 -329.192,80.1 C 51.853,-11.311 26.274,-4.056 0,0"
             style="fill:#81cc2b;fill-opacity:1;fill-rule:nonzero;stroke:none"
             id="path819" />
        </g>
        <g
           id="g821"
           transform="translate(97.2451,415.4292)">
          <path
             d="m 0,0 c 45.866,-0.21 89.465,-16.264 135.174,-15.331 77.93,1.559 159.942,10.028 231.637,39.64 2.684,1.174 51.524,-1.115 54.286,0 C 365.638,67.45 271.107,130.732 207.868,130.732 116.3,130.732 55.411,52.368 0,0"
             style="fill:#51ade5;fill-opacity:1;fill-rule:nonzero;stroke:none"
             id="path823" />
        </g>
        <g
           id="g825"
           transform="translate(205.7798,260.0029)">
          <path
             d="m 0,0 c 11.993,10.455 13.285,19.825 9.873,24.677 -3.015,4.287 -9.7,5.029 -15.96,-0.155 -0.293,-0.243 -0.587,-0.482 -0.877,-0.75 -2.59,-2.395 -5.954,-3.199 -9.495,-2.853 0.053,-2.44 0.108,-5.102 0.168,-8.036 0.282,-13.561 0.666,-32.132 1.321,-55.981 0.367,-13.318 4.548,-24.859 4.591,-24.973 l 0.085,-0.336 c 0.821,-5.244 2.928,-9.054 5.161,-13.084 4.533,-8.19 9.222,-16.656 4.054,-37.22 l -0.136,-0.532 -0.413,-0.364 c -10.556,-9.223 -17.652,-19.17 -17.42,-22.329 0.018,-0.258 0.079,-0.3 0.115,-0.323 0.226,-0.147 0.506,-0.282 0.821,-0.411 1.488,3.602 6.813,10.448 6.813,10.448 l 13.863,-11.831 c 4.613,3.111 9.326,14.239 8.217,19.581 -0.41,1.975 -0.863,3.99 -1.326,6.035 -1.834,8.15 -3.85,17.126 -3.492,25.977 -0.339,7.58 -1.096,17.174 -8.751,26.129 -11.054,12.933 -0.441,15.557 4.548,23.48 2.083,3.306 3.301,5.593 3.66,7.593 C -2.396,-29.051 -12.447,-10.852 0,0 m -39.774,145.705 c -6.304,-0.385 -12.438,0.825 -14.67,4.418 -5.238,8.439 -20.35,-7.189 -28.396,-17.391 -5.039,-6.389 5.526,-16.858 6.687,-20.275 1.159,-3.418 -5.867,-26.334 -16.591,-27.05 -10.724,-0.717 -22.743,-19.376 -25.246,-12.941 -12.048,30.952 17.521,72.717 46.298,93.103 -9.309,2.466 -23.953,7.006 -38.633,4.911 -23.89,-3.407 -15.15,-36.628 -17.409,-70.905 -1.003,-15.204 -4.291,-24.01 -7.269,-28.52 -1.489,-3.823 -3.465,-7.608 -6.134,-11.342 0.003,-0.497 0.27,-1.333 0.703,-2.36 0.724,-0.339 1.559,-0.691 2.54,-1.055 7.411,-2.744 18.418,4.793 24.559,7.473 5.225,2.281 2.135,-9.254 -6.933,-15.157 4.778,0.175 9.302,0.172 13.536,-0.014 1.469,1.246 5.089,6.247 7.539,9.63 7.405,10.229 10.05,13.513 13.015,13.204 1.165,-0.12 2.158,-0.854 2.658,-1.967 0.269,-0.596 0.461,-1.46 0.627,-2.73 2.474,15.247 15.469,9.495 16.709,43.952 0.677,18.805 11.508,29.581 26.41,35.016 m 363.895,-9.931 c -43.182,49.808 -45.754,33.236 -79.551,28.436 -40.299,-5.722 -55.428,9.062 -6.25,-41.976 41.91,-43.494 25.342,-67.676 1.865,-82.632 -1.797,-1.144 -3.365,-2.521 -4.711,-4.065 -15.443,-17.71 -1.678,-57.822 33.387,-30.912 -3.578,-6.383 -5.752,-11.445 -6.944,-14.588 -1.33,-3.511 -2.144,-8.072 -3.086,-13.352 -1.925,-10.783 -4.564,-25.55 -13.566,-41.42 -10.801,-19.034 -8.785,-42.231 -7.455,-57.581 0.469,-5.375 0.908,-10.452 0.348,-12.16 -2.039,-6.187 -3.737,-10.497 -7.784,-13.833 -6.855,2.724 -18.722,7.273 -18.722,7.273 0,0 -3.065,-6.386 -4.451,-9.839 -0.198,0.056 -0.395,0.112 -0.553,0.171 0.299,3.662 5.029,17.07 14.168,25.127 8.906,7.848 8.795,24.094 8.699,38.427 -0.033,4.877 -0.062,9.485 0.283,13.241 0.51,5.567 -1.867,17.474 -5.758,30.256 -0.794,6.279 -3.918,20.568 -5.533,29.222 -1.332,5.466 -10.295,30.875 -26.668,44.522 -4.283,3.568 -9.062,6.346 -14.357,7.736 -0.731,-3.34 -2.078,-6.717 -4.02,-10.029 -7.859,-13.405 -25.55,-25.782 -52.279,-30.694 -23.66,-0.622 -48.04,0.536 -65.004,6.2 -3.831,2.593 -7.328,5.632 -10.31,8.569 -3.083,3.034 -5.618,5.956 -7.397,8.144 2.736,4.904 5.382,10.243 7.76,16.145 13.74,34.107 -23.75,42.527 -72.353,19.463 -21.592,-10.247 -7.865,-29.856 6.125,-34.001 0.057,-2.639 0.117,-5.572 0.185,-8.814 0.084,-4.089 0.179,-8.642 0.286,-13.649 -4.772,0.395 -18.159,2.612 -26.443,14.949 -1.594,5.93 -3.862,12.002 -8.042,17.405 -3.429,5.641 -8.81,12.168 -13.501,17.443 15.536,16.369 44.158,52.616 93.926,38.209 92.471,-26.766 61.207,28.009 33.623,27.239 -88.645,-2.477 -1.606,23.291 -36.669,31.797 -15.248,3.699 -33.814,5.46 -50.084,2.828 2.567,1.391 4.214,3.128 4.19,5.054 0.917,2.921 -1.543,7.816 -6.134,12.109 14.573,2.894 31.244,8.319 48.357,16.742 35.656,0.083 62.588,-4.533 86.409,-8.596 3.619,-0.617 7.17,-1.223 10.674,-1.798 -16.242,-3.877 -9.024,-18.418 -36.527,-27.262 -32.799,-10.548 29.22,-26.517 44.482,-49.307 23.633,-35.29 49.894,25.812 68.092,-28.763 6.709,-20.125 35.365,20.398 -7.229,90.876 -3.289,5.443 -5.705,8.805 -8.287,10.892 15.84,1.632 32.945,5.812 52.975,14.059 5.962,0.419 67.666,-9.855 76.459,-11.895 9.625,-9.733 15.433,-21.588 17.375,-35.368"
             style="fill:#ffffff;fill-opacity:1;fill-rule:nonzero;stroke:none"
             id="path827" />
        </g>
        <g
           id="g829"
           transform="translate(529.9004,395.7773)">
          <path
             d="m 0,0 c -43.182,49.809 -45.754,33.236 -79.551,28.436 -40.299,-5.723 -55.428,9.062 -6.25,-41.976 41.91,-43.495 25.342,-67.676 1.865,-82.632 -1.796,-1.144 -3.365,-2.519 -4.711,-4.064 -15.443,-17.713 -1.677,-57.823 33.387,-30.913 -3.578,-6.383 -5.752,-11.446 -6.943,-14.588 -1.33,-3.51 -2.145,-8.071 -3.088,-13.353 -1.924,-10.782 -4.561,-25.551 -13.564,-41.42 -10.801,-19.033 -8.786,-42.23 -7.454,-57.58 0.467,-5.376 0.907,-10.453 0.346,-12.16 -2.039,-6.187 -3.736,-10.498 -7.783,-13.833 -6.856,2.724 -18.723,7.273 -18.723,7.273 0,0 -3.064,-6.386 -4.451,-9.839 -0.197,0.056 -0.395,0.114 -0.553,0.172 0.299,3.661 5.03,17.07 14.168,25.127 8.907,7.847 8.795,24.091 8.7,38.425 -0.034,4.877 -0.063,9.486 0.283,13.242 0.509,5.568 -1.868,17.474 -5.758,30.255 -0.795,6.28 -3.918,20.568 -5.533,29.221 -1.332,5.47 -10.295,30.877 -26.668,44.524 -4.284,3.568 -9.063,6.344 -14.358,7.736 -0.73,-3.34 -2.078,-6.717 -4.021,-10.03 -7.858,-13.406 -25.549,-25.782 -52.279,-30.693 -23.657,-0.621 -48.04,0.535 -65.002,6.201 -3.833,2.592 -7.328,5.631 -10.31,8.568 -3.082,3.034 -5.62,5.956 -7.397,8.145 2.734,4.903 5.382,10.242 7.76,16.144 13.739,34.106 -23.751,42.528 -72.354,19.463 -21.59,-10.246 -7.866,-29.857 6.126,-34.003 0.056,-2.637 0.118,-5.571 0.184,-8.813 0.086,-4.089 0.179,-8.642 0.287,-13.648 -4.774,0.393 -18.158,2.612 -26.444,14.949 -1.595,5.93 -3.86,12.004 -8.043,17.404 -3.427,5.642 -8.81,12.168 -13.498,17.444 15.534,16.369 44.155,52.615 93.925,38.209 92.473,-26.767 61.207,28.009 33.623,27.238 -88.645,-2.477 -1.607,23.292 -36.671,31.798 -15.247,3.699 -33.811,5.459 -50.081,2.829 2.564,1.39 4.211,3.127 4.188,5.052 0.917,2.922 -1.542,7.816 -6.134,12.11 14.573,2.895 31.246,8.318 48.357,16.742 35.658,0.082 62.591,-4.533 86.409,-8.596 3.621,-0.617 7.17,-1.223 10.674,-1.799 -16.24,-3.877 -9.023,-18.416 -36.527,-27.261 -32.798,-10.548 29.221,-26.517 44.482,-49.307 23.633,-35.29 49.895,25.812 68.092,-28.763 6.709,-20.125 35.365,20.398 -7.229,90.875 -3.289,5.444 -5.705,8.805 -8.285,10.892 15.838,1.633 32.946,5.813 52.975,14.06 5.961,0.418 67.664,-9.856 76.457,-11.895 C -7.75,25.633 -1.941,13.779 0,0 m -314.664,-254.211 c 0.46,-2.044 0.914,-4.06 1.324,-6.037 1.109,-5.341 -3.604,-16.47 -8.216,-19.579 l -13.864,11.832 c 0,0 -5.325,-6.848 -6.814,-10.449 -0.314,0.129 -0.593,0.265 -0.819,0.411 -0.037,0.023 -0.098,0.064 -0.117,0.325 -0.231,3.156 6.865,13.104 17.42,22.326 l 0.415,0.365 0.134,0.533 c 5.168,20.564 0.479,29.029 -4.053,37.219 -2.231,4.032 -4.338,7.839 -5.159,13.083 l -0.087,0.336 c -0.042,0.115 -4.222,11.656 -4.591,24.976 -0.656,23.847 -1.039,42.418 -1.319,55.978 -0.061,2.933 -0.117,5.597 -0.168,8.037 3.539,-0.346 6.903,0.459 9.492,2.853 0.291,0.27 0.585,0.508 0.878,0.75 6.26,5.184 12.947,4.443 15.962,0.154 3.41,-4.851 2.118,-14.222 -9.876,-24.676 -12.446,-10.852 -2.394,-29.05 5.42,-35.258 -0.358,-2 -1.577,-4.286 -3.657,-7.593 -4.991,-7.924 -15.604,-10.548 -4.55,-23.48 7.656,-8.956 8.412,-18.549 8.752,-26.128 -0.358,-8.852 1.657,-17.826 3.493,-25.978 m -95.635,189.872 c -2.963,0.308 -5.609,-2.976 -13.014,-13.205 -2.449,-3.383 -6.071,-8.384 -7.54,-9.63 -4.234,0.186 -8.758,0.187 -13.536,0.014 9.067,5.902 12.158,17.438 6.933,15.157 -6.141,-2.679 -17.148,-10.216 -24.559,-7.473 -0.982,0.364 -1.816,0.715 -2.539,1.054 -0.432,1.028 -0.699,1.864 -0.702,2.361 2.669,3.733 4.645,7.519 6.132,11.341 2.978,4.511 6.266,13.315 7.269,28.521 2.261,34.275 -6.481,67.498 17.411,70.906 14.678,2.092 29.321,-2.447 38.633,-4.913 -28.779,-20.386 -58.349,-62.15 -46.3,-93.103 2.505,-6.434 14.522,12.225 25.246,12.941 10.723,0.718 17.75,23.632 16.591,27.051 -1.161,3.418 -11.726,13.886 -6.686,20.275 8.047,10.202 23.158,25.828 28.397,17.391 2.229,-3.595 8.364,-4.803 14.668,-4.417 -14.9,-5.436 -25.732,-16.213 -26.408,-35.016 -1.242,-34.458 -14.237,-28.705 -16.709,-43.954 -0.168,1.271 -0.361,2.135 -0.627,2.731 -0.501,1.112 -1.494,1.848 -2.66,1.968 m 473.418,-123.377 7.459,1.013 -7.492,0.737 c -6.328,0.619 -19.85,2.317 -30.51,6.17 7.348,-1.097 16.658,-0.856 24.428,2.947 l -0.658,1.629 c -9.817,-3.186 -19.965,-1.885 -27.453,1.206 6.257,-1.473 17.351,-1.987 27.959,7.954 l -1.092,1.374 c -12.627,-8.469 -23.563,-6.594 -30.518,-3.534 -3.777,1.665 -6.98,3.929 -9.5,6.303 l -1.023,1.718 0.295,-1.009 c -2.041,2.051 -3.569,4.147 -4.51,5.976 -0.279,2.938 -0.428,5.889 -0.445,8.841 -0.047,6.593 0.478,13.188 1.236,19.749 3.248,26.281 10.412,51.902 15.639,78.092 2.543,13.114 4.9,26.392 4.777,40.18 -0.168,6.868 -0.869,13.962 -3.658,20.802 -0.705,1.697 -1.528,3.366 -2.502,4.973 -0.463,0.813 -1.055,1.563 -1.582,2.345 -0.547,0.777 -1.049,1.364 -1.578,2.055 -2.069,2.673 -4.229,5.299 -6.497,7.866 -2.263,2.57 -4.636,5.083 -7.242,7.453 -2.588,2.376 -5.371,4.652 -8.56,6.566 -3.158,1.924 -6.772,3.48 -10.623,4.214 -3.842,0.761 -7.787,0.719 -11.424,0.204 -5.568,-0.833 -10.596,-2.341 -15.475,-3.822 -22.717,3.965 -55.175,9.279 -58.185,7.956 -50.03,-20.663 -81.572,-15.284 -121.51,-8.467 -23.845,4.068 -50.825,8.669 -86.47,8.669 -0.483,0 -0.972,-0.001 -1.458,-0.002 l -0.614,-0.002 -0.549,-0.272 c -19.855,-9.844 -37.753,-15.132 -52.27,-17.488 -7.628,4.516 -18.017,6.54 -28.589,0.653 -0.552,-0.306 -1.11,-0.645 -1.666,-0.971 -0.341,0.081 -0.664,0.168 -0.985,0.256 -8.577,6.263 -29.227,14.22 -37.588,14.989 -14.027,1.286 -37.804,-32.357 -40.147,-31.029 -15.441,8.758 -34.001,11.667 -43.838,4.023 -9.839,-7.644 10.545,-21.544 19.152,-24.102 8.608,-2.558 21.488,7.699 25.017,1.188 2.674,-4.937 6.581,-34.481 5.781,-52.556 -1.127,-6.951 -3.586,-13.735 -8.366,-20.342 -2.174,-3.008 0.308,-9.498 7.376,-19.288 l 0.896,-1.241 1.523,0.161 c 10.912,1.147 20.816,1.515 29.432,1.098 2.479,-0.123 4.537,2.288 11.454,11.84 2.096,2.894 4.944,6.827 6.974,9.188 0.144,-1.603 0.275,-3.541 0.383,-5.166 0.832,-12.391 1.373,-16.453 4.614,-17.147 0.348,-0.073 0.677,-0.158 1.016,-0.235 16.162,-8.168 25.064,-21.075 31.88,-33.154 0.259,-1.126 0.511,-2.253 0.76,-3.376 2.315,-10.451 4.503,-20.325 14.436,-24.739 5.016,-2.294 10.366,-3.745 15.864,-4.64 0.147,-5.937 0.31,-12.276 0.496,-19.057 0.363,-13.171 4.194,-24.38 4.744,-25.927 0.935,-5.775 3.273,-9.994 5.531,-14.076 4.357,-7.867 8.472,-15.3 3.852,-34.124 -7.715,-6.828 -18.644,-18.798 -18.197,-24.874 0.122,-1.665 1.004,-2.566 1.724,-3.027 3.141,-2.02 10.956,-2.706 17.073,-2.706 3.255,0 6.031,0.196 7.365,0.485 l 0.29,0.063 0.255,0.154 c 5.954,3.637 11.513,16.575 10.083,23.467 -0.414,1.995 -0.872,4.031 -1.337,6.095 -2.444,10.859 -4.975,22.09 -2.378,32.716 2.749,11.243 3.253,23.146 3.786,35.746 0.02,0.471 0.039,0.941 0.06,1.414 1.793,-7.741 3.656,-12.948 3.656,-12.948 4.401,-14.969 7.631,-37.274 3.815,-46.08 -3.815,-8.803 -9.801,-16.836 -5.692,-19.476 4.108,-2.642 16.498,-1.748 17.613,0.674 1.005,2.185 4.512,8.841 3.989,12.915 -1.637,12.751 -6.044,28.76 -3.404,45.785 1.766,11.362 7.535,31.763 14.476,51.006 3.53,2.906 7.423,5.735 11.225,8.022 2.134,1.096 4.315,2.124 6.577,3.04 25.264,-5.067 58.737,-3.807 85.976,-1.656 -7.633,-7.071 -9.449,-15.108 -8.143,-17.169 1.584,-2.501 7.309,5.917 13.912,-1.147 2.006,-2.144 -2.226,-11.027 2.551,-16.771 4.779,-5.743 9.744,15.516 18.305,12.964 8.558,-2.554 8.193,-16.124 12.217,-17.251 4.021,-1.127 6.587,18.088 12.326,16.382 5.738,-1.707 10.851,-11.248 12.546,-10.713 0.352,0.111 0.643,0.266 0.909,0.443 4.695,-14.065 7.841,-27.988 7.32,-33.66 -0.367,-4.015 -0.334,-8.748 -0.303,-13.759 0.09,-13.203 0.192,-28.171 -6.91,-34.429 -10.476,-9.234 -18.488,-28.34 -15.08,-32.435 1.6,-1.922 8.125,-3.271 14.822,-3.271 5.106,0 10.307,0.784 13.508,2.689 7.518,4.479 9.965,10.494 12.604,18.503 0.9,2.736 0.504,7.325 -0.1,14.269 -1.277,14.7 -3.207,36.91 6.785,54.518 3.465,6.106 6.02,12.024 7.973,17.628 2.949,-14.748 14.236,-31.584 14.236,-31.584 3.883,-10.31 5.748,-18.759 5.969,-27.404 -0.211,-3.327 -0.859,-6.729 -2.08,-10.384 -8.145,-15.85 -13.979,-22.765 -9.684,-25.094 0.192,-0.105 0.446,-0.208 0.694,-0.311 -0.1,-1.005 0.132,-1.747 0.845,-2.136 2.1,-1.139 7.619,-0.999 13.047,0.031 5.188,-0.031 10.006,0.794 11.338,3.195 0.293,0.533 0.803,1.388 1.361,2.557 0,0.002 0.002,0.005 0.004,0.006 0.471,0.851 0.998,1.803 1.356,3.421 1.277,3.98 2.144,9.771 0.521,17.463 -1.752,2.564 -3.582,6.714 -4.99,11.815 -1.068,6.144 -1.256,12.498 -0.844,20.751 0.227,4.524 0.006,10.291 0.694,17.157 1.59,6.956 4.293,15.188 8.992,25.104 1.535,3.24 0.676,6.262 -1.184,10.318 -2.215,11.87 -11.615,30.323 -10.619,56.917 5.44,5.697 10.559,11.568 15.281,17.523 0.84,0.826 1.651,1.646 2.526,2.48 l -0.317,0.331 c 23.336,30.386 35.768,62.543 25.12,84.529 -0.403,19.145 -7.057,35.315 -19.854,48.129 3.33,-0.269 6.521,-1.249 9.641,-3.051 2.57,-1.421 5.035,-3.284 7.408,-5.323 2.383,-2.025 4.658,-4.276 6.867,-6.622 2.211,-2.344 4.359,-4.784 6.443,-7.298 0.502,-0.614 1.1,-1.277 1.522,-1.851 0.414,-0.586 0.89,-1.121 1.263,-1.744 0.791,-1.21 1.487,-2.505 2.102,-3.855 2.461,-5.442 3.387,-11.795 3.738,-18.16 0.557,-12.843 -1.281,-26.001 -3.373,-39.024 -4.308,-26.098 -10.662,-52.103 -13.068,-78.77 -0.547,-6.663 -0.861,-13.363 -0.59,-20.064 0.078,-1.997 0.227,-3.99 0.416,-5.983 l -0.783,-0.12 c 0,-0.015 0.004,-0.033 0.006,-0.047 5.281,-34.152 15.289,-44.368 44.187,-44.368 0.541,0 1.088,0.003 1.645,0.011 l 0.029,1.759 c -7.471,0.359 -19.012,6.495 -24.414,11.637 5.922,-3.1 16.752,-6.506 33.955,-4.169"
             style="fill:#110f0d;fill-opacity:1;fill-rule:nonzero;stroke:none"
             id="path831" />
        </g>
      </g>
    </g>
  </g>
</svg>
