<?xml version="1.0" encoding="utf-8"?>
<svg version="1.1" id="Ebene_1" xmlns="http://www.w3.org/2000/svg" xmlns:xlink="http://www.w3.org/1999/xlink" x="0px" y="0px"
	 viewBox="0 0 662.96 662.96" style="enable-background:new 0 0 662.96 662.96;" xml:space="preserve">
<style type="text/css">
	.st0{fill:#FFFFFF;}
	.st1{fill:#000000;}
</style>
<g>
	<g>
		<circle class="st0" cx="331.48" cy="331.48" r="331.48"/>
		<g>
			<circle class="st0" cx="331.48" cy="331.48" r="316.5"/>
			<path d="M331.48,34.98c40.04,0,78.86,7.84,115.4,23.29c35.3,14.93,67.02,36.31,94.25,63.55s48.62,58.95,63.55,94.25
				c15.46,36.54,23.29,75.37,23.29,115.4s-7.84,78.86-23.29,115.41c-14.93,35.3-36.31,67.02-63.55,94.25
				c-27.24,27.24-58.95,48.62-94.25,63.55c-36.54,15.46-75.37,23.29-115.4,23.29s-78.86-7.84-115.4-23.29
				c-35.3-14.93-67.02-36.31-94.25-63.55c-27.24-27.24-48.62-58.95-63.55-94.25c-15.46-36.54-23.29-75.37-23.29-115.41
				s7.84-78.86,23.29-115.4c14.93-35.3,36.31-67.02,63.55-94.25s58.95-48.62,94.25-63.55C252.62,42.82,291.45,34.98,331.48,34.98
				 M331.48,14.98c-174.8,0-316.5,141.7-316.5,316.5s141.7,316.5,316.5,316.5s316.5-141.7,316.5-316.5S506.28,14.98,331.48,14.98
				L331.48,14.98z"/>
		</g>
		<circle class="st1" cx="332.32" cy="332.23" r="205.64"/>
		<path class="st0" d="M292.78,214.34c-0.37-4.85-0.34-9.26-0.02-13.69c0.32-4.45,2.4-8.46,2.86-12.69c0.96-0.5,1.68-0.88,2.57-1.35
			c0.75,0.72,1.58,1.53,1.98,1.91c1.25,5.36-1.62,10.03-0.26,14.98c2.59-0.36,2.99-2.57,4.15-4.08c1.6,0.05,2.38,1.02,2.34,2.51
			c-0.03,1.28-0.2,2.62-0.62,3.82c-1.26,3.68-2.53,7.37-4.08,10.94c-0.83,1.91-2.06,3.7-3.39,5.32
			c-4.91,5.96-9.81,11.95-14.99,17.68c-2.29,2.53-5.39,4.31-7.85,6.7c-3.83,3.73-8.29,5.98-13.52,7.03
			c-1.26,0.25-2.69,1.43-3.34,2.58c-2.3,4.06-5.33,6.61-10.13,7.5c-2.89,0.54-4.88,3.17-5.94,5.97c-0.73,1.93-0.91,4.08-1.14,5.19
			c2.26,2.85,3.95,4.98,5.63,7.1c5.02-0.46,9.7-3.69,15.18-2.86c1.93-1.74,4.41-1.32,6.68-1.54c2.48-0.24,4.99-0.13,7.49-0.11
			c1.63,0.01,3.19-0.05,4.8,0.8c1.06,0.56,2.41-0.52,4.08-0.1c2.62,0.67,5.62-0.29,8.46-0.3c1.88,0,3.71-0.38,5.58-0.36
			c2,0.03,4-0.08,6-0.03c2.77,0.07,5.56-0.55,8.28,0.88c1.05,0.55,2.62,0.22,3.95,0.14c6.66-0.4,13.2,1.25,19.8,1.22
			c5.42-0.02,10.47,2.7,15.93,1.78c4.6-0.78,9.16,0.38,13.74,0.16c5.07,3.31,10.48,0.21,15.69,0.87c1.43,0.18,2.83,0.58,4.66,0.97
			c3.38-3.1,6.85-2.18,10.09,1.25c1.96-1.42,3.72-2.7,4.24-4.91c0.65-2.75,2.52-4.51,4.4-6.37c1.02-1.01,1.69-2.37,2.67-3.78
			c1.65,0,3.43,0,5.29,0c0.2,0.46,0.36,0.92,0.59,1.34c3.36,6.14,1.95,5.87,2.65,13.34c0.36,3.85-1.46,7.9,0.91,11.59
			c0.32,0.49,0.23,1.28,0.23,1.93c0.01,1.66,0.35,3.45-0.17,4.94c-0.54,1.55,0.73,2.75,0.18,4.14c-0.41,1.05-0.78,2.11-1.29,3.52
			c-2.3,0-4.61,0.06-6.91-0.03c-0.95-0.04-2.14-0.1-2.79-0.65c-1.72-1.47-4.22-0.41-5.93-2.21c-0.69-0.72-2.5-0.2-3.62,0.83
			c-2.41,2.21-5.45,2.35-8.52,2.49c-0.99,0.05-1.96,0.6-3.67,1.16c1.17,0.82,1.8,1.15,2.31,1.63c1.87,1.77,4.24,2.78,5.89,5.1
			c1.47,2.07,4.48,3.17,6.98,4.34c2.49,1.17,5.2,1.89,8.14,2.93c0.64-0.46,1.5-1.08,2.44-1.75c1.45,0.38,3.12,0.4,4.22,1.2
			c3.77,2.72,8.38,3.54,12.32,5.8c1.19,0.68,2.17,1.74,3.7,3c0.45-0.14,1.46-0.44,2.24-0.68c0.27-0.67,0.52-0.97,0.5-1.26
			c-0.33-7.09,2.1-7.89,6.98-9.49c1.69-0.55,3.46-0.89,5.11-1.54c2.21-0.88,4.26-1.4,6.61-0.19c1.08,0.55,2.58,0.29,3.74,0.39
			c0.88,0.81,1.63,1.47,2.34,2.17c4.1,4,5.03,5.91,5.3,11.76c0.14,3.15-0.01,6.32-0.04,9.48c-0.03,3.09-2.06,5.1-4.31,7.36
			c1.51,3.94,3.82,7.33,6.84,10.33c1.37,1.37,2.51,2.97,3.71,4.51c0.5,0.64,0.7,1.59,1.3,2.07c4.84,3.8,4.9,9.34,5.55,14.7
			c0.19,1.6,0.62,3.18,0.87,4.77c0.38,2.41,0.96,4.83,0.99,7.25c0.03,2.35-0.18,4.95,0.33,7.02c1.21,4.97,0.32,9.89,0.81,14.79
			c0.6,6.06-1.93,11.14-4.52,16.26c-2.05,4.06-4.37,8.03-5.93,12.28c-0.93,2.52-0.62,5.5-0.9,8.63c2.47,1.69,5.4,2.87,7.05,5.03
			c1.86,2.42,5.47,1.54,6.74,4.75c-0.16,0.73-0.4,1.79-0.7,3.1c-2.65,1.63-5.37,0.53-8.07-0.31c-3.55-1.1-7.03-2.71-10.66-3.23
			c-3.7-0.52-5.15-3.02-5.83-5.71c-0.65-2.59-0.66-5.52,0.67-8.23c1.22-2.48,2.23-5.05,2.18-7.96c-0.02-1.4,0.22-3.22,1.1-4.14
			c1.77-1.86,0.8-4.18,1.63-6.18c0.79-1.9,0.82-4.12,1.12-6.2c0.37-2.58,0.97-5.18,0.91-7.76c-0.09-3.47-0.46-6.98-1.2-10.37
			c-0.72-3.34-2.14-6.51-2.6-9.96c-0.4-3-1.91-5.21-5.3-5.59c-0.76-0.09-1.47-0.63-2.53-1.11c-1.59,1.08-3.36,1.98-4.75,3.3
			c-2.55,2.42-5.78,4.19-7.13,7.86c-0.42,1.15-2.19,1.92-3.46,2.64c-5.7,3.24-10,7.78-13.98,12.99c-3.17,4.14-5.2,8.87-8.24,12.98
			c-1.33,1.8-3.4,3.06-5.19,4.51c-5.19,4.22-10.27,8.63-16.46,11.39c-1.47,0.65-3.06,1.02-4.59,1.56c-3.2,1.13-6.41,2.24-9.57,3.46
			c-1.99,0.76-3.93,1.55-6.13,1.55c-0.62,0-1.26,0.68-1.85,1.12c-2.38,1.76-4.66,2.79-7.94,1.94c-6.68-1.73-13.55-2.75-20.28-4.31
			c-2.18-0.51-4.38-1.41-5.87-3.38c-0.9-1.19-1.93-2.27-2.42-2.84c-7.18-1.7-13.77-1.48-20.21-2.71c-2.37-0.45-4.93-0.66-7.42-0.89
			c-2.45-0.22-4.93-0.69-7.13-1.96c-0.63-0.36-1.17-0.9-1.69-1.42c-1.28-1.3-2.53-2.63-4-4.18c0.29-1.2,0.61-2.54,1.04-4.36
			c-3.45,0.36-6.59-0.44-9.9,0.77c-1.9,0.7-4.28,0.13-6.54,0.13c-0.88,4.45-1.8,8.7-2.56,12.99c-0.71,4-2.13,7.55-5.7,10.11
			c-0.14,1.41-0.29,2.86-0.43,4.31c-1.7,1.47-3.39,2.94-5.32,4.62c0.94,0.88,1.43,1.68,2.1,1.9c2.75,0.88,2.98,3.17,3.34,5.44
			c0.43,2.71-0.34,5.37-0.23,8.1c0.2,4.84,0.38,5.3,5.02,6.54c3.67,0.98,6.95,2.75,10.08,5.38c0,1.76,0,3.71,0,5.73
			c-4.33,4.39-9.71,5.65-16.37,4.49c-2.43-2.92-6.15-4.3-10.29-3.57c-4.56-3.7-8.86-7.25-13.25-10.7c-0.85-0.66-2.01-1.24-3.05-1.28
			c-4.9-0.18-8.02-2.29-8.73-7.4c2.64-2.97,5.3-5.96,8.05-9.03c-0.84-0.71-1.28-1.26-1.85-1.53c-1.79-0.84-2.19-2.01-1.39-3.83
			c0.31-0.7,0.13-1.64,0.11-2.47c-0.07-2.92,1.34-5.02,3.64-6.63c0.78-0.54,1.57-1.07,2.61-1.78c-0.81-1.1-1.48-1.99-2.55-3.44
			c0.32-1.53,0.77-3.57,1.18-5.62c0.45-2.29-0.77-5.06-2.81-5.08c-5.39-0.05-7.14-4.44-9.97-7.58c-1.63-1.81-1.68-4.13-1.74-6.36
			c-0.05-1.86,0.14-3.77,2.02-4.9c2.73-0.96,5.12,0.41,7.6,1.15c3.61,1.08,4.04,0.92,5.11-2.8c0.94-3.27,1.88-6.55,2.5-9.88
			c0.57-3.08,2.21-5.99,1.59-9.31c-0.13-0.68,0.51-1.49,0.74-2.25c0.6-2.05,0.84-4.03-0.23-6.1c-0.57-1.1-0.86-2.54-0.74-3.77
			c0.32-3.19-0.75-6-2.61-8.26c-3.14-3.83-4.61-8.58-7.5-12.51c-1.65-2.24-2.82-4.97-4.83-6.78c-4.24-3.81-6.1-8.81-7.92-13.86
			c-0.68-1.87-1.67-3.1-3.4-3.92c-2.36-1.11-4.7-2.27-6.25-3.02c-2.46-2.03-4.26-3.63-6.19-5.06c-1.44-1.06-2.8-1.96-3.81-3.65
			c-2.33-3.9-3.78-8.04-4.45-12.45c-0.52-3.39-0.68-6.83-1-10.25c-0.05-0.5,0.1-1.09-0.13-1.48c-3.55-6.22-3.29-13.55-5.88-20.04
			c-0.18-0.45-0.03-1.09-0.31-1.42c-3.27-3.84-4.73-8.83-8.09-12.63c-1.15-1.3-1.98-3.03-2.52-4.7c-1.25-3.87-1.69-4.89-4.58-7.96
			c-2.9,0-5.88,0-9.01,0c-2.58,3.08-6.29,4.41-10.15,5.48c-0.7-1.21-1.14-2.33-0.69-4.27c0.58-2.52-0.29-5.37-0.2-8.15
			c0.18-5.38-0.58-10.81-0.2-16.16c0.25-3.47,1.2-7.12,4.03-9.73c2.78-2.57,5.59-5.13,8.46-7.6c2.2-1.89,4.87-2.58,7.75-2.56
			c2.99,0.02,5.97,0.01,9.38,0.01c-0.82-1.04-1.82-1.75-1.83-2.47c-0.02-1.02,0.6-2.1,1.11-3.06c0.3-0.56,0.84-1.14,1.41-1.38
			c3.19-1.34,4.58-3.97,5.32-7.34c-1.38-2.07-2.24-4.51-1.94-7.25c0.04-0.33,0.13-0.74-0.02-0.99c-2.07-3.42-0.36-6.24,1.03-8.49
			c2.68-1.28,4.91-2.2,6.99-3.38c2.61-1.47,5.43-2.09,8.32-2.57c0.32-0.05,0.67,0.03,1-0.02c4.93-0.71,9.47,0.27,13.66,2.97
			c0.95,0.61,2.03,1.04,2.95,1.49c2.43,3.37,4.59,6.82,7.22,9.86c2.9,3.36,1.59,7.92,4.12,11.31c-0.75,0.96-1.34,1.73-1.93,2.48
			c0.86,1.88,1.7,3.73,2.54,5.57c-0.7,2.7-2.09,5.13-1.96,8.06c0.07,1.54-0.23,3.61-1.22,4.59c-2.05,2.02-2.59,4.86-4.51,7.02
			c2.55,3.76,5.95,5.46,10.68,5.72c6.07,0.33,12.11,0.23,18.1-0.34c2.86-0.27,6.09-1.05,8.1-3.79c0.34-0.46,0.9-0.89,1.45-1.04
			c5.66-1.63,10.05-5.44,14.56-8.84C287.17,220.81,291.17,218.22,292.78,214.34z"/>
		<path d="M283,409.85c-3-1.84-1.05-4.54-2.24-6.38c1.28-2.54-0.27-4.82-0.65-7.21c-0.23-1.44-0.93-3.16-0.4-4.28
			c1.13-2.38,0.33-4.63,0.21-6.89c-0.16-2.8-0.78-5.56-1.2-8.34c-0.02-0.16-0.16-0.35-0.1-0.46c2.57-5.47,0.57-11.19,0.85-16.79
			c0.29-5.8,0-11.64-0.03-17.46c0-0.66,0-1.33,0-2.24c3.43-3.98,7.03-7.89,12.07-10.2c2.82-1.29,5.5-2.94,8.37-4.1
			c3.2-1.29,6.54-2.24,9.83-3.29c2.16-0.69,4.33-1.43,6.54-1.91c2.39-0.52,4.83-0.77,7.25-1.13c2.09-0.32,4.18-0.68,6.28-0.93
			c4.13-0.49,8.3-0.18,12.42-0.43c5.08-0.32,10.1-1.32,15.17-1.91c2.06-0.24,4.32-0.67,6.21-0.1c2.15,0.65,4.36,1.98,5.87,3.62
			c1.94,2.11,3.88,3.91,6.55,5.03c1.48,0.62,2.83,1.67,4.06,2.74c4.24,3.68,9.65,5.21,14.43,7.9c2.22,1.25,4.97,1.61,7.12,2.95
			c2.04,1.28,3.79,2.99,5.96,4.25c3.11,1.81,5.75,4.41,6.91,8.22c-1.39,7.82-6.68,13.3-11.82,18.87c-1.24,1.35-2.52,2.66-3.86,3.9
			c-1.75,1.62-2.78,3.49-3.39,5.85c-0.51,1.95-1.78,3.79-3.05,5.42c-0.54,0.68-1.96,0.97-2.97,0.93c-3.85-0.12-7.68,0-11.52-1.06
			c-2.37-0.66-5.13,0.83-7.72-0.16c-6.53,1.28-13.18,1.98-19.55,3.94c-3.08,0.94-5.94,2.62-8.93,3.87
			c-6.29,2.63-12.4,5.68-19.14,7.16c-2.03,0.45-3.95,1.44-5.91,2.22c-2.09,0.84-4.16,1.26-6.47,0.75c-0.95-0.21-2.14,0.45-3.17,0.85
			c-1.49,0.59-3.05,2.02-4.37,1.81c-3.52-0.55-6.31,2.21-9.81,1.6c-1.67-0.29-3.61,0.18-5.26,0.78
			C285.87,407.82,284.44,408.99,283,409.85z"/>
		<path d="M437.74,369.86c3.45,5.23,5.29,10.97,2.52,17.96c1.29,0.91,2.79,1.95,4.6,3.22c-1.33,1.43-2.17,2.32-3.28,3.51
			c-1.42-0.84-2.78-1.65-4.5-2.67c-5.41,3.98-11.45,5.36-17.98,2.06c-0.61,0.81-1.1,1.47-1.58,2.12c-0.48,0.65-0.97,1.31-1.62,2.2
			c-0.75-0.48-1.41-0.88-2.04-1.32c-0.54-0.38-1.05-0.81-1.77-1.37c1.21-1.51,2.22-2.77,3.42-4.27c-1.39-2.67-4.11-4.71-4.2-8.41
			c-0.08-3.11,0.13-6.01,1.24-9.43c-1.2-0.91-2.64-2-4.21-3.19c1.08-1.56,1.87-2.71,2.66-3.86c1.63,1.12,3.25,2.24,5.04,3.48
			c2.25-2.4,5.1-3.57,8.51-3.87c3.09-0.27,6-0.01,9.03,1.4c1.07-1.34,2.06-2.58,3.33-4.17c1.11,0.66,2.29,1.36,3.61,2.14
			C439.55,366.95,438.7,368.31,437.74,369.86z"/>
		<path d="M337.99,424.07c5.27-0.4,9.66-0.74,14.04-1.07c0.65-0.05,1.42,0.07,1.94-0.23c3.48-2,7.29-1.68,11.06-1.74
			c1.14-0.02,2.29-0.15,3.4-0.41c3.23-0.73,3.23-0.77,6.7,1.66c-0.86,2.94-3.71,3.39-5.94,4.3c-2.97,1.21-6.17,1.88-9.31,2.66
			c-2.03,0.5-4.61,0.17-6.04,1.33c-1.76,1.42-3.7,0.07-5.29,1.32c-0.63,0.5-1.93,0.1-2.93,0.18c-2.99,0.24-4.99-1.13-6.15-3.79
			C338.97,427.14,338.63,425.92,337.99,424.07z"/>
		<path class="st0" d="M434.23,373.36c1.37,1.98,2.18,3.16,3.06,4.43c0.3,2.49,0.61,5.08-1.58,7.37c-1.77-1.55-3.54-3.09-5.48-4.78
			C431.48,378.18,432.66,376.11,434.23,373.36z"/>
		<path class="st0" d="M423.22,380.95c-1.78,2.41-3.17,4.31-4.8,6.52c-3.36-3.4-3.11-7.04-2.04-11.46
			C418.7,377.69,420.68,379.12,423.22,380.95z"/>
		<path class="st0" d="M427.02,383.72c2.2,1.73,3.85,3.03,5.41,4.26c0.29,1.82-0.66,2.81-2.07,2.98c-2.59,0.3-5.22,0.38-8.48-0.13
			C423.79,388.19,425.3,386.1,427.02,383.72z"/>
		<path class="st0" d="M425.22,377.53c-1.17-2.58-4.53-2.6-4.83-5.55c3.05-2.73,6.49-1.71,9.94-1.77
			C429.35,373.12,428.27,374.68,425.22,377.53z"/>
		<g>
			<path class="st1" d="M82.06,277.94l-0.62-0.23c-17.09-6.2-23.87-23.05-17.73-39.98c4.92-13.58,15.44-23.36,30.69-18.89
				l-6.34,17.48c-4.83-1.04-8.45,0.91-10.43,6.37c-2.55,7.02,1.36,13.29,10.8,16.72l0.62,0.23c8.19,2.97,15.82,2.64,19.1-6.41
				c2.55-7.02,0.08-10.92-3.45-12.64l-3.45,9.52l-11.63-4.22l9.7-26.76l7.18,2.6c13.89,5.04,21.66,18.18,14.87,36.91
				C114.38,277.92,98.84,284.02,82.06,277.94z"/>
			<path class="st1" d="M111.1,205.15l-0.52-0.41c-14.5-11.24-15.4-29.59-4.51-43.62c11.19-14.43,28.26-18.42,43.08-6.93l0.52,0.41
				c14.63,11.34,16.62,28.96,4.66,44.37C142.43,214.32,125.33,216.18,111.1,205.15z M137.99,170.33l-0.52-0.41
				c-7.94-6.15-15.22-5.71-19.79,0.2c-4.48,5.77-3.11,12.82,4.89,19.02l0.52,0.41c8,6.21,15.3,5.87,19.87-0.03
				C147.49,183.68,145.8,176.38,137.99,170.33z"/>
			<path class="st1" d="M162.82,143.01l-0.37-0.55c-10.27-15.2-5.42-32.91,9.3-42.86c15.13-10.23,32.59-8.71,43.09,6.83l0.37,0.55
				c10.37,15.33,6.77,32.69-9.38,43.62C189.73,161.48,172.9,157.93,162.82,143.01z M199.21,118.3l-0.37-0.55
				c-5.63-8.32-12.68-10.16-18.87-5.98c-6.05,4.09-6.95,11.21-1.28,19.6l0.37,0.55c5.67,8.39,12.71,10.34,18.89,6.16
				C204.08,133.95,204.74,126.48,199.21,118.3z"/>
			<path class="st1" d="M225.54,70.69l21.7-6.51c20.35-6.11,33.6,0.49,39.01,18.54l0.17,0.56c5.44,18.12-2.09,31.74-22.12,37.75
				l-21.7,6.51L225.54,70.69z M259.51,107.38c8.82-2.65,11.25-8.14,8.27-18.08l-0.19-0.64c-3.12-10.41-8.16-13.06-16.91-10.44
				l-2.94,0.88l8.75,29.18L259.51,107.38z"/>
			<path class="st1" d="M361.86,51.62l20.66,4.19l10.28,34.1l6.23-30.75l16.19,3.28l-11.79,58.16l-17.65-3.58l-12.38-38.76
				l-7.06,34.82l-16.27-3.3L361.86,51.62z"/>
			<path class="st1" d="M442.5,73.49l17.27,7.94l-24.79,53.92l-17.27-7.94L442.5,73.49z"/>
			<path class="st1" d="M465.02,116.69l0.41-0.52c11.21-14.31,29.33-15.51,43.51-4.41c11.37,8.9,17.39,21.95,8.41,35.04
				l-14.64-11.46c2.5-4.26,1.77-8.31-2.81-11.9c-5.88-4.61-13.06-2.84-19.25,5.06l-0.41,0.52c-5.37,6.86-7.43,14.21,0.15,20.14
				c5.88,4.61,10.35,3.47,13.09,0.65l-7.97-6.24l7.62-9.74l22.42,17.55l-4.71,6.01c-9.11,11.63-24.02,14.93-39.7,2.65
				C454.99,147.41,454.02,130.74,465.02,116.69z"/>
			<path class="st1" d="M551.56,152.66l10.63,15.56l-18.09,12.36l9.83,14.39l18.09-12.36l10.63,15.56l-49,33.47l-10.63-15.56
				l18.85-12.88l-9.83-14.39l-18.85,12.88l-10.63-15.56L551.56,152.66z"/>
			<path class="st1" d="M585.58,241.74l-4.73-14.17l13.7-4.57l15.48,46.38l-13.7,4.57l-4.76-14.25l-42.6,14.22l-5.99-17.95
				L585.58,241.74z"/>
		</g>
		<g>
			<path class="st1" d="M101.63,380.82l8.13,17.18l-29.12,21.31l35.09-8.71l7,14.78l-28.96,22.62l35.5-8.81l7.46,15.75l-59.54,12.94
				l-8.13-17.18l28.48-22.67l-35.62,7.59l-8.02-16.96L101.63,380.82z"/>
			<path class="st1" d="M144.35,462.13l13.14,13.51l-15.71,15.28l12.15,12.5l15.71-15.28l13.14,13.51l-42.54,41.38l-13.14-13.51
				l16.36-15.91l-12.15-12.5l-16.36,15.92l-13.14-13.51L144.35,462.13z"/>
			<path class="st1" d="M195.81,509.75l15.94,10.36l-32.34,49.76l-15.94-10.36L195.81,509.75z"/>
			<path class="st1" d="M229.95,545.77l-13.86-5.58l5.4-13.4l45.35,18.27l-5.4,13.4l-13.93-5.62l-16.78,41.65l-17.55-7.07
				L229.95,545.77z"/>
			<path class="st1" d="M277.76,547.54l41.71,6.2l-2.12,14.28l-23.15-3.44l-1.23,8.29l18.39,2.73l-1.94,13.05l-18.39-2.73l-1.3,8.78
				l24.46,3.64l-2.12,14.29l-43.02-6.39L277.76,547.54z"/>
			<path class="st1" d="M374.78,550.37l22.78-6.39c16.46-4.62,25.56,0.76,28.99,12.99l0.09,0.32c3.34,11.91-2.69,20.84-17.47,24.99
				l-5.51,1.55l5.22,18.62l-18.06,5.07L374.78,550.37z M403.99,570.63c4.8-1.34,6.67-4.2,5.48-8.43l-0.09-0.32
				c-1.23-4.39-4.2-5.46-8.92-4.14l-3.84,1.08l3.61,12.87L403.99,570.63z"/>
			<path class="st1" d="M431.18,532.8l20.89-12.29c14.09-8.29,24.71-6.93,31.15,4.01l0.17,0.29c4.17,7.08,2.95,13.19-0.79,18.47
				l23.95,14.03l-17.03,10.01L469.7,555.4l-2.58,1.52l10.31,17.53l-16.17,9.51L431.18,532.8z M464.77,544.24
				c4.51-2.65,5.56-5.77,3.37-9.49l-0.17-0.29c-2.19-3.72-5.25-3.85-9.61-1.28l-3.86,2.27l6.48,11.02L464.77,544.24z"/>
			<path class="st1" d="M484.14,498.12l14.07-12.78l39.89,43.95l-14.07,12.78L484.14,498.12z"/>
			<path class="st1" d="M509.7,475.06l13.14-18.46c12.32-17.32,26.82-20.24,42.18-9.32l0.47,0.34
				c15.42,10.97,17.83,26.34,5.71,43.38l-13.13,18.46L509.7,475.06z M559.04,483.16c5.34-7.51,3.88-13.33-4.57-19.35l-0.54-0.38
				c-8.86-6.3-14.46-5.3-19.76,2.14l-1.78,2.5l24.82,17.66L559.04,483.16z"/>
			<path class="st1" d="M545.93,419.62l14.88-39.45l13.51,5.1l-8.26,21.9l7.84,2.96l6.56-17.4l12.35,4.66l-6.56,17.4l8.31,3.13
				l8.73-23.14l13.51,5.1l-15.35,40.69L545.93,419.62z"/>
		</g>
		<g>
			<path class="st1" d="M79.28,352.93L57,369.02l8.78-26.17L43.44,326.7h27.35l8.49-26.17l8.49,26.17h27.35l-22.34,16.15l8.78,26.17
				L79.28,352.93z"/>
		</g>
		<g>
			<path class="st1" d="M586.66,352.93l-22.28,16.09l8.78-26.17l-22.34-16.15h27.35l8.49-26.17l8.49,26.17h27.35l-22.34,16.15
				l8.78,26.17L586.66,352.93z"/>
		</g>
	</g>
</g>
</svg>
