<?xml version="1.0" encoding="UTF-8" standalone="no"?>
<!-- Created with Inkscape (http://www.inkscape.org/) -->

<svg
   xmlns:dc="http://purl.org/dc/elements/1.1/"
   xmlns:cc="http://creativecommons.org/ns#"
   xmlns:rdf="http://www.w3.org/1999/02/22-rdf-syntax-ns#"
   xmlns:svg="http://www.w3.org/2000/svg"
   xmlns="http://www.w3.org/2000/svg"
   xmlns:sodipodi="http://sodipodi.sourceforge.net/DTD/sodipodi-0.dtd"
   xmlns:inkscape="http://www.inkscape.org/namespaces/inkscape"
   width="170.84525mm"
   height="170.84525mm"
   viewBox="0 0 170.84525 170.84525"
   version="1.1"
   id="svg866"
   inkscape:version="0.92.3 (2405546, 2018-03-11)"
   sodipodi:docname="Cinco De Mayo.svg">
  <title
     id="title948">Cinco De Mayo</title>
  <defs
     id="defs860" />
  <sodipodi:namedview
     id="base"
     pagecolor="#ffffff"
     bordercolor="#666666"
     borderopacity="1.0"
     inkscape:pageopacity="0.0"
     inkscape:pageshadow="2"
     inkscape:zoom="0.35"
     inkscape:cx="374.28572"
     inkscape:cy="220"
     inkscape:document-units="mm"
     inkscape:current-layer="layer1"
     showgrid="false"
     inkscape:snap-global="false"
     fit-margin-top="0"
     fit-margin-left="0"
     fit-margin-right="0"
     fit-margin-bottom="0"
     inkscape:window-width="1920"
     inkscape:window-height="1017"
     inkscape:window-x="3832"
     inkscape:window-y="-8"
     inkscape:window-maximized="1" />
  <metadata
     id="metadata863">
    <rdf:RDF>
      <cc:Work
         rdf:about="">
        <dc:format>image/svg+xml</dc:format>
        <dc:type
           rdf:resource="http://purl.org/dc/dcmitype/StillImage" />
        <dc:title>Cinco De Mayo</dc:title>
        <cc:license
           rdf:resource="http://creativecommons.org/publicdomain/zero/1.0/" />
      </cc:Work>
      <cc:License
         rdf:about="http://creativecommons.org/publicdomain/zero/1.0/">
        <cc:permits
           rdf:resource="http://creativecommons.org/ns#Reproduction" />
        <cc:permits
           rdf:resource="http://creativecommons.org/ns#Distribution" />
        <cc:permits
           rdf:resource="http://creativecommons.org/ns#DerivativeWorks" />
      </cc:License>
    </rdf:RDF>
  </metadata>
  <g
     inkscape:label="Layer 1"
     inkscape:groupmode="layer"
     id="layer1"
     transform="translate(-6.8035699,-36.196417)">
    <g
       id="g946"
       transform="matrix(0.52193997,0,0,0.52193997,37.579388,49.26356)"
       style="stroke-width:1.9159292">
      <path
         d="M -52.463416,184.29691 A 163.6637,163.6637 0 0 1 52.357951,-16.440323 163.6637,163.6637 0 0 1 257.39003,79.70957 163.6637,163.6637 0 0 1 170.08718,288.66212 163.6637,163.6637 0 0 1 -42.404302,210.36572"
         sodipodi:open="true"
         sodipodi:end="2.6878594"
         sodipodi:start="2.858797"
         sodipodi:ry="163.6637"
         sodipodi:rx="163.6637"
         sodipodi:cy="138.62798"
         sodipodi:cx="104.69941"
         sodipodi:type="arc"
         id="path933"
         style="opacity:1;fill:#fec00d;fill-opacity:1;stroke:none;stroke-width:0.5069229;stroke-linejoin:miter;stroke-miterlimit:4;stroke-dasharray:none;stroke-dashoffset:0;stroke-opacity:1;paint-order:markers fill stroke" />
      <path
         d="M -28.492849,177.06332 A 139.09521,139.09521 0 0 1 60.593191,6.4598791 139.09521,139.09521 0 0 1 234.84675,88.176169 139.09521,139.09521 0 0 1 160.64942,265.76167 139.09521,139.09521 0 0 1 -19.943766,199.21878"
         sodipodi:open="true"
         sodipodi:end="2.6878594"
         sodipodi:start="2.858797"
         sodipodi:ry="139.09521"
         sodipodi:rx="139.09521"
         sodipodi:cy="138.25"
         sodipodi:cx="105.07738"
         sodipodi:type="arc"
         id="path939"
         style="opacity:1;fill:#f5ead6;fill-opacity:1;stroke:none;stroke-width:0.50692284;stroke-linejoin:miter;stroke-miterlimit:4;stroke-dasharray:none;stroke-dashoffset:0;stroke-opacity:1;paint-order:markers fill stroke" />
      <path
         id="path923"
         transform="scale(0.26458333)"
         d="m 422,39.519531 -0.008,8.25 c -0.004,4.537501 -0.65892,37.05001 -1.45508,72.249999 -0.79612,35.2 -1.7381,77.05 -2.09375,93 -0.35584,15.95 -0.9116,29.43297 -1.23438,29.96094 -0.32273,0.52797 -0.90399,-0.14703 -1.29101,-1.5 -0.38706,-1.35297 -6.3442,-20.46094 -13.23828,-42.46094 -6.89409,-22 -17.25247,-55.075 -23.01953,-73.5 -20.76614,-66.34499 -26.80458,-85.427602 -27.14844,-85.798827 -0.31969,-0.34515 -40.69822,17.790493 -41.62891,18.697266 -0.59545,0.580138 -2.53184,22.53716 -9.40234,106.601561 -0.80912,9.9 -2.58936,31.275 -3.95703,47.5 -1.36766,16.225 -4.06505,48.4 -5.99219,71.5 -1.92713,23.1 -4.63486,55.49816 -6.01758,71.99609 -1.38271,16.49797 -2.51367,31.46051 -2.51367,33.25 0,1.78954 0.15712,3.25391 0.34961,3.25391 0.47973,0 43.80116,-14.62936 50.76953,-17.14453 l 5.61914,-2.02734 0.6543,-9.66407 c 0.35951,-5.31501 1.31404,-17.98906 2.12109,-28.16406 0.80706,-10.175 2.60139,-33.8 3.98828,-52.5 1.38689,-18.7 2.80439,-37.7125 3.14844,-42.25 0.34405,-4.5375 0.97875,-8.25 1.41211,-8.25 0.67401,0 9.85227,11.31478 27.58008,34 2.36394,3.025 8.05231,10.225 12.64062,16 4.58827,5.775 16.59432,21.075 26.67969,34 10.08533,12.925 18.45195,23.64381 18.5918,23.82031 0.13988,0.17651 9.18444,-3.26805 20.09961,-7.65625 l 19.8457,-7.97851 0.25391,-142.59375 0.2539,-142.591799 h -27.5039 z M 223.16992,82.085938 c -5.99475,0.05716 -8.01996,0.565665 -12.38867,2.613281 -16.34727,7.661956 -26.01719,26.160391 -22.96875,43.937501 2.72268,15.87747 13.49664,28.22355 28.2207,32.3418 5.84067,1.63361 14.82111,1.45403 21.14258,-0.42188 6.70453,-1.98957 15.43605,-8.70494 19.7832,-15.21484 5.61829,-8.41345 7.37038,-15.03328 6.85157,-25.88477 -0.36458,-7.62542 -0.89926,-9.73265 -4.13672,-16.2832 -4.25561,-8.610658 -9.88192,-14.168172 -18.55078,-18.326174 -4.84354,-2.323188 -6.9414,-2.705332 -15.12305,-2.761718 -1.03688,-0.0071 -1.97368,-0.0082 -2.83008,0 z M 609.3125,96.300781 c -7.62783,-0.0056 -15.11387,0.516916 -20.07812,1.572266 -22.78999,4.844903 -44.30579,27.201983 -62.69727,65.146483 -15.46314,31.90294 -23.88222,63.17372 -26.62109,98.87695 -6.59932,86.02748 35.83887,141.90832 112.83593,148.57813 9.64196,0.83524 27.00724,0.41795 34.74805,-0.83399 l 4,-0.64648 10.74609,-42.9082 c 5.9102,-23.59937 10.62756,-43.02686 10.48243,-43.17188 -0.1451,-0.14502 -2.95591,1.02772 -6.2461,2.60547 -27.6904,13.27838 -67.04448,11.47914 -81.91015,-3.74414 -4.66436,-4.77657 -8.97652,-13.551 -11.67579,-23.75586 -2.67647,-10.11884 -3.71942,-36.68243 -1.96289,-50.03515 4.58393,-34.84523 19.38387,-61.51074 38.06641,-68.58594 4.59832,-1.74139 7.07511,-2.00914 15.11133,-1.63867 8.11143,0.37395 10.65247,0.92924 16.27539,3.56054 15.85946,7.42153 26.27847,25.99206 28.36719,50.5586 L 669.5,240.64453 695,223.45898 c 14.025,-9.45196 25.89114,-17.54264 26.36914,-17.98046 2.07519,-1.90062 -5.37746,-24.93458 -13.41406,-41.45899 -7.43611,-15.28974 -14.20379,-25.4737 -23.4961,-35.35156 -16.09379,-17.10774 -32.97566,-26.6869 -54.21093,-30.763673 -5.53733,-1.063123 -13.30772,-1.5979 -20.93555,-1.603516 z M 153.3457,123.51953 c -1.20239,0 -13.71007,7.23832 -27.3457,15.82422 -16.89526,10.63838 -37.293917,25.44338 -53.792969,39.04102 -15.77272,12.99905 -49.947581,47.09797 -61.269531,61.13476 -42.380025,52.54212 -66.163906,103.49838 -76.384766,163.64453 -6.368761,37.47784 -4.987927,72.3772 3.882813,98.06446 13.189629,38.19363 40.903044,61.1254 80.064453,66.25195 29.75062,3.89461 66.822724,-3.72651 105.61133,-21.71094 l 8.61133,-3.99219 0.62304,-8.8789 c 0.34273,-4.88338 0.91783,-22.86957 1.2793,-39.96875 l 0.6582,-31.08789 -7.69336,1.3164 c -34.19693,5.85695 -63.537119,2.4083 -81.988278,-9.63672 -16.152895,-10.54473 -22.900051,-25.77527 -22.814453,-51.50195 0.0932,-28.00219 10.057533,-58.45766 27.988282,-85.54297 22.667255,-34.24006 51.388639,-54.04526 83.339839,-57.46679 l 5.61719,-0.59961 0.56836,-5.19532 c 0.31351,-2.85714 1.52007,-13.74531 2.67969,-24.19531 11.75217,-105.90586 11.71142,-105.5 10.36523,-105.5 z m 110.21875,60 c -1.7212,0 -68.13304,17.2209 -68.74609,17.82617 -0.66651,0.65806 -1.2753,5.87239 -6.31445,54.17383 -1.34843,12.925 -3.36684,32.05 -4.48633,42.5 -1.11949,10.45 -2.7006,25.3 -3.51367,33 -2.64242,25.02449 -6.64471,62.65662 -9.46485,89 -1.11871,10.44998 -2.03611,19.78751 -2.03711,20.75 -0.001,1.01836 0.72969,1.73154 1.74805,1.70508 0.9625,-0.0252 19.975,-4.6685 42.25,-10.31836 l 40.5,-10.27344 1.16602,-23.93164 c 0.64129,-13.16239 1.88996,-40.35664 2.77539,-60.43164 2.38089,-53.98034 4.4611,-100.17475 5.01953,-111.5 1.36158,-27.61354 1.74744,-42.5 1.10351,-42.5 z m 509.96485,94 c -23.4895,0 -43.95244,9.81898 -63.08985,30.27344 -33.75908,36.08254 -45.39363,99.0338 -28.22656,152.72656 14.35283,44.89092 45.68773,75.09718 83.28711,80.28711 12.71131,1.75457 29.75192,-1.44181 43,-8.06445 28.28013,-14.13699 51.36997,-46.32579 60.02539,-83.67969 19.87268,-85.76408 -27.6293,-171.54297 -94.99609,-171.54297 z m 0.11328,76.49414 c 4.66843,-0.0601 9.32669,0.88075 13.64648,2.82617 11.76892,5.30019 22.14882,19.3491 26.36133,35.67969 2.17187,8.39683 2.17484,24.2943 0.0117,33.24414 -3.67529,15.20655 -13.7357,29.23866 -25.05859,34.95508 h -0.006 c -11.13721,5.62261 -24.06493,4.60386 -34.64844,-2.73047 -13.09708,-9.07631 -21.95508,-28.67102 -21.95508,-48.5664 0,-23.39067 11.20173,-44.33083 27.94141,-52.23047 4.35906,-2.05708 9.03859,-3.11768 13.70703,-3.17774 z"
         style="fill:#5da005;fill-opacity:1;stroke-width:7.24130726"
         inkscape:connector-curvature="0" />
      <path
         id="path909"
         transform="scale(0.26458333)"
         d="m 389,404.51953 v 104.5 104.5 h 76.03125 c 59.92785,0 76.12393,-0.26479 76.46484,-1.25 0.52014,-1.50368 4.11706,-34.90092 5.00782,-46.49609 1.05925,-13.78878 8.57929,-12.25391 -60.01172,-12.25391 -32.6555,0 -59.57506,-0.3375 -59.82031,-0.75 -0.24526,-0.4125 0.0661,-7.95001 0.6914,-16.75 l 1.13672,-16 24,-1.14844 c 13.2,-0.63178 29.09881,-1.46581 35.33008,-1.85351 l 11.33008,-0.70508 -0.54688,-4.64648 c -0.30021,-2.55553 -0.84016,-11.56312 -1.19922,-20.01758 l -0.65234,-15.37305 -13.13086,0.64844 c -7.222,0.3558 -21.85191,1.13036 -32.50977,1.72265 -16.06805,0.89292 -19.52393,0.8457 -20.23437,-0.27539 -0.47119,-0.74362 -0.86354,-4.32165 -0.8711,-7.95117 -0.008,-3.62952 -0.31294,-10.11069 -0.67578,-14.40234 l -0.6582,-7.80274 51.6582,0.73047 L 532,449.67383 v -22.57617 -22.57813 h -71.5 z m -90.5,33.65039 c -23.66646,0.0201 -42.63978,3.42182 -75,13.44531 -7.15,2.21469 -13.7875,4.25466 -14.75,4.53321 -1.6517,0.47826 -1.75,6.14905 -1.75,100.93945 0,55.23791 0.18873,100.43164 0.41992,100.43164 3.32768,0 39.47556,-14.92486 55,-22.70898 65.00196,-32.59227 101.81197,-69.35399 110.23633,-110.08985 2.15238,-10.40783 1.37536,-29.73781 -1.61719,-40.20117 -6.8518,-23.95721 -21.66338,-37.99513 -46.58008,-44.15039 -7.49131,-1.85046 -11.74486,-2.21056 -25.95898,-2.19922 z m -3.76758,55.85742 c 5.7669,-0.0271 10.74681,0.50878 13.33985,1.65821 9.6815,4.29157 15.22909,13.44589 15.35351,25.33398 0.21857,20.88083 -18.25583,39.76009 -53.7207,54.89453 -5.9371,2.53361 -10.92525,4.60547 -11.08399,4.60547 -1.3717,0 -1.62109,-6.20132 -1.62109,-40.19141 V 501.4707 l 2.73242,-1.03906 c 1.50293,-0.57143 7.01543,-2.1977 12.25,-3.61328 6.61987,-1.79025 15.33542,-2.75611 22.75,-2.79102 z"
         style="fill:#6b2c01;fill-opacity:1;stroke-width:7.24130726"
         inkscape:connector-curvature="0" />
      <path
         id="path903"
         transform="scale(0.26458333)"
         d="m 770.61328,573.57812 c -4.75492,-0.011 -7.322,0.55555 -12.82617,2.28126 -11.12791,3.48883 -19.59825,8.6965 -28.27344,17.38476 -29.76975,29.81461 -41.74101,83.38114 -29.49609,131.98242 9.9902,39.6522 33.47114,67.40449 62.41015,73.75977 8.28851,1.82018 13.31917,1.81054 22.29297,-0.043 38.6956,-7.99283 67.29612,-55.72233 67.27344,-112.27344 -0.0192,-52.68869 -23.65263,-96.39692 -59.55273,-110.13672 -4.22068,-1.61533 -8.89863,-2.41891 -16.1543,-2.77343 -2.26107,-0.11048 -4.08885,-0.17797 -5.67383,-0.18165 z m -92.2539,29.94141 c -5.09341,1.9e-4 -40.2198,2.52666 -48.90626,3.51758 l -5.04882,0.57617 -1.73828,9.70313 c -2.28443,12.75072 -3.64446,19.98476 -9.15625,48.70312 -2.53338,13.20004 -6.16785,32.32498 -8.07618,42.5 -1.90836,10.17498 -3.82437,19.35404 -4.25781,20.39844 -0.65798,1.58528 -2.11185,0.0997 -8.8125,-9 -32.81272,-44.56082 -51.74548,-70.08931 -52.79687,-71.19531 -1.00464,-1.0568 -7.52269,0.48764 -35.15039,8.32812 -18.65432,5.29402 -34.24297,9.94003 -34.64258,10.32422 -0.39961,0.38419 3.4401,5.4115 8.5332,11.17188 5.09314,5.76037 14.64505,16.57982 21.22656,24.04492 69.63549,78.98453 85.70026,97.17286 90.2168,102.13867 2.88748,3.1748 5.26002,6.33895 5.26758,7.03125 0.009,0.69233 3.16145,21.7328 7.0039,46.75781 3.84242,25.02497 8.56599,56.075 10.49805,69 1.93202,12.925 3.73121,24.48109 3.99805,25.67969 0.46125,2.07262 1.42816,1.73824 19.73437,-6.82617 10.5868,-4.953 23.18159,-10.8351 27.98828,-13.07032 l 8.73829,-4.0625 -0.51758,-3.61132 c -0.28441,-1.9855 -4.09314,-32.85936 -8.46485,-68.60938 -4.37159,-35.74998 -8.19158,-66.69899 -8.48828,-68.77539 -0.4478,-3.13198 3.6118,-32.83338 8.50391,-62.22461 0.54928,-3.29998 3.26171,-20.85003 6.02734,-39 2.7656,-18.15001 6.17838,-40.42501 7.58399,-49.5 1.40568,-9.07498 2.97099,-19.37391 3.48047,-22.88672 0.5094,-3.51288 1.19335,-7.45041 1.51953,-8.75 0.5625,-2.24111 0.34417,-2.36347 -4.26367,-2.36328 z M 2,614.51953 v 92.53906 92.53711 l 10.802734,14.21289 c 5.94167,7.81652 17.694497,23.32343 26.117188,34.46094 8.422688,11.13748 15.48212,20.25 15.6875,20.25 0.205379,0 0.15983,-4.61249 -0.101563,-10.25 -0.882243,-19.02709 -1.524998,-121.74886 -0.761718,-121.71484 0.416231,0.0189 2.208934,3.28142 3.984375,7.25 3.743871,8.3687 6.055637,13.49374 21.068359,46.71484 6.089397,13.475 14.608628,32.37502 18.931641,42 30.888824,68.7727 33.784564,74.88501 34.917964,73.69922 0.63055,-0.65972 10.02677,-15.37424 20.88086,-32.69922 26.56954,-42.40962 32.73814,-52.06666 33.05664,-51.74805 0.14835,0.14839 0.74592,23.66568 1.32618,52.25977 1.41682,69.81781 2.13665,96.86711 2.58984,97.32031 0.20788,0.20788 15.14325,5.25188 33.18945,11.20899 18.0462,5.95699 33.54361,10.86247 34.43946,10.89648 1.48669,0.0581 1.69125,-7.0275 2.33593,-81.1875 0.38858,-44.68751 0.55543,-114.69795 0.3711,-155.58008 -0.38341,-85.03978 0.78723,-76.46248 -10.60352,-77.5664 -10.44433,-1.01227 -54.12826,-1.83486 -59.8418,-1.12696 l -5.11132,0.63282 -9.57227,20.69531 c -5.26513,11.3825 -15.27698,33.07028 -22.24805,48.19531 -6.97107,15.12499 -13.76397,29.86252 -15.0957,32.75 -1.33174,2.88752 -2.76905,5.25 -3.19336,5.25 -0.4243,0 -15.77429,-38.475 -34.11133,-85.5 l -33.33984,-85.5 H 34.859375 Z m 771.875,24.94141 c 16.88194,0.10398 32.396,18.97475 32.54297,46.55859 0.063,11.8238 -1.37025,18.41293 -6.14844,28.26563 -4.4589,9.19419 -12.083,16.50791 -19.50781,18.71289 -7.63329,2.26681 -12.57155,1.58759 -19.92969,-2.74024 -5.40907,-3.18138 -7.77264,-5.71107 -12.15625,-13.00586 -12.15401,-20.22531 -9.45858,-53.34045 5.5918,-68.68945 6.18626,-6.309 13.00144,-9.14225 19.60742,-9.10156 z m -393.11133,31.98047 c -16.71999,0.007 -30.15333,0.1338 -30.43945,0.41992 -0.21154,0.2115 -0.80611,2.8089 -1.32227,5.77148 -0.51616,2.96251 -1.82965,10.11172 -2.91797,15.88672 -3.91043,20.75029 -9.18664,48.7927 -12.13476,64.5 -1.65168,8.80003 -4.33012,22.97497 -5.95313,31.5 -10.61602,55.76137 -36.96266,197.35619 -36.75195,197.51758 0.1405,0.10772 7.90586,1.00124 17.25586,1.98437 9.35,0.98317 23.75,2.56645 32,3.51954 8.25,0.95312 15.45,1.63871 16,1.52343 1.00051,-0.20938 1.63242,-3.03393 5.48438,-24.54492 1.13256,-6.325 5.77151,-31.74999 10.31054,-56.5 l 8.25391,-45 10.47461,-0.62695 c 5.7617,-0.34511 18.8846,-0.6831 29.16015,-0.75 l 18.68164,-0.12305 3.63672,11.25 c 1.99975,6.1875 10.31437,31.72499 18.47657,56.75 8.16219,25.02501 15.86584,48.75064 17.11914,52.72266 1.98425,6.28856 2.54411,7.15883 4.33984,6.74414 2.44717,-0.56523 45.41844,-8.26675 64.38086,-11.53906 10.94253,-1.88829 13.24092,-2.57757 12.88867,-3.86329 -0.23569,-0.86059 -8.86507,-24.28942 -19.17773,-52.06445 -10.31267,-27.77499 -21.89858,-59.04998 -25.7461,-69.5 -3.84756,-10.44998 -8.24433,-22.37498 -9.77148,-26.5 -1.52719,-4.12498 -5.94003,-16.05002 -9.80664,-26.5 -3.86661,-10.45001 -12.29799,-33.17502 -18.73438,-50.5 -16.25983,-43.76712 -16.51136,-44.45031 -23.42578,-63.5 -3.39371,-9.35002 -6.51875,-17.3536 -6.94531,-17.78711 -0.47287,-0.48052 -37.46928,-0.80325 -65.33594,-0.79101 z m 24.25391,68.07812 c 0.32028,0 3.10055,7.98752 6.17773,17.75 3.07718,9.76252 9.62283,30.35001 14.54688,45.75 4.92408,15.40003 8.66916,28.33143 8.32031,28.73633 -0.3487,0.40501 -10.06952,2.07683 -21.59961,3.71484 -11.53005,1.63809 -22.46796,3.19845 -24.30859,3.4668 -3.03194,0.44239 -3.30124,0.28078 -2.85938,-1.71484 0.26827,-1.21149 4.68484,-23.69063 9.81446,-49.95313 5.1296,-26.2625 9.58807,-47.75 9.9082,-47.75 z"
         style="fill:#e70707;fill-opacity:1;stroke-width:7.24130726"
         inkscape:connector-curvature="0" />
    </g>
  </g>
</svg>
