<?xml version="1.0" encoding="UTF-8" standalone="no"?>
<!-- Created with Inkscape (http://www.inkscape.org/) -->

<svg
   version="1.1"
   id="svg13135"
   width="800"
   height="800"
   viewBox="0 0 800 800"
   sodipodi:docname="wooden-wine-barrel-publicdomainvectors.org.svg"
   inkscape:version="1.2 (dc2aedaf03, 2022-05-15)"
   xmlns:inkscape="http://www.inkscape.org/namespaces/inkscape"
   xmlns:sodipodi="http://sodipodi.sourceforge.net/DTD/sodipodi-0.dtd"
   xmlns="http://www.w3.org/2000/svg"
   xmlns:svg="http://www.w3.org/2000/svg">
  <defs
     id="defs13139">
    <clipPath
       clipPathUnits="userSpaceOnUse"
       id="clipPath13151">
      <path
         d="M 0,600 H 600 V 0 H 0 Z"
         id="path13149" />
    </clipPath>
  </defs>
  <sodipodi:namedview
     id="namedview13137"
     pagecolor="#ffffff"
     bordercolor="#000000"
     borderopacity="0.25"
     inkscape:showpageshadow="2"
     inkscape:pageopacity="0.0"
     inkscape:pagecheckerboard="0"
     inkscape:deskcolor="#d1d1d1"
     showgrid="false"
     inkscape:zoom="1.04625"
     inkscape:cx="400"
     inkscape:cy="400.4779"
     inkscape:window-width="1920"
     inkscape:window-height="1017"
     inkscape:window-x="-8"
     inkscape:window-y="-8"
     inkscape:window-maximized="1"
     inkscape:current-layer="g13143">
    <inkscape:page
       x="0"
       y="0"
       id="page13141"
       width="800"
       height="800" />
  </sodipodi:namedview>
  <g
     id="g13143"
     inkscape:groupmode="layer"
     inkscape:label="Page 1"
     transform="matrix(1.3333333,0,0,-1.3333333,0,800)">
    <g
       id="g13145">
      <g
         id="g13147"
         clip-path="url(#clipPath13151)">
        <g
           id="g13153"
           transform="translate(308.2061,146.6895)">
          <path
             d="m 0,0 c 98.733,0 179.261,80.526 179.261,179.26 0,98.733 -80.528,179.261 -179.261,179.261 -98.732,0 -179.26,-80.528 -179.26,-179.261 C -179.26,80.526 -98.732,0 0,0"
             style="fill:#bd6a1d;fill-opacity:1;fill-rule:evenodd;stroke:none"
             id="path13155" />
        </g>
        <g
           id="g13157"
           transform="translate(308.2061,505.209)">
          <path
             d="m 0,0 c 99.004,0 179.261,-80.257 179.261,-179.259 0,-20.42 -3.422,-40.04 -9.711,-58.324 4.678,15.412 7.2,31.761 7.2,48.702 0,92.512 -74.994,167.507 -167.507,167.507 -92.512,0 -167.507,-74.995 -167.507,-167.507 0,-92.513 74.995,-167.507 167.507,-167.507 14.469,0 28.51,1.835 41.9,5.283 -16.207,-4.816 -33.37,-7.415 -51.143,-7.415 -99.002,0 -179.26,80.257 -179.26,179.261 C -179.26,-80.257 -99.002,0 0,0"
             style="fill:#a4561d;fill-opacity:1;fill-rule:evenodd;stroke:none"
             id="path13159" />
        </g>
        <g
           id="g13161"
           transform="translate(288.1172,336.0747)">
          <path
             d="M 0,0 1.275,81.415 2.552,162.83 H 0 -2.551 l 1.276,-81.415 z m -8.545,71.792 1.275,44.635 1.277,44.635 h -2.552 -2.552 l 1.276,-44.635 z m -10.213,-36.829 1.276,61.871 1.276,61.872 h -2.552 -2.551 l 1.276,-61.872 z m -39.873,-52.443 1.276,80.628 1.275,80.63 h -2.551 -2.552 l 1.276,-80.63 z m -9.428,-25.927 1.276,91.628 1.275,91.629 h -2.551 -2.552 l 1.276,-91.629 z m -10.214,86.914 1.275,44.636 1.277,44.636 h -2.552 -2.552 l 1.277,-44.636 z m -10.9,-81.806 1.276,81.413 1.276,81.416 h -2.552 -2.552 l 1.276,-81.416 z m 60.006,70.119 1.275,61.871 1.276,61.872 h -2.551 -2.552 l 1.276,-61.872 z m -83.576,-42.227 1.276,55.684 1.276,55.683 h -2.552 -2.552 l 1.276,-55.683 z m -10.312,-30.74 1.276,64.866 1.276,64.867 h -2.552 -2.551 l 1.275,-64.867 z m -9.427,-15.714 1.275,64.866 1.276,64.867 h -2.551 -2.552 l 1.275,-64.867 z m 4.881,19.854 1.276,-31.705 1.276,-31.705 h -2.552 -2.551 l 1.276,31.705 z m 10.353,14.181 1.277,-46.721 1.275,-46.723 h -2.552 -2.55 l 1.275,46.723 z m 53.426,-11.057 1.276,-63.389 1.276,-63.388 h -2.552 -2.551 l 1.275,63.388 z m -10.222,-50.276 1.275,-35.705 1.276,-35.706 h -2.551 -2.552 l 1.276,35.706 z m -11.448,26.706 1.276,-44.75 1.276,-44.751 h -2.552 -2.552 l 1.276,44.751 z m 88.412,3.111 1.275,-63.389 1.276,-63.389 H 2.92 0.368 l 1.275,63.389 z m -10.223,24.583 1.276,-75.41 1.276,-75.41 h -2.552 -2.551 l 1.275,75.41 z m -11.447,-60.723 1.275,-44.751 1.276,-44.75 h -2.551 -2.552 l 1.276,44.75 z m -11.982,80.362 1.275,-82.673 1.276,-82.673 h -2.551 -2.551 l 1.275,82.673 z m 63.581,-84.576 -1.277,-44.635 -1.276,-44.635 h 2.553 2.55 l -1.276,44.635 z m 8.051,73.755 -1.276,-81.414 -1.274,-81.415 h 2.55 2.552 l -1.275,81.415 z m 8.545,-71.79 -1.274,-44.635 -1.276,-44.636 h 2.55 2.553 l -1.276,44.636 z m 10.212,36.829 -1.274,-61.872 -1.277,-61.871 h 2.551 2.553 l -1.276,61.871 z m 39.874,52.442 -1.274,-80.628 -1.277,-80.63 h 2.551 2.553 l -1.276,80.63 z m 9.429,25.927 -1.276,-91.627 -1.276,-91.63 h 2.552 2.551 l -1.276,91.63 z m 10.213,-86.914 -1.275,-44.635 -1.276,-44.636 h 2.551 2.553 l -1.277,44.636 z m 10.9,81.807 -1.275,-81.415 -1.276,-81.414 h 2.551 2.552 l -1.275,81.414 z m -60.006,-70.12 -1.274,-61.871 -1.276,-61.871 h 2.55 2.553 l -1.276,61.871 z m 83.576,42.225 -1.275,-55.681 -1.276,-55.684 h 2.551 2.552 l -1.276,55.684 z m 10.312,30.743 -1.275,-64.867 -1.277,-64.866 h 2.552 2.552 l -1.276,64.866 z m 9.428,15.712 -1.277,-64.866 -1.274,-64.866 h 2.551 2.552 l -1.276,64.866 z m -4.881,-19.852 -1.276,31.705 -1.276,31.706 h 2.552 2.551 l -1.276,-31.706 z m -10.354,-14.183 -1.276,46.723 -1.275,46.723 h 2.551 2.551 l -1.275,-46.723 z m -53.426,11.058 -1.275,63.389 -1.276,63.389 h 2.551 2.552 l -1.276,-63.389 z m 10.223,50.276 -1.276,35.705 -1.276,35.706 h 2.552 2.552 l -1.276,-35.706 z m 11.448,-26.706 -1.277,44.75 -1.274,44.751 h 2.551 2.551 l -1.276,-44.751 z m -88.412,-3.111 -1.276,63.389 -1.276,63.388 h 2.552 2.551 L 39.256,96.791 Z M 48.204,8.821 46.928,84.23 45.652,159.639 h 2.552 2.551 L 49.479,84.23 Z m 11.447,60.722 -1.276,44.751 -1.275,44.749 h 2.551 2.551 l -1.275,-44.749 z m 11.982,-80.363 -1.277,82.673 -1.274,82.673 h 2.551 2.551 L 72.909,71.853 Z m -63.579,84.576 1.274,44.635 1.275,44.636 H 8.054 5.501 l 1.276,-44.636 z"
             style="fill:#a4561d;fill-opacity:1;fill-rule:evenodd;stroke:none"
             id="path13163" />
        </g>
        <g
           id="g13165"
           transform="translate(266.8301,156.6133)">
          <path
             d="m 0,0 c 0.56,-0.176 1.12,-0.35 1.683,-0.521 h -1.698 z m -11.992,4.312 c 0.26,-0.103 0.516,-0.213 0.777,-0.317 h -0.781 z m -33.026,17.877 c 1.657,-1.156 3.333,-2.288 5.035,-3.383 v -0.004 h -2.552 -2.551 z m -10.081,7.598 c 1.583,-1.289 3.188,-2.551 4.818,-3.782 l 0.075,-2.113 h -2.551 -2.552 z m -11.443,10.228 c 1.573,-1.539 3.171,-3.055 4.804,-4.532 l 0.085,-2.975 h -2.552 -2.551 z m -31.446,42.351 c 1.356,-2.598 2.779,-5.157 4.265,-7.676 l 0.314,-11.499 h -2.551 -2.551 z m -9.824,22.843 c 1.036,-3.007 2.156,-5.977 3.355,-8.903 l 0.695,-17.262 h -2.551 -2.552 z m -1.683,103.855 c -1.195,-3.88 -2.254,-7.821 -3.168,-11.817 l -1.084,55.086 h 2.552 2.551 z m 9.595,24.219 c -1.257,-2.568 -2.453,-5.172 -3.582,-7.811 l -0.837,42.575 h 2.551 2.552 z m 10.331,18.13 c -1.251,-1.91 -2.466,-3.845 -3.64,-5.807 l -0.799,34.815 h 2.552 2.552 z m 23.862,28.817 c -1.455,-1.405 -2.887,-2.836 -4.291,-4.293 l -0.439,28.054 h 2.551 2.552 z m 10.627,9.428 c -1.254,-1.022 -2.499,-2.057 -3.723,-3.114 l -0.735,25.696 h 2.552 2.552 z m 10.557,7.926 c -1.502,-1.039 -2.988,-2.097 -4.454,-3.182 l -0.347,24.909 h 2.552 2.551 z m 9.42,6.06 c -1.493,-0.892 -2.977,-1.798 -4.439,-2.734 l -0.353,22.33 h 2.551 2.552 z m 29.413,13.867 c -1.457,-0.52 -2.908,-1.058 -4.347,-1.617 l -0.395,19.13 h 2.552 2.551 z m 10.415,3.345 c -1.463,-0.415 -2.917,-0.853 -4.363,-1.309 l -0.383,18.62 h 2.55 2.552 z m 10.078,2.516 c -1.372,-0.298 -2.736,-0.617 -4.095,-0.947 l -0.518,18.099 h 2.552 2.552 z m 8.765,1.665 c -1.523,-0.248 -3.04,-0.516 -4.549,-0.805 l -0.283,18.06 h 2.551 2.552 z m 7.856,1.084 c -1.39,-0.159 -2.774,-0.333 -4.152,-0.526 l -0.484,16.893 h 2.553 2.55 z m 30.139,0.736 c -1.527,0.097 -3.058,0.176 -4.593,0.233 l -0.254,12.551 h 2.552 2.551 z m 10.255,-0.965 c -1.547,0.196 -3.103,0.364 -4.665,0.518 l -0.214,12.691 h 2.552 2.551 z m 11.261,-1.824 c -1.429,0.281 -2.863,0.542 -4.304,0.786 l -0.388,13.65 h 2.552 2.55 z m 12.195,-2.875 c -1.566,0.432 -3.143,0.841 -4.727,1.228 l -0.178,11.566 h 2.551 2.551 z m 33.065,-13.067 c -1.557,0.816 -3.123,1.616 -4.706,2.384 l -0.175,8.672 h 2.551 2.552 z m 10.028,-5.709 c -1.44,0.89 -2.892,1.763 -4.362,2.608 l -0.324,9.066 h 2.551 2.552 z m 11.555,-7.802 c -1.507,1.111 -3.032,2.196 -4.577,3.257 l -0.216,7.604 h 2.551 2.551 z m 31.77,-30.605 c -1.516,1.905 -3.07,3.779 -4.668,5.613 l -0.14,5.169 h 2.552 2.55 z m 10.274,-14.376 c -1.488,2.335 -3.032,4.633 -4.632,6.887 l -0.097,2.419 h 2.552 2.551 z"
             style="fill:#944c1d;fill-opacity:1;fill-rule:evenodd;stroke:none"
             id="path13167" />
        </g>
        <g
           id="g13169"
           transform="translate(310.9902,538.8096)">
          <path
             d="m 0,0 v -31.952 c 0,-2.732 -1.083,-5.227 -2.852,-7.069 -1.763,-1.834 -4.211,-3.014 -6.95,-3.124 -8.955,-0.363 -17.762,-1.424 -26.365,-3.13 -8.755,-1.735 -17.268,-4.14 -25.482,-7.155 -2.565,-0.942 -5.276,-0.786 -7.607,0.235 -2.334,1.023 -4.288,2.917 -5.337,5.45 l -12.426,30.027 c -2.289,6.28 0.931,13.157 7.213,15.441 10.686,3.891 21.732,6.998 33.064,9.244 11.085,2.198 22.496,3.58 34.168,4.081 C -5.454,12.316 -0.263,6.994 0,0"
             style="fill:#522c16;fill-opacity:1;fill-rule:evenodd;stroke:none"
             id="path13171" />
        </g>
        <g
           id="g13173"
           transform="translate(305.4229,506.8579)">
          <path
             d="m 0,0 0.001,32.257 -2.864,-15.606 -2.024,21.564 -1.414,-21.072 -3.711,21.149 -1.493,-24.587 -3.827,24.215 -1.182,-15.082 -3.935,14.602 -0.287,-27.86 -5.412,27.183 -0.285,-23.058 -5.12,22.275 0.308,-24.141 -5.376,23.282 -0.909,-16.408 -3.789,15.503 1.923,-26.503 -7.641,25.256 1.061,-23.193 -6.377,21.889 1.663,-21.201 -5.71,20.112 0.996,-17.264 -4.606,16.222 2.838,-26.534 -7.197,25.186 3.662,-28.034 -7.786,26.665 2.581,-20.379 -7.822,18.298 5.268,-20.656 0.196,-0.491 -7.963,13.537 12.339,-29.81 c 0.475,-1.147 1.363,-2.006 2.423,-2.47 1.063,-0.466 2.301,-0.536 3.476,-0.105 8.493,3.118 17.29,5.603 26.33,7.395 8.821,1.749 17.911,2.84 27.213,3.216 1.243,0.05 2.358,0.589 3.164,1.428 C -0.49,-2.389 0,-1.251 0,0"
             style="fill:#8c4d1c;fill-opacity:1;fill-rule:evenodd;stroke:none"
             id="path13175" />
        </g>
        <g
           id="g13177"
           transform="translate(305.4229,113.0889)">
          <path
             d="m 0,0 v 31.952 c 0,2.732 1.084,5.228 2.853,7.068 1.761,1.836 4.211,3.015 6.948,3.126 8.957,0.362 17.763,1.423 26.365,3.128 8.756,1.737 17.27,4.141 25.483,7.156 2.566,0.942 5.277,0.787 7.608,-0.236 2.333,-1.021 4.287,-2.915 5.337,-5.448 L 87.02,16.719 C 89.308,10.438 86.088,3.562 79.805,1.277 69.12,-2.615 58.074,-5.72 46.742,-7.967 35.657,-10.165 24.246,-11.547 12.573,-12.047 5.453,-12.315 0.262,-6.993 0,0"
             style="fill:#522c16;fill-opacity:1;fill-rule:evenodd;stroke:none"
             id="path13179" />
        </g>
        <g
           id="g13181"
           transform="translate(310.9902,145.041)">
          <path
             d="m 0,0 -0.001,-32.258 2.864,15.606 2.023,-21.564 1.414,21.073 3.711,-21.149 1.494,24.588 3.827,-24.216 1.182,15.081 3.935,-14.601 0.287,27.86 5.412,-27.183 0.285,23.059 5.119,-22.276 -0.307,24.141 5.376,-23.283 0.909,16.409 3.788,-15.503 -1.922,26.501 7.641,-25.254 -1.061,23.193 6.376,-21.89 -1.662,21.202 5.71,-20.112 -0.996,17.264 4.607,-16.222 -2.839,26.534 7.196,-25.186 -3.661,28.034 7.785,-26.664 -2.579,20.379 7.822,-18.3 -5.269,20.656 -0.196,0.491 7.963,-13.536 -12.339,29.81 c -0.476,1.147 -1.364,2.006 -2.423,2.47 -1.063,0.466 -2.301,0.534 -3.476,0.104 C 49.502,12.141 40.705,9.655 31.665,7.863 22.844,6.113 13.754,5.024 4.452,4.648 3.208,4.597 2.093,4.059 1.287,3.22 0.489,2.389 0,1.252 0,0"
             style="fill:#8c4d1c;fill-opacity:1;fill-rule:evenodd;stroke:none"
             id="path13183" />
        </g>
        <g
           id="g13185"
           transform="translate(95.3462,328.7334)">
          <path
             d="m 0,0 h 31.952 c 2.732,0 5.227,-1.083 7.069,-2.853 1.834,-1.762 3.014,-4.212 3.124,-6.949 0.363,-8.956 1.424,-17.762 3.13,-26.365 1.735,-8.756 4.14,-17.269 7.155,-25.482 0.942,-2.566 0.786,-5.277 -0.235,-7.608 -1.023,-2.334 -2.917,-4.288 -5.45,-5.337 L 16.718,-87.021 c -6.279,-2.286 -13.157,0.932 -15.441,7.215 -3.892,10.686 -6.998,21.732 -9.244,33.064 -2.198,11.084 -3.58,22.495 -4.081,34.168 C -12.315,-5.454 -6.994,-0.262 0,0"
             style="fill:#522c16;fill-opacity:1;fill-rule:evenodd;stroke:none"
             id="path13187" />
        </g>
        <g
           id="g13189"
           transform="translate(127.2979,323.1655)">
          <path
             d="m 0,0 -32.257,0.001 15.606,-2.864 -21.564,-2.023 21.073,-1.414 -21.15,-3.711 24.587,-1.494 -24.216,-3.826 15.083,-1.183 -14.602,-3.934 27.86,-0.288 -27.183,-5.413 23.058,-0.284 -22.275,-5.12 24.141,0.308 -23.282,-5.376 16.408,-0.909 -15.503,-3.789 26.503,1.922 -25.256,-7.641 23.193,1.062 -21.889,-6.377 21.201,1.662 -20.112,-5.71 17.264,0.997 -16.222,-4.606 26.534,2.839 -25.186,-7.198 28.034,3.662 -26.665,-7.787 20.38,2.581 -18.299,-7.821 20.655,5.269 0.492,0.197 -13.537,-7.965 29.809,12.339 c 1.148,0.476 2.007,1.363 2.472,2.424 0.465,1.062 0.535,2.302 0.104,3.475 -3.118,8.494 -5.603,17.289 -7.396,26.33 -1.748,8.822 -2.839,17.911 -3.215,27.214 -0.05,1.243 -0.59,2.358 -1.428,3.163 C 2.389,-0.49 1.252,0 0,0"
             style="fill:#8c4d1c;fill-opacity:1;fill-rule:evenodd;stroke:none"
             id="path13191" />
        </g>
        <g
           id="g13193"
           transform="translate(521.0674,323.1655)">
          <path
             d="m 0,0 h -31.952 c -2.732,0 -5.228,1.083 -7.07,2.853 -1.835,1.762 -3.013,4.211 -3.125,6.949 -0.362,8.955 -1.423,17.762 -3.127,26.365 -1.737,8.755 -4.141,17.269 -7.157,25.482 -0.942,2.565 -0.786,5.276 0.236,7.607 1.021,2.334 2.917,4.288 5.449,5.337 l 30.027,12.428 c 6.28,2.286 13.157,-0.933 15.441,-7.215 C 2.614,69.12 5.72,58.075 7.966,46.742 10.164,35.657 11.547,24.247 12.048,12.574 12.315,5.454 6.993,0.262 0,0"
             style="fill:#522c16;fill-opacity:1;fill-rule:evenodd;stroke:none"
             id="path13195" />
        </g>
        <g
           id="g13197"
           transform="translate(489.1152,328.7334)">
          <path
             d="M 0,0 32.257,-0.001 16.651,2.863 38.215,4.886 17.143,6.299 38.292,10.011 13.704,11.505 37.92,15.331 22.838,16.512 37.44,20.448 9.58,20.736 36.763,26.148 13.704,26.432 35.979,31.552 11.838,31.245 35.122,36.62 18.713,37.53 34.215,41.319 7.714,39.395 32.969,47.037 9.777,45.976 31.665,52.352 10.464,50.689 30.576,56.4 13.312,55.404 29.535,60.009 3,57.171 28.186,64.368 0.151,60.707 26.816,68.492 6.437,65.912 24.737,73.734 4.08,68.465 3.589,68.269 17.126,76.232 -12.684,63.894 c -1.147,-0.476 -2.006,-1.363 -2.471,-2.423 -0.465,-1.063 -0.534,-2.302 -0.104,-3.476 3.118,-8.494 5.603,-17.29 7.396,-26.33 1.749,-8.822 2.839,-17.912 3.215,-27.214 0.05,-1.243 0.589,-2.358 1.427,-3.163 C -2.389,0.49 -1.252,0 0,0"
             style="fill:#8c4d1c;fill-opacity:1;fill-rule:evenodd;stroke:none"
             id="path13199" />
        </g>
        <g
           id="g13201"
           transform="translate(159.6602,478.4326)">
          <path
             d="m 0,0 22.593,-22.593 c 1.931,-1.932 2.929,-4.463 2.982,-7.016 0.05,-2.544 -0.847,-5.11 -2.704,-7.123 -6.077,-6.589 -11.554,-13.567 -16.431,-20.856 -4.964,-7.418 -9.283,-15.138 -12.959,-23.078 -1.147,-2.48 -3.175,-4.287 -5.545,-5.213 -2.374,-0.928 -5.095,-0.97 -7.628,0.079 l -30.019,12.446 c -6.058,2.823 -8.644,9.963 -5.817,16.019 4.804,10.309 10.418,20.314 16.843,29.917 6.284,9.392 13.375,18.438 21.275,27.046 C -12.565,4.853 -5.131,4.76 0,0"
             style="fill:#522c16;fill-opacity:1;fill-rule:evenodd;stroke:none"
             id="path13203" />
        </g>
        <g
           id="g13205"
           transform="translate(178.3159,451.9023)">
          <path
             d="m 0,0 -22.808,22.811 9.01,-13.061 -16.679,13.817 13.901,-15.9 -17.579,12.33 16.33,-18.441 -19.829,14.417 9.829,-11.501 -13.109,7.543 19.498,-19.904 -23.048,15.395 16.104,-16.505 -19.372,12.13 17.288,-16.853 -20.264,12.662 10.958,-12.245 -13.641,8.282 20.1,-17.379 -23.261,12.455 17.15,-15.65 -19.987,10.969 16.167,-13.816 -18.259,10.184 12.913,-11.503 -14.729,8.214 20.77,-16.757 -22.898,12.721 22.411,-17.234 -24.36,13.35 16.235,-12.586 -18.47,7.409 18.331,-10.881 0.487,-0.208 -15.203,3.941 29.804,-12.354 c 1.147,-0.476 2.382,-0.455 3.46,-0.035 1.081,0.423 2.006,1.249 2.531,2.385 3.802,8.21 8.264,16.188 13.389,23.847 5.001,7.476 10.658,14.673 16.97,21.516 0.842,0.915 1.25,2.085 1.227,3.249 C 1.343,-2.035 0.886,-0.885 0,0"
             style="fill:#8c4d1c;fill-opacity:1;fill-rule:evenodd;stroke:none"
             id="path13207" />
        </g>
        <g
           id="g13209"
           transform="translate(456.7539,173.4658)">
          <path
             d="m 0,0 -22.595,22.594 c -1.93,1.931 -2.929,4.463 -2.98,7.016 -0.052,2.543 0.847,5.109 2.703,7.123 6.076,6.589 11.554,13.566 16.432,20.855 4.963,7.419 9.283,15.139 12.959,23.079 1.147,2.48 3.173,4.286 5.545,5.212 2.372,0.928 5.094,0.969 7.627,-0.079 L 49.71,73.355 C 55.769,70.531 58.355,63.391 55.526,57.334 50.723,47.026 45.108,37.021 38.685,27.419 32.4,18.025 25.309,8.98 17.41,0.372 12.565,-4.852 5.13,-4.759 0,0"
             style="fill:#522c16;fill-opacity:1;fill-rule:evenodd;stroke:none"
             id="path13211" />
        </g>
        <g
           id="g13213"
           transform="translate(438.0967,199.9961)">
          <path
             d="M 0,0 22.808,-22.811 13.799,-9.75 30.477,-23.568 16.576,-7.667 34.155,-19.998 17.825,-1.556 37.654,-15.973 27.825,-4.472 40.934,-12.015 21.436,7.889 44.485,-7.506 28.382,9 47.752,-3.131 30.465,13.723 50.729,1.061 39.771,13.306 53.411,5.023 33.311,22.402 56.573,9.948 39.423,25.597 59.409,14.628 43.242,28.443 61.501,18.26 48.59,29.764 63.317,21.549 42.548,38.306 65.446,25.584 43.033,42.819 67.393,29.469 51.159,42.055 69.629,34.646 51.298,45.527 50.813,45.734 66.014,41.795 36.21,54.149 c -1.146,0.474 -2.382,0.455 -3.46,0.034 C 31.669,53.761 30.745,52.935 30.22,51.799 26.418,43.588 21.956,35.609 16.831,27.95 11.828,20.477 6.174,13.277 -0.139,6.434 -0.982,5.521 -1.391,4.35 -1.367,3.188 -1.343,2.035 -0.885,0.886 0,0"
             style="fill:#8c4d1c;fill-opacity:1;fill-rule:evenodd;stroke:none"
             id="path13215" />
        </g>
        <g
           id="g13217"
           transform="translate(155.7231,177.4023)">
          <path
             d="m 0,0 22.593,22.594 c 1.932,1.931 4.463,2.929 7.016,2.981 2.544,0.051 5.11,-0.846 7.124,-2.703 6.588,-6.077 13.566,-11.554 20.855,-16.431 7.418,-4.964 15.138,-9.284 23.078,-12.961 2.48,-1.146 4.287,-3.173 5.213,-5.543 0.928,-2.375 0.97,-5.095 -0.08,-7.628 L 73.354,-49.71 c -2.823,-6.058 -9.963,-8.644 -16.019,-5.817 -10.309,4.804 -20.314,10.418 -29.917,16.843 C 18.026,-32.401 8.98,-25.31 0.372,-17.41 -4.852,-12.565 -4.76,-5.131 0,0"
             style="fill:#522c16;fill-opacity:1;fill-rule:evenodd;stroke:none"
             id="path13219" />
        </g>
        <g
           id="g13221"
           transform="translate(182.2534,196.0596)">
          <path
             d="m 0,0 -22.811,-22.809 13.061,9.009 -13.817,-16.677 15.9,13.9 -12.33,-17.579 18.441,16.33 -14.417,-19.828 11.501,9.828 -7.543,-13.109 19.903,19.498 -15.394,-23.048 16.505,16.103 -12.13,-19.371 16.853,17.288 -12.662,-20.265 12.245,10.959 -8.282,-13.64 17.379,20.099 -12.455,-23.261 15.65,17.15 -10.969,-19.987 13.816,16.168 -10.184,-18.26 11.503,12.912 -8.214,-14.727 16.756,20.769 -12.72,-22.899 17.234,22.413 -13.35,-24.361 12.586,16.236 -7.409,-18.471 10.881,18.331 0.208,0.486 -3.941,-15.202 12.354,29.804 c 0.476,1.147 0.456,2.383 0.034,3.461 -0.422,1.08 -1.248,2.005 -2.383,2.53 -8.211,3.802 -16.189,8.264 -23.848,13.389 C 20.476,-11.829 13.278,-6.174 6.435,0.138 5.52,0.981 4.35,1.39 3.187,1.366 2.035,1.343 0.885,0.885 0,0"
             style="fill:#8c4d1c;fill-opacity:1;fill-rule:evenodd;stroke:none"
             id="path13223" />
        </g>
        <g
           id="g13225"
           transform="translate(460.6895,474.4956)">
          <path
             d="m 0,0 -22.593,-22.593 c -1.932,-1.931 -4.463,-2.93 -7.016,-2.982 -2.544,-0.05 -5.109,0.847 -7.123,2.704 -6.588,6.077 -13.566,11.554 -20.855,16.431 -7.418,4.964 -15.14,9.283 -23.079,12.959 -2.48,1.148 -4.286,3.175 -5.212,5.546 -0.929,2.373 -0.971,5.094 0.079,7.627 l 12.446,30.019 c 2.823,6.058 9.961,8.644 16.019,5.817 C -47.026,50.724 -37.02,45.11 -27.418,38.685 -18.025,32.401 -8.979,25.31 -0.372,17.41 4.853,12.565 4.76,5.131 0,0"
             style="fill:#522c16;fill-opacity:1;fill-rule:evenodd;stroke:none"
             id="path13227" />
        </g>
        <g
           id="g13229"
           transform="translate(434.1592,455.8398)">
          <path
             d="M 0,0 22.811,22.808 9.751,13.798 23.568,30.477 7.668,16.576 19.997,34.155 1.557,17.825 15.973,37.654 4.472,27.826 12.016,40.934 -7.889,21.437 7.507,44.484 -9,28.381 3.132,47.753 -13.723,30.464 -1.06,50.729 -13.306,39.77 l 8.284,13.641 -17.38,-20.099 12.455,23.26 -15.65,-17.15 10.969,19.987 -13.815,-16.167 10.184,18.26 -11.504,-12.913 8.215,14.728 -16.757,-20.77 12.721,22.898 -17.234,-22.411 13.349,24.36 -12.585,-16.235 7.408,18.47 -10.881,-18.331 -0.208,-0.487 3.94,15.203 -12.353,-29.803 c -0.475,-1.148 -0.455,-2.383 -0.034,-3.461 0.422,-1.081 1.249,-2.006 2.384,-2.531 8.211,-3.801 16.188,-8.263 23.847,-13.389 7.475,-5.001 14.674,-10.657 21.517,-16.969 0.913,-0.843 2.085,-1.251 3.248,-1.228 C -2.034,-1.343 -0.885,-0.886 0,0"
             style="fill:#8c4d1c;fill-opacity:1;fill-rule:evenodd;stroke:none"
             id="path13231" />
        </g>
        <g
           id="g13233"
           transform="translate(229.3203,523.6719)">
          <path
             d="m 0,0 12.228,-29.52 c 1.045,-2.524 0.999,-5.244 0.069,-7.623 -0.926,-2.369 -2.737,-4.396 -5.224,-5.545 -8.135,-3.762 -15.866,-8.112 -23.161,-12.98 -7.425,-4.955 -14.37,-10.435 -20.804,-16.363 -2.009,-1.852 -4.574,-2.746 -7.118,-2.694 -2.548,0.052 -5.078,1.054 -7.017,2.992 l -22.971,22.986 c -4.517,4.927 -4.174,12.513 0.756,17.026 8.383,7.685 17.399,14.782 27.01,21.194 9.4,6.273 19.412,11.916 30.005,16.846 C -9.751,9.291 -2.919,6.36 0,0"
             style="fill:#522c16;fill-opacity:1;fill-rule:evenodd;stroke:none"
             id="path13235" />
        </g>
        <g
           id="g13237"
           transform="translate(236.4038,492.022)">
          <path
             d="m 0,0 -12.342,29.803 3.325,-15.515 -10.121,19.149 6.758,-20.011 -11.522,18.119 8.029,-23.287 -12.803,20.907 4.679,-14.385 -9.223,11.984 10.396,-25.849 -15.402,23.042 8.561,-21.411 -13.254,18.62 9.522,-22.185 -13.876,19.453 5.438,-15.508 -9.433,12.873 11.919,-23.749 -16.724,20.409 9.856,-21.022 -14.268,17.783 9.65,-18.952 -12.973,16.397 7.527,-15.569 -10.463,13.225 12.776,-23.429 -16.287,20.515 14.111,-24.499 -17.398,21.656 10.184,-17.84 -14.23,13.912 12.773,-17.067 0.369,-0.379 -12.537,9.458 22.808,-22.818 c 0.877,-0.878 2.026,-1.332 3.183,-1.355 1.16,-0.023 2.331,0.386 3.25,1.233 6.655,6.131 13.83,11.794 21.496,16.909 7.482,4.992 15.462,9.478 23.911,13.385 1.13,0.522 1.955,1.447 2.378,2.531 C 0.462,-2.395 0.479,-1.157 0,0"
             style="fill:#8c4d1c;fill-opacity:1;fill-rule:evenodd;stroke:none"
             id="path13239" />
        </g>
        <g
           id="g13241"
           transform="translate(387.0928,128.2266)">
          <path
             d="m 0,0 -12.228,29.52 c -1.044,2.524 -0.999,5.244 -0.069,7.623 0.926,2.369 2.738,4.396 5.224,5.545 8.135,3.762 15.865,8.113 23.162,12.981 7.425,4.954 14.369,10.434 20.804,16.362 2.008,1.853 4.573,2.746 7.118,2.694 2.547,-0.051 5.077,-1.053 7.015,-2.993 L 73.998,48.747 C 78.515,43.82 78.172,36.234 73.241,31.721 64.859,24.035 55.843,16.939 46.232,10.526 36.833,4.255 26.82,-1.389 16.227,-6.319 9.751,-9.291 2.919,-6.36 0,0"
             style="fill:#522c16;fill-opacity:1;fill-rule:evenodd;stroke:none"
             id="path13243" />
        </g>
        <g
           id="g13245"
           transform="translate(380.0098,159.877)">
          <path
             d="m 0,0 12.342,-29.803 -3.326,15.514 10.122,-19.148 -6.759,20.01 11.523,-18.119 -8.029,23.286 12.803,-20.907 -4.681,14.388 9.224,-11.986 L 22.824,-0.916 38.226,-23.957 29.664,-2.546 42.918,-21.167 33.396,1.02 47.272,-18.435 41.834,-2.927 51.267,-15.799 39.348,7.95 56.073,-12.459 46.216,8.561 60.484,-9.22 50.835,9.73 63.808,-6.665 56.28,8.904 66.744,-4.321 53.967,19.107 70.254,-1.408 56.145,23.091 73.54,1.434 63.357,19.276 77.588,5.363 64.815,22.431 64.446,22.809 76.982,13.352 54.175,36.17 c -0.877,0.878 -2.027,1.331 -3.184,1.355 -1.16,0.023 -2.33,-0.386 -3.251,-1.234 C 41.087,30.16 33.911,24.497 26.245,19.382 18.764,14.391 10.783,9.905 2.333,5.997 1.204,5.475 0.381,4.551 -0.044,3.467 -0.462,2.393 -0.48,1.157 0,0"
             style="fill:#8c4d1c;fill-opacity:1;fill-rule:evenodd;stroke:none"
             id="path13247" />
        </g>
        <g
           id="g13249"
           transform="translate(110.4839,247.0635)">
          <path
             d="m 0,0 29.519,12.227 c 2.524,1.045 5.245,0.999 7.624,0.069 2.369,-0.926 4.396,-2.737 5.545,-5.225 3.763,-8.133 8.113,-15.864 12.98,-23.16 4.955,-7.425 10.434,-14.368 16.363,-20.803 1.852,-2.01 2.746,-4.574 2.695,-7.119 -0.053,-2.547 -1.054,-5.078 -2.993,-7.016 L 48.747,-73.999 c -4.927,-4.517 -12.512,-4.174 -17.026,0.757 -7.685,8.383 -14.782,17.399 -21.194,27.009 -6.272,9.4 -11.916,19.413 -16.846,30.005 C -9.292,-9.752 -6.36,-2.92 0,0"
             style="fill:#522c16;fill-opacity:1;fill-rule:evenodd;stroke:none"
             id="path13251" />
        </g>
        <g
           id="g13253"
           transform="translate(142.1338,254.1475)">
          <path
             d="m 0,0 -29.802,-12.344 15.514,3.326 -19.148,-10.121 20.01,6.758 -18.119,-11.522 23.287,8.029 -20.908,-12.803 14.386,4.68 -11.984,-9.225 25.849,10.397 -23.042,-15.402 21.412,8.562 -18.621,-13.255 22.185,9.522 -19.453,-13.875 15.508,5.438 -12.872,-9.433 23.748,11.918 -20.409,-16.724 21.022,9.855 -17.783,-14.267 18.951,9.649 -16.396,-12.972 15.569,7.528 -13.225,-10.464 23.428,12.777 -20.514,-16.288 24.499,14.111 -21.656,-17.397 17.84,10.183 -13.912,-14.23 17.067,12.772 0.379,0.37 -9.458,-12.537 22.818,22.807 c 0.878,0.879 1.332,2.028 1.355,3.183 0.023,1.161 -0.386,2.333 -1.233,3.252 -6.131,6.653 -11.794,13.83 -16.909,21.496 -4.992,7.48 -9.478,15.461 -13.385,23.911 C 5.476,-1.206 4.551,-0.381 3.467,0.041 2.395,0.461 1.157,0.479 0,0"
             style="fill:#8c4d1c;fill-opacity:1;fill-rule:evenodd;stroke:none"
             id="path13255" />
        </g>
        <g
           id="g13257"
           transform="translate(505.9287,404.8354)">
          <path
             d="m 0,0 -29.52,-12.227 c -2.523,-1.045 -5.244,-1 -7.623,-0.07 -2.369,0.926 -4.395,2.738 -5.546,5.224 -3.761,8.135 -8.112,15.866 -12.98,23.161 -4.954,7.425 -10.433,14.37 -16.361,20.804 -1.853,2.01 -2.747,4.574 -2.695,7.118 0.051,2.548 1.054,5.078 2.993,7.017 l 22.987,22.971 c 4.926,4.517 12.511,4.174 17.024,-0.756 7.686,-8.383 14.782,-17.399 21.195,-27.009 C -4.254,36.833 1.391,26.82 6.32,16.228 9.292,9.752 6.361,2.919 0,0"
             style="fill:#522c16;fill-opacity:1;fill-rule:evenodd;stroke:none"
             id="path13259" />
        </g>
        <g
           id="g13261"
           transform="translate(474.2783,397.752)">
          <path
             d="M 0,0 29.803,12.342 14.289,9.017 33.438,19.138 13.428,12.38 31.546,23.903 8.26,15.873 29.168,28.676 14.78,23.996 26.766,33.22 0.916,22.824 23.959,38.226 2.547,29.665 21.168,42.919 -1.018,33.397 18.435,47.273 2.928,41.834 15.8,51.267 -7.948,39.349 12.459,56.073 -8.561,46.217 9.221,60.485 -9.729,50.835 6.667,63.808 -8.902,56.281 4.321,66.744 -19.106,53.968 1.408,70.255 -23.09,56.144 -1.435,73.541 -19.275,63.358 -5.362,77.588 -22.43,64.815 -22.809,64.446 -13.35,76.984 -36.169,54.176 c -0.879,-0.878 -1.331,-2.027 -1.355,-3.184 -0.024,-1.16 0.385,-2.331 1.234,-3.25 6.13,-6.655 11.794,-13.83 16.908,-21.496 C -14.39,18.764 -9.904,10.784 -5.997,2.334 -5.476,1.205 -4.549,0.38 -3.466,-0.043 -2.393,-0.462 -1.157,-0.479 0,0"
             style="fill:#8c4d1c;fill-opacity:1;fill-rule:evenodd;stroke:none"
             id="path13263" />
        </g>
        <g
           id="g13265"
           transform="translate(112.6143,409.9795)">
          <path
             d="m 0,0 29.52,-12.227 c 2.524,-1.046 4.415,-3.002 5.439,-5.342 1.021,-2.33 1.173,-5.044 0.228,-7.616 -3.092,-8.412 -5.483,-16.955 -7.199,-25.555 -1.747,-8.753 -2.783,-17.538 -3.14,-26.281 -0.112,-2.73 -1.293,-5.175 -3.129,-6.937 -1.838,-1.765 -4.336,-2.847 -7.077,-2.847 l -32.497,0.011 c -6.677,0.29 -11.8,5.897 -11.505,12.575 0.494,11.36 1.851,22.754 4.112,34.083 2.212,11.083 5.302,22.154 9.306,33.129 C -13.465,-0.326 -6.562,2.433 0,0"
             style="fill:#522c16;fill-opacity:1;fill-rule:evenodd;stroke:none"
             id="path13267" />
        </g>
        <g
           id="g13269"
           transform="translate(140.0034,392.6084)">
          <path
             d="m 0,0 -29.801,12.346 13.323,-8.619 -20.698,6.384 18.928,-9.371 -20.96,4.664 22.144,-10.789 -23.837,5.731 13.482,-6.864 -14.996,1.953 25.629,-10.927 -27.185,5.403 21.195,-9.087 -22.54,3.794 22.422,-8.954 -23.568,3.943 14.811,-7.12 -15.772,2.432 25.22,-8.364 -26.256,2.605 21.832,-7.895 -22.662,2.485 20.224,-6.577 -20.766,2.421 16.33,-5.685 -16.75,1.951 25.601,-7.532 -26.023,2.99 27.301,-7.345 -27.615,3.01 19.816,-5.415 -19.9,-0.224 21.1,-3.036 0.53,-0.008 -15.555,-2.176 32.264,-0.008 c 1.241,0 2.375,0.491 3.209,1.293 0.837,0.804 1.376,1.922 1.426,3.17 0.37,9.041 1.44,18.118 3.244,27.157 1.76,8.819 4.231,17.634 7.444,26.372 0.429,1.167 0.358,2.405 -0.109,3.471 C 2.02,-1.367 1.157,-0.48 0,0"
             style="fill:#8c4d1c;fill-opacity:1;fill-rule:evenodd;stroke:none"
             id="path13271" />
        </g>
        <g
           id="g13273"
           transform="translate(503.7988,241.9189)">
          <path
             d="m 0,0 -29.52,12.229 c -2.524,1.043 -4.414,3 -5.44,5.339 -1.02,2.33 -1.173,5.044 -0.227,7.617 3.093,8.412 5.483,16.954 7.199,25.554 1.747,8.755 2.784,17.54 3.14,26.282 0.112,2.731 1.293,5.176 3.128,6.938 1.839,1.765 4.336,2.847 7.078,2.847 L 17.856,86.794 C 24.532,86.504 29.654,80.898 29.36,74.22 28.866,62.858 27.509,51.466 25.247,40.136 23.036,29.055 19.947,17.983 15.942,7.006 13.465,0.326 6.562,-2.434 0,0"
             style="fill:#522c16;fill-opacity:1;fill-rule:evenodd;stroke:none"
             id="path13275" />
        </g>
        <g
           id="g13277"
           transform="translate(476.4092,259.291)">
          <path
             d="M 0,0 29.801,-12.347 16.479,-3.727 37.176,-10.111 18.248,-0.74 39.209,-5.405 17.064,5.384 40.9,-0.348 27.419,6.517 42.416,4.565 16.786,15.49 43.971,10.089 22.777,19.176 45.316,15.381 22.895,24.336 46.462,20.392 31.651,27.511 47.424,25.079 22.203,33.444 48.461,30.84 26.627,38.734 49.289,36.25 l -20.223,6.576 20.767,-2.42 -16.332,5.685 16.75,-1.951 -25.601,7.531 26.023,-2.989 -27.3,7.345 27.614,-3.01 -19.816,5.414 19.899,0.224 -21.098,3.037 -0.53,0.006 15.553,2.178 -32.263,0.008 c -1.241,0 -2.375,-0.491 -3.21,-1.293 C 8.686,61.787 8.148,60.669 8.097,59.419 7.728,50.38 6.657,41.301 4.853,32.264 3.094,23.444 0.623,14.629 -2.59,5.893 -3.02,4.724 -2.949,3.485 -2.482,2.422 -2.02,1.365 -1.156,0.479 0,0"
             style="fill:#8c4d1c;fill-opacity:1;fill-rule:evenodd;stroke:none"
             id="path13279" />
        </g>
        <g
           id="g13281"
           transform="translate(224.1763,130.3574)">
          <path
             d="m 0,0 12.228,29.52 c 1.045,2.524 3.002,4.414 5.341,5.439 2.33,1.021 5.044,1.173 7.615,0.228 8.412,-3.093 16.955,-5.483 25.556,-7.2 8.754,-1.746 17.539,-2.782 26.281,-3.14 2.73,-0.112 5.175,-1.293 6.938,-3.128 1.764,-1.839 2.846,-4.336 2.846,-7.077 l -0.011,-32.497 c -0.29,-6.677 -5.897,-11.799 -12.575,-11.505 -11.361,0.493 -22.754,1.851 -34.084,4.112 -11.081,2.212 -22.153,5.301 -33.128,9.306 C 0.326,-13.466 -2.433,-6.561 0,0"
             style="fill:#522c16;fill-opacity:1;fill-rule:evenodd;stroke:none"
             id="path13283" />
        </g>
        <g
           id="g13285"
           transform="translate(241.5474,157.7461)">
          <path
             d="m 0,0 -12.346,-29.801 8.619,13.322 -6.383,-20.697 9.37,18.929 -4.664,-20.962 10.789,22.145 -5.731,-23.836 6.863,13.481 -1.952,-14.997 10.928,25.63 -5.404,-27.185 9.087,21.195 -3.795,-22.539 8.955,22.42 -3.943,-23.567 7.119,14.811 -2.431,-15.772 8.365,25.221 -2.606,-26.258 7.896,21.833 -2.486,-22.662 6.578,20.224 -2.422,-20.767 5.686,16.332 -1.953,-16.751 7.533,25.601 -2.989,-26.023 7.345,27.301 -3.011,-27.615 5.414,19.817 0.226,-19.9 3.035,21.099 0.008,0.53 2.176,-15.554 0.008,32.263 c 0,1.242 -0.491,2.375 -1.293,3.21 -0.804,0.836 -1.921,1.375 -3.17,1.425 -9.041,0.37 -18.119,1.441 -27.157,3.245 C 23.445,-3.093 14.63,-0.622 5.892,2.59 4.724,3.02 3.488,2.949 2.421,2.482 1.367,2.02 0.48,1.156 0,0"
             style="fill:#8c4d1c;fill-opacity:1;fill-rule:evenodd;stroke:none"
             id="path13287" />
        </g>
        <g
           id="g13289"
           transform="translate(392.2363,521.5415)">
          <path
             d="m 0,0 -12.227,-29.52 c -1.046,-2.524 -3.003,-4.415 -5.341,-5.44 -2.33,-1.02 -5.045,-1.172 -7.617,-0.227 -8.411,3.092 -16.953,5.483 -25.554,7.199 -8.753,1.747 -17.539,2.783 -26.281,3.141 -2.73,0.111 -5.176,1.292 -6.938,3.128 -1.765,1.838 -2.846,4.336 -2.846,7.077 l 0.011,32.497 c 0.29,6.677 5.896,11.8 12.573,11.505 11.363,-0.494 22.756,-1.851 34.084,-4.112 11.083,-2.212 22.155,-5.302 33.13,-9.305 C -0.325,13.465 2.434,6.562 0,0"
             style="fill:#522c16;fill-opacity:1;fill-rule:evenodd;stroke:none"
             id="path13291" />
        </g>
        <g
           id="g13293"
           transform="translate(374.8652,494.1523)">
          <path
             d="M 0,0 12.346,29.801 3.728,16.479 10.11,37.176 0.74,18.248 5.405,39.208 -5.384,17.065 0.348,40.901 -6.517,27.419 l 1.952,14.997 -10.926,-25.63 5.401,27.185 -9.087,-21.195 3.796,22.54 -8.955,-22.422 3.944,23.568 -7.12,-14.811 2.432,15.773 -8.364,-25.221 2.604,26.257 -7.895,-21.833 2.486,22.662 -6.578,-20.224 2.421,20.768 -5.686,-16.332 1.953,16.75 -7.533,-25.601 2.989,26.023 -7.344,-27.301 3.01,27.614 -5.415,-19.815 -0.223,19.9 -3.037,-21.1 -0.008,-0.529 -2.176,15.554 -0.008,-32.263 c 0,-1.242 0.492,-2.375 1.294,-3.21 0.803,-0.837 1.921,-1.376 3.17,-1.426 9.039,-0.37 18.118,-1.44 27.155,-3.244 8.822,-1.76 17.636,-4.231 26.373,-7.444 1.168,-0.429 2.405,-0.358 3.471,0.109 C -1.366,-2.02 -0.479,-1.157 0,0"
             style="fill:#8c4d1c;fill-opacity:1;fill-rule:evenodd;stroke:none"
             id="path13295" />
        </g>
        <g
           id="g13297"
           transform="translate(241.354,411.6973)">
          <path
             d="m 0,0 -2.065,-56.544 -2.066,-56.544 2.066,-56.543 2.065,-56.544 2.065,56.544 2.066,56.543 -2.065,56.544 z m 66.784,71.52 -2.066,-74.423 -2.065,-74.423 2.065,-74.426 2.066,-74.423 2.066,74.423 2.065,74.426 -2.065,74.423 z m 123.358,-83.94 -2.065,-43.45 -2.067,-43.449 2.067,-43.449 2.065,-43.449 2.064,43.449 2.067,43.449 -2.067,43.449 z m -59.296,57.931 -2.066,-67.921 -2.066,-67.921 2.066,-67.922 2.066,-67.922 2.066,67.922 2.064,67.922 -2.064,67.921 z m -185.642,-27.838 -2.066,-43.449 -2.065,-43.451 2.065,-43.447 2.066,-43.45 2.066,43.45 2.066,43.447 -2.066,43.451 z"
             style="fill:#522c16;fill-opacity:1;fill-rule:evenodd;stroke:none"
             id="path13299" />
        </g>
      </g>
    </g>
  </g>
</svg>
