<?xml version="1.0" encoding="UTF-8" standalone="no"?>
<!-- Created with Inkscape (http://www.inkscape.org/) -->

<svg
   version="1.1"
   id="svg16633"
   width="800"
   height="800"
   viewBox="0 0 800 800"
   sodipodi:docname="rugby-player-publicdomainvectors.org.svg"
   inkscape:version="1.2 (dc2aedaf03, 2022-05-15)"
   xmlns:inkscape="http://www.inkscape.org/namespaces/inkscape"
   xmlns:sodipodi="http://sodipodi.sourceforge.net/DTD/sodipodi-0.dtd"
   xmlns="http://www.w3.org/2000/svg"
   xmlns:svg="http://www.w3.org/2000/svg">
  <defs
     id="defs16637">
    <clipPath
       clipPathUnits="userSpaceOnUse"
       id="clipPath16649">
      <path
         d="M 0,600 H 600 V 0 H 0 Z"
         id="path16647" />
    </clipPath>
  </defs>
  <sodipodi:namedview
     id="namedview16635"
     pagecolor="#ffffff"
     bordercolor="#000000"
     borderopacity="0.25"
     inkscape:showpageshadow="2"
     inkscape:pageopacity="0.0"
     inkscape:pagecheckerboard="0"
     inkscape:deskcolor="#d1d1d1"
     showgrid="false"
     inkscape:zoom="1.04625"
     inkscape:cx="400"
     inkscape:cy="400.4779"
     inkscape:window-width="1920"
     inkscape:window-height="1017"
     inkscape:window-x="-8"
     inkscape:window-y="-8"
     inkscape:window-maximized="1"
     inkscape:current-layer="g16641">
    <inkscape:page
       x="0"
       y="0"
       id="page16639"
       width="800"
       height="800" />
  </sodipodi:namedview>
  <g
     id="g16641"
     inkscape:groupmode="layer"
     inkscape:label="Page 1"
     transform="matrix(1.3333333,0,0,-1.3333333,0,800)">
    <g
       id="g16643">
      <g
         id="g16645"
         clip-path="url(#clipPath16649)">
        <g
           id="g16651"
           transform="translate(534.9609,336.8472)">
          <path
             d="m 0,0 c 0,-116.675 -94.585,-211.26 -211.261,-211.26 -116.676,0 -211.261,94.585 -211.261,211.26 0,116.676 94.585,211.261 211.261,211.261 C -94.585,211.261 0,116.676 0,0"
             style="fill:#efee0f;fill-opacity:1;fill-rule:nonzero;stroke:none"
             id="path16653" />
        </g>
        <g
           id="g16655"
           transform="translate(337.7695,211.5547)">
          <path
             d="M 0,0 C 0.343,1.394 1.223,2.631 2.637,3.237 2.438,3.319 2.227,3.401 2.03,3.484 -16.469,11.203 -24.523,19.297 -27.88,25.65 -28.923,24.848 -29.967,23.977 -31.012,23.048 -26.157,14.392 -15.82,6.681 -0.136,0.056 -0.092,0.037 -0.044,0.019 0,0"
             style="fill:#ffffff;fill-opacity:1;fill-rule:nonzero;stroke:none"
             id="path16657" />
        </g>
        <g
           id="g16659"
           transform="translate(333.75,205.5889)">
          <path
             d="m 0,0 c -0.203,0.084 -0.41,0.169 -0.611,0.253 -20.816,8.749 -28.271,17.961 -30.724,24.565 -0.996,-1.033 -1.987,-2.109 -2.971,-3.22 4.264,-9.263 14.629,-17.487 30.923,-24.51 0.124,-0.053 0.251,-0.106 0.376,-0.159 C -2.566,-1.673 -1.565,-0.479 0,0"
             style="fill:#ffffff;fill-opacity:1;fill-rule:nonzero;stroke:none"
             id="path16661" />
        </g>
        <g
           id="g16663"
           transform="translate(323.6475,195.3691)">
          <path
             d="M 0,0 C 0.471,1.398 1.517,2.573 3.128,3.009 3.029,3.051 2.928,3.092 2.83,3.133 -17.887,11.876 -25.295,21.071 -27.728,27.659 -28.676,26.493 -29.615,25.302 -30.542,24.092 -26.227,15.03 -16.038,6.972 -0.153,0.064 -0.103,0.043 -0.05,0.02 0,0"
             style="fill:#ffffff;fill-opacity:1;fill-rule:nonzero;stroke:none"
             id="path16665" />
        </g>
        <g
           id="g16667"
           transform="translate(259.4512,457.4453)">
          <path
             d="M 0,0 C -8.684,-4.414 -28.777,-15.639 -32.163,-22.894 L -32.3,-23.14 c -2.145,-3.291 -4.017,-7.016 -4.069,-8.081 0.128,-0.456 0.19,-1.049 0.296,-2.048 0.573,-5.447 2.317,-22.023 19.195,-33.107 3.157,-2.074 5.428,-4.216 7.067,-6.256 2.563,4.51 8.296,13.695 12.974,14.702 -1.14,3.257 -1.742,6.162 -2.278,8.75 -0.908,4.39 -1.626,7.858 -4.398,11.184 l -1.777,2.133 c -0.121,0.053 -0.209,0.134 -0.225,0.27 -0.024,0.472 0.939,4.694 0.77,6.031 -0.064,0.676 -0.198,1.354 -0.317,2.054 -0.162,0.683 -0.299,1.397 -0.524,2.08 -0.212,0.689 -0.433,1.381 -0.724,2.033 -0.25,0.674 -0.571,1.303 -0.89,1.912 -0.291,0.627 -0.666,1.177 -1,1.718 -0.322,0.553 -0.678,1.033 -1.019,1.471 -0.341,0.438 -0.626,0.868 -0.936,1.208 -0.307,0.341 -0.574,0.638 -0.795,0.883 -0.44,0.491 -0.693,0.77 -0.693,0.77 0,0 0.295,-0.234 0.811,-0.645 0.258,-0.205 0.571,-0.454 0.931,-0.739 0.36,-0.284 0.72,-0.666 1.143,-1.054 0.424,-0.391 0.875,-0.825 1.296,-1.331 0.434,-0.495 0.918,-1.004 1.329,-1.601 0.439,-0.578 0.887,-1.184 1.271,-1.849 0.425,-0.643 0.783,-1.336 1.135,-2.039 0.366,-0.699 0.643,-1.434 0.943,-2.152 0.256,-0.73 0.526,-1.451 0.717,-2.161 0.423,-1.416 0.7,-2.763 0.933,-3.867 0.117,-0.53 0.224,-1.016 0.319,-1.448 5.522,1.561 12.984,4.029 20.637,6.828 C 16.9,-23.432 9.223,-12.606 3.577,-4.637 Z"
             style="fill:#ddab7d;fill-opacity:1;fill-rule:nonzero;stroke:none"
             id="path16669" />
        </g>
        <g
           id="g16671"
           transform="translate(251.895,381.4121)">
          <path
             d="m 0,0 c 1.769,-3.35 1.939,-6.049 1.925,-7.097 0.919,-2.179 7.523,-12.659 9.444,-13.86 1.862,-1.164 1.778,-2.47 1.563,-3.145 -0.369,-1.151 -1.409,-1.754 -3.367,-1.892 l 0.209,-4.764 8.264,-2.162 c 0.752,0.285 1.651,0.653 2.634,1.082 l -0.771,12.179 2.619,-11.343 c 1.556,0.729 3.242,1.582 4.942,2.544 l -1.215,11.36 2.918,-10.361 c 1.252,0.762 2.475,1.578 3.628,2.436 l -1.129,9.05 2.745,-7.771 c 2.042,1.717 3.72,3.565 4.621,5.484 -0.876,2.594 -1.821,4.603 -2.84,6.235 -3.064,-1.682 -9.715,-4.921 -15.951,-5.198 l 15.74,5.518 c -2.155,3.311 -4.64,5.03 -7.516,7.005 C 24.81,-2.19 20.67,0.653 16.255,7.2 15.917,7.701 15.596,8.196 15.289,8.685 11.105,9.728 4.122,3.995 0,0"
             style="fill:#ddab7d;fill-opacity:1;fill-rule:nonzero;stroke:none"
             id="path16673" />
        </g>
        <g
           id="g16675"
           transform="translate(250.6094,383.5166)">
          <path
             d="M 0,0 C 0.266,-0.383 0.51,-0.761 0.733,-1.133 3.645,1.909 10.074,8.149 15.066,9.154 14.333,10.491 13.71,11.779 13.173,13.021 9.202,11.862 3.263,4.445 0,0"
             style="fill:#ddab7d;fill-opacity:1;fill-rule:nonzero;stroke:none"
             id="path16677" />
        </g>
        <g
           id="g16679"
           transform="translate(233.6099,155.9277)">
          <path
             d="m 0,0 c 0.027,0.028 0.052,0.062 0.08,0.089 0.39,0.42 2.728,2.318 2.98,2.486 -0.035,0.036 -0.072,0.074 -0.107,0.11 -15.7,16.473 -18.334,27.869 -17.651,34.665 0.11,1.086 0.308,2.086 0.562,3.014 -0.069,0.143 -0.137,0.285 -0.196,0.407 l -0.036,0.076 c -1.291,-0.239 -2.591,-0.43 -3.896,-0.579 -0.01,-0.048 -0.024,-0.091 -0.034,-0.139 -0.152,-0.725 -0.284,-1.47 -0.368,-2.262 C -19.818,26.964 -13.57,14.28 -0.122,0.126 -0.082,0.084 -0.04,0.042 0,0"
             style="fill:#ffffff;fill-opacity:1;fill-rule:nonzero;stroke:none"
             id="path16681" />
        </g>
        <g
           id="g16683"
           transform="translate(227.3687,151.9648)">
          <path
             d="m 0,0 c 0.05,0.03 0.101,0.053 0.151,0.081 -16.08,16.715 -18.776,28.258 -18.087,35.115 0.298,2.961 1.225,5.32 2.29,7.141 -0.836,-0.308 -1.685,-0.583 -2.544,-0.852 -0.537,-0.168 -1.075,-0.33 -1.613,-0.493 -0.016,-0.005 -0.031,-0.013 -0.048,-0.018 -0.321,-0.264 -0.672,-0.459 -1.034,-0.625 -0.06,-0.181 -0.126,-0.354 -0.182,-0.54 -0.379,-1.252 -0.679,-2.606 -0.837,-4.095 -1.15,-10.881 5.071,-23.533 18.46,-37.651 C -3.382,-2.003 -1.113,-0.673 0,0"
             style="fill:#ffffff;fill-opacity:1;fill-rule:nonzero;stroke:none"
             id="path16685" />
        </g>
        <g
           id="g16687"
           transform="translate(215.147,145.6465)">
          <path
             d="m 0,0 c 1.135,0.793 2.321,1.457 3.591,2.021 -16.149,16.76 -18.859,28.331 -18.169,35.199 0.279,2.763 1.11,4.987 2.085,6.755 -1.09,-0.495 -2.198,-0.957 -3.32,-1.37 -0.118,-0.047 -0.202,-0.081 -0.272,-0.109 -0.23,-0.104 -0.459,-0.212 -0.684,-0.329 -0.284,-0.149 -0.562,-0.31 -0.832,-0.482 -0.078,-0.053 -0.13,-0.088 -0.183,-0.122 -0.057,-0.201 -0.12,-0.393 -0.173,-0.598 -0.259,-1.008 -0.467,-2.077 -0.588,-3.228 C -19.691,26.899 -13.521,14.302 -0.241,0.251 -0.162,0.167 -0.079,0.083 0,0"
             style="fill:#ffffff;fill-opacity:1;fill-rule:nonzero;stroke:none"
             id="path16689" />
        </g>
        <g
           id="g16691"
           transform="translate(325.7588,275.0957)">
          <path
             d="m 0,0 5.05,-6.031 c 0,0 -0.104,0.079 -0.3,0.227 -0.186,0.157 3.931,-5.545 3.599,-5.227 -0.695,0.603 -6.085,7.403 -7.201,8.519 -2.231,2.231 -5.108,5.297 -7.948,8.396 -1.851,2.019 -3.683,4.049 -5.318,5.873 -1.045,-2.791 -1.802,-5.833 -2.26,-9.13 0,0 12.205,-16.75 13.128,-21.036 0.075,-0.35 0.121,-0.703 0.152,-1.06 0.228,-0.557 0.378,-1.12 0.48,-1.685 0.151,0.096 0.303,0.199 0.465,0.298 0.511,0.341 1.035,0.763 1.552,1.212 1.02,0.914 1.955,1.981 2.611,2.824 0.657,0.842 1.04,1.456 1.04,1.456 0,0 -0.151,-0.706 -0.489,-1.747 -0.336,-1.041 -0.865,-2.418 -1.58,-3.756 -0.366,-0.663 -0.764,-1.323 -1.199,-1.92 -0.227,-0.292 -0.424,-0.595 -0.661,-0.85 -0.233,-0.258 -0.44,-0.517 -0.664,-0.733 -0.445,-0.437 -0.84,-0.795 -1.153,-1.016 -0.258,-0.196 -0.415,-0.315 -0.459,-0.349 -1.14,-2.702 -3.571,-4.93 -6.134,-6.723 1.381,-1.458 4.551,-3.787 7.017,-5.594 3.476,-2.547 7.196,-5.279 10.164,-8.129 0.477,0.284 1.04,0.586 1.664,0.833 0.681,0.286 1.414,0.523 2.09,0.788 0.683,0.268 1.322,0.575 1.92,1.027 0.597,0.452 1.168,1.05 1.679,1.796 0.487,0.728 0.987,1.667 1.499,2.61 0.523,0.94 1.053,1.896 1.585,2.851 1.09,1.903 2.246,3.783 3.486,5.448 1.24,1.658 2.566,3.126 3.984,4.059 0.705,0.465 1.437,0.782 2.12,0.899 0.682,0.127 1.297,0.045 1.753,-0.117 0.236,-0.063 0.428,-0.162 0.593,-0.249 0.17,-0.076 0.302,-0.164 0.406,-0.241 0.209,-0.144 0.321,-0.221 0.321,-0.221 0,0 -0.119,0.063 -0.344,0.182 -0.219,0.122 -0.565,0.275 -1.019,0.363 -0.45,0.103 -1.024,0.11 -1.628,-0.078 -0.605,-0.177 -1.233,-0.539 -1.832,-1.041 -1.203,-1.007 -2.298,-2.533 -3.297,-4.254 -1.001,-1.727 -1.908,-3.669 -2.754,-5.643 -0.411,-0.996 -0.824,-1.992 -1.229,-2.973 -0.399,-0.985 -0.77,-1.961 -1.295,-2.995 -0.525,-1.002 -1.209,-1.943 -2.014,-2.717 -0.804,-0.777 -1.715,-1.344 -2.503,-1.762 -0.797,-0.423 -1.456,-0.722 -1.964,-1.012 -0.233,-0.125 -0.43,-0.247 -0.606,-0.364 0.827,-1.022 1.531,-2.053 2.05,-3.095 3.427,0.938 12.485,4.496 15.67,7.306 1.308,1.154 3.147,2.307 5.276,3.642 5.186,3.251 11.638,7.298 13.925,13.464 2.718,7.327 -0.234,29.959 -1.6,38.061 -1.229,6.836 -4.524,18.579 -8.117,20.903 C 37.097,32.98 19.403,36.534 4.419,29.573 -2.466,26.374 -7.528,21.461 -10.746,14.919 -9.133,12.609 -7.206,9.872 -5.248,7.146 -3.441,4.628 -1.614,2.13 0,0"
             style="fill:#ddab7d;fill-opacity:1;fill-rule:nonzero;stroke:none"
             id="path16693" />
        </g>
        <g
           id="g16695"
           transform="translate(435.7734,424.4063)">
          <path
             d="M 0,0 C 0.928,7.148 2.541,12.867 4.695,16.855 -1.346,11.866 -6.451,2.135 -9.465,-7.814 c -1.293,-6.737 -1.529,-14.096 -0.629,-21.608 0.116,-0.957 0.253,-1.905 0.402,-2.848 0.379,0.339 0.876,0.541 1.447,0.552 0.772,0.018 4.431,-0.601 8.73,-1.386 -0.152,1.085 -0.287,2.172 -0.411,3.263 l -5.697,3.389 -0.166,0.202 c -0.061,0.073 -1.467,1.794 -2.534,4.079 -0.294,0.629 -0.2,1.328 0.246,1.823 0.837,0.932 1.838,0.843 7.432,-1.029 C -1.052,-13.895 -0.85,-6.563 0,0"
             style="fill:#c2955d;fill-opacity:1;fill-rule:nonzero;stroke:none"
             id="path16697" />
        </g>
        <g
           id="g16699"
           transform="translate(477.9668,367.6392)">
          <path
             d="M 0,0 C 1.065,2.249 1.966,4.651 2.707,7.167 0.194,6.113 -2.918,5.045 -6.311,4.03 -6.773,-1.659 -7.772,-7.102 -9.441,-12.06 -5.737,-9.379 -2.512,-5.299 0,0"
             style="fill:#c2955d;fill-opacity:1;fill-rule:nonzero;stroke:none"
             id="path16701" />
        </g>
        <g
           id="g16703"
           transform="translate(459.7041,352.0215)">
          <path
             d="M 0,0 C 2.616,0.314 5.11,1.217 7.44,2.641 9.311,7.74 10.421,13.403 10.935,19.348 1.666,16.644 -9.347,14.366 -15.709,13.793 -13.495,8.648 -10.824,4.179 -7.692,0.756 -5.144,-0.037 -2.56,-0.308 0,0"
             style="fill:#c2955d;fill-opacity:1;fill-rule:nonzero;stroke:none"
             id="path16705" />
        </g>
        <g
           id="g16707"
           transform="translate(450.1016,353.4658)">
          <path
             d="m 0,0 c -2.756,3.365 -5.133,7.546 -7.134,12.268 -0.594,-0.038 -1.145,-0.062 -1.628,-0.062 -1.16,0 -1.974,0.115 -2.354,0.364 -0.629,0.413 -0.944,1.083 -0.839,1.792 0.074,0.516 0.205,1.292 2.991,2.666 -0.572,1.64 -1.103,3.328 -1.597,5.055 -4.367,1.273 -8.331,2.441 -9.11,2.708 -0.298,0.102 -0.6,0.261 -0.9,0.444 2.196,-6.006 5.146,-11.395 8.737,-15.823 C -8.196,4.926 -4.166,1.747 0,0"
             style="fill:#c2955d;fill-opacity:1;fill-rule:nonzero;stroke:none"
             id="path16709" />
        </g>
        <g
           id="g16711"
           transform="translate(447.877,373.126)">
          <path
             d="m 0,0 c -2.121,0.615 -4.703,1.364 -7.229,2.1 0.43,-1.471 0.89,-2.91 1.378,-4.315 C -4.465,-1.594 -2.59,-0.866 0,0"
             style="fill:#ffffff;fill-opacity:1;fill-rule:nonzero;stroke:none"
             id="path16713" />
        </g>
        <g
           id="g16715"
           transform="translate(470.0176,433.917)">
          <path
             d="m 0,0 c -1.657,2.044 -3.397,3.807 -5.193,5.297 -1.1,0.827 -2.232,1.594 -3.397,2.274 -2.218,1.296 -4.421,2.22 -6.56,2.781 1.96,-2.532 3.75,-6.015 4.879,-8.425 3.461,-7.389 6.815,-17.455 9.134,-28.444 0.155,-0.123 0.287,-0.235 0.368,-0.323 1.739,-1.901 5.554,-4.411 7.053,-5.365 2.441,1.034 4.095,2.759 5.283,4.779 l -1.208,6.584 C 8.106,-12.809 4.564,-5.63 0,0"
             style="fill:#c2955d;fill-opacity:1;fill-rule:nonzero;stroke:none"
             id="path16717" />
        </g>
        <g
           id="g16719"
           transform="translate(443.6582,389.9175)">
          <path
             d="M 0,0 -6.743,4.013 C -6.633,3.072 -6.511,2.134 -6.378,1.197 -4.277,0.811 -2.07,0.395 0,0"
             style="fill:#ffffff;fill-opacity:1;fill-rule:nonzero;stroke:none"
             id="path16721" />
        </g>
        <g
           id="g16723"
           transform="translate(429.0654,385.5713)">
          <path
             d="M 0,0 -1.804,0.64 C -1.748,0.408 -1.691,0.176 -1.633,-0.054 -1.434,0.028 -1.081,0.106 0,0"
             style="fill:#ffffff;fill-opacity:1;fill-rule:nonzero;stroke:none"
             id="path16725" />
        </g>
        <g
           id="g16727"
           transform="translate(453.2803,444.624)">
          <path
             d="M 0,0 C -0.905,0.162 -1.794,0.25 -2.667,0.273 -3.346,0.271 -4.023,0.231 -4.7,0.149 -6.092,-0.017 -7.45,-0.348 -8.768,-0.835 -8.89,-0.887 -9.014,-0.932 -9.134,-0.987 c -0.538,-0.248 -1.069,-0.55 -1.595,-0.876 -2.693,-3.775 -4.7,-10.111 -5.786,-18.483 -0.859,-6.626 -1.051,-14.038 -0.621,-21.59 0.83,-0.281 1.737,-0.591 2.756,-0.942 5.082,-1.747 14.425,-4.964 16.511,-4.587 1.567,2.263 2.157,4.419 1.661,6.091 -0.332,1.121 -1.13,1.957 -2.309,2.416 -0.614,0.24 -1.291,0.479 -1.992,0.728 -3.563,1.26 -7.602,2.689 -8.296,5.678 -0.125,0.538 0.011,1.092 0.372,1.52 0.436,0.514 1.342,1.586 11.387,0.969 l 0.328,-0.02 0.289,-0.155 c 2.642,-1.418 8.085,-4.379 10.837,-6.158 -2.293,10.497 -5.52,20.09 -8.846,27.192 C 3.6,-5.02 1.677,-1.859 0,0"
             style="fill:#c2955d;fill-opacity:1;fill-rule:nonzero;stroke:none"
             id="path16729" />
        </g>
        <g
           id="g16731"
           transform="translate(368.9463,519.3159)">
          <path
             d="m 0,0 c 3.796,-0.141 1.332,-5.745 1.692,-6.655 l 0.13,-0.128 c -0.063,0.011 -0.103,0.059 -0.13,0.128 L -3.009,-2.03 -9.45,6.933 C -9.45,6.933 -4.083,0.15 0,0 m 9.057,16.278 c 1.809,-0.754 4.22,-1.055 4.823,-1.507 0.603,-0.453 -0.491,-2.111 -0.491,-2.111 H 9.961 c 0,0 -0.844,-1.038 -2.502,-1.055 -1.657,-0.016 -1.63,1.96 -1.63,1.96 l -6.72,2.713 c 0.603,0 8.139,0.754 9.948,0 m 5.727,5.878 c 0.302,-1.658 0,-2.562 0,-2.562 L 0.465,21.261 0,22.156 c 1.219,0.151 14.483,1.658 14.784,0 M 25.185,0.979 c 0,-0.226 -4.371,-2.788 -4.824,-3.241 -0.452,-0.452 -6.3,3.241 -6.3,3.241 0,0 11.124,0.226 11.124,0 m 0.678,-11.756 c -0.075,-1.131 -2.035,-3.242 -2.035,-3.242 0,0 -9.496,2.563 -11.907,0.754 0,0 1.278,2.714 1.468,2.488 0.19,-0.226 12.55,1.131 12.474,0 m -4.446,-7.31 h -6.331 l -1.206,2.025 0.603,-0.066 c 1.959,0.15 7.838,0 7.838,0 z m -22.596,0.024 c 1.514,-1.081 2.961,-2.113 4.021,-2.818 -0.105,0.816 -0.142,1.698 -0.145,2.581 0,1.33 0.069,2.642 0.085,3.622 0.009,0.491 0.004,0.898 -0.03,1.179 -0.02,0.288 -0.131,0.415 -0.139,0.411 0.002,0.01 0.146,-0.102 0.222,-0.392 0.09,-0.278 0.174,-0.686 0.259,-1.173 0.171,-0.975 0.353,-2.279 0.599,-3.553 0.242,-1.269 0.571,-2.526 0.953,-3.283 0.188,-0.378 0.383,-0.598 0.487,-0.67 0.107,-0.066 0.114,-0.032 0.117,-0.046 l -0.051,-0.098 c 2.549,-1.394 7.002,-3.198 14.661,-2.336 0.863,0.62 1.701,1.303 1.934,1.577 0.392,1.077 2.055,4.628 9.094,18.638 2.755,7.141 1.547,14.912 0.278,16.418 -0.11,-0.059 -0.225,-0.109 -0.345,-0.13 -1.5,-0.259 -2.164,0.947 -2.164,0.947 l -3.472,-0.151 0.678,1.055 1.582,0.922 3.1,1.533 c 0.108,0.319 0.226,0.636 0.348,0.951 0.278,0.721 0.593,1.547 0.838,2.536 -0.969,0.049 -2.784,0.02 -4.145,-0.013 -1.101,-1.275 -4.174,-4.811 -4.911,-5.467 -0.153,-0.769 0.276,-5.269 1.191,-9.195 L 23.388,4.871 c -2.177,9.331 -1.59,9.772 -1.339,9.96 0.38,0.285 2.135,4.667 3.814,6.977 v 0.499 l 0.415,0.034 5.858,0.476 c 0.04,3.755 -1.334,9.433 -2.128,12.386 L 28.123,33.708 27.72,33.671 c -0.875,-0.079 -8.577,-0.779 -9.619,-0.779 -0.613,0 -2.124,0.457 -7.806,2.276 -3.057,0.979 -7.207,2.308 -8.125,2.464 -1.001,-0.24 -5.446,-2.353 -9.444,-4.387 L -5.486,22.777 -5.63,22.42 c -1.19,-2.949 -5.26,-9.474 -6.022,-9.43 0.234,-0.931 0.458,-1.866 0.646,-2.817 0.119,-0.645 0.247,-1.27 0.258,-1.987 -0.008,-0.454 -0.167,-0.748 -0.285,-1.047 l -0.377,-0.88 c -0.233,-0.582 -0.456,-1.175 -0.514,-1.79 -0.079,-0.61 0.072,-1.262 0.536,-1.721 -0.52,0.387 -0.788,1.069 -0.786,1.729 -0.023,0.666 0.131,1.314 0.29,1.941 l 0.26,0.927 c 0.086,0.302 0.168,0.616 0.126,0.808 -0.08,0.559 -0.281,1.177 -0.476,1.767 -0.396,1.177 -0.853,2.346 -1.322,3.508 -1.14,0.48 -2.705,1.415 -4.881,3.133 -0.239,-0.034 -0.462,-0.105 -0.577,-0.244 -0.572,-0.696 -0.053,-3.309 0.365,-5.408 0.28,-1.409 0.597,-3.006 0.761,-4.591 0.493,-4.813 3.485,-5.273 5.464,-5.577 l 1.176,-0.181 0.586,-5.385 c 0.469,-1.223 1.677,-4.371 3.281,-8.495 2.036,-1.286 3.674,-3.125 5.942,-4.743"
             style="fill:#ddab7d;fill-opacity:1;fill-rule:nonzero;stroke:none"
             id="path16733" />
        </g>
        <g
           id="g16735"
           transform="translate(390.623,495.8335)">
          <path
             d="M 0,0 C 0.009,0.077 0.032,0.185 0.104,0.383 0.065,0.307 0.016,0.176 0,0"
             style="fill:#ffffff;fill-opacity:1;fill-rule:nonzero;stroke:none"
             id="path16737" />
        </g>
        <g
           id="g16739"
           transform="translate(432.7061,446.1616)">
          <path
             d="m 0,0 c 7.751,12.805 14.856,28.362 18.188,36.278 -2.447,0.759 -6.764,2.765 -11.473,5.169 L -35.647,26.402 c 0,0 13.5,17.5 14.5,24.25 0.437,2.947 0.92,5.226 1.328,6.859 -2.363,1.495 -5.048,3.118 -7.435,4.522 -2.44,-5.048 -6.282,-12.792 -8.393,-15.55 -2.227,-2.91 -4.317,-7.328 -6.473,-10.538 C -48.139,23.509 -50.848,18.884 -52.338,17.17 -53.207,12.801 -53.689,6.241 -53.933,1.775 -34.561,-0.63 -14.88,-1.86 0,0"
             style="fill:#f14821;fill-opacity:1;fill-rule:nonzero;stroke:none"
             id="path16741" />
        </g>
        <g
           id="g16743"
           transform="translate(357.7979,424.584)">
          <path
             d="m 0,0 c 2.203,-6.609 4.771,-13.892 7.658,-21.378 15.733,-1.886 34.025,-2.544 54.101,-0.536 0.47,6.58 2.207,13.98 4.887,20.898 C 59.729,-1.63 31.725,-3.063 0,0"
             style="fill:#f14821;fill-opacity:1;fill-rule:nonzero;stroke:none"
             id="path16745" />
        </g>
        <g
           id="g16747"
           transform="translate(403.8203,333.9312)">
          <path
             d="m 0,0 c -1.181,0.794 -2.468,1.801 -3.815,2.991 -3.968,0.105 -8.819,0.342 -14.247,0.833 0.824,-0.97 1.645,-1.913 2.456,-2.797 4.348,-4.765 8.49,-8.14 11.592,-10.027 0.768,-0.488 1.481,-0.863 2.093,-1.202 0.419,-0.2 0.778,-0.379 1.109,-0.539 0.941,2.367 2.147,5.469 3.492,9.087 -0.137,0.073 -0.257,0.14 -0.404,0.217 C 1.604,-1.032 0.821,-0.574 0,0"
             style="fill:#f14821;fill-opacity:1;fill-rule:nonzero;stroke:none"
             id="path16749" />
        </g>
        <g
           id="g16751"
           transform="translate(333.2129,388.9004)">
          <path
             d="m 0,0 c 0.988,-1.966 1.986,-3.947 2.987,-5.937 1.051,-1.962 2.066,-3.955 3.154,-5.905 1.092,-1.949 2.147,-3.917 3.293,-5.825 0.344,-0.593 0.694,-1.181 1.042,-1.77 6.464,-2.534 13.83,-4.826 22.054,-6.519 -1.92,3.562 -3.794,7.207 -5.601,10.883 -1.786,3.635 -3.506,7.296 -5.158,10.929 C 14.054,-2.859 6.416,-1.026 -0.732,1.519 -0.488,1.013 -0.247,0.508 0,0"
             style="fill:#f14821;fill-opacity:1;fill-rule:nonzero;stroke:none"
             id="path16753" />
        </g>
        <g
           id="g16755"
           transform="translate(361.9238,374.7344)">
          <path
             d="m 0,0 c 2.221,-4.208 4.526,-8.365 6.884,-12.387 4.282,-0.782 8.784,-1.397 13.504,-1.799 -0.691,1.244 -1.378,2.503 -2.053,3.795 C 15.305,-4.602 12.427,1.635 9.744,8.019 4.903,8.397 -0.026,8.944 -4.94,9.703 -3.346,6.47 -1.699,3.223 0,0"
             style="fill:#f14821;fill-opacity:1;fill-rule:nonzero;stroke:none"
             id="path16757" />
        </g>
        <g
           id="g16759"
           transform="translate(374.1104,382.5752)">
          <path
             d="m 0,0 c 2.708,-5.895 5.576,-11.623 8.553,-16.927 1.028,-1.841 2.075,-3.625 3.131,-5.35 9.295,-0.568 19.39,-0.296 30.254,1.151 2.094,7.625 3.803,15.281 4.615,22.079 C 37.86,0.049 19.85,-1.335 0,0"
             style="fill:#f14821;fill-opacity:1;fill-rule:nonzero;stroke:none"
             id="path16761" />
        </g>
        <g
           id="g16763"
           transform="translate(341.7725,418.3892)">
          <path
             d="m 0,0 c 1.534,-3.753 3.268,-7.879 5.167,-12.244 5.189,-1.028 10.807,-1.965 16.813,-2.728 -2.621,7.467 -4.933,14.703 -6.908,21.26 C 8.987,6.891 2.772,7.661 -3.45,8.635 -2.448,6.07 -1.296,3.172 0,0"
             style="fill:#f14821;fill-opacity:1;fill-rule:nonzero;stroke:none"
             id="path16765" />
        </g>
        <g
           id="g16767"
           transform="translate(318.459,421.647)">
          <path
             d="m 0,0 c -1.291,3.752 -2.396,7.14 -3.315,10.07 -2.842,0.725 -5.654,1.505 -8.419,2.344 0.638,-4.189 1.676,-10.992 2.59,-16.965 C -6.725,-5.535 -2.525,-7.164 3.225,-9.01 2.053,-5.845 0.968,-2.821 0,0"
             style="fill:#f14821;fill-opacity:1;fill-rule:nonzero;stroke:none"
             id="path16769" />
        </g>
        <g
           id="g16771"
           transform="translate(334.5791,382.1533)">
          <path
             d="M 0,0 C -0.951,2.027 -1.898,4.047 -2.837,6.051 -3.287,7.047 -3.733,8.04 -4.173,9.03 -11.201,11.708 -17.705,15.113 -23.269,19.429 -23.226,15.411 -23.321,9.18 -23.374,6.271 -20.412,3.661 -10.463,-4.453 5.814,-11.346 4.85,-9.594 3.939,-7.807 3.007,-6.032 1.966,-4.037 1.002,-2.004 0,0"
             style="fill:#f14821;fill-opacity:1;fill-rule:nonzero;stroke:none"
             id="path16773" />
        </g>
        <g
           id="g16775"
           transform="translate(489.4746,439.5952)">
          <path
             d="m 0,0 -9.018,-13.076 c 1.327,-2.618 2.364,-5.305 3.035,-7.972 0.358,0.541 0.709,1.085 1.056,1.623 2.955,4.58 6.25,9.657 13.135,10.885 -1.553,1.182 -3.11,2.27 -4.154,3.139 C 3.31,-4.781 1.777,-2.659 0,0"
             style="fill:#f14821;fill-opacity:1;fill-rule:nonzero;stroke:none"
             id="path16777" />
        </g>
        <g
           id="g16779"
           transform="translate(365.2715,335.0205)">
          <path
             d="M 0,0 C -1.962,2.086 -3.97,4.406 -5.993,6.898 -13.56,8.659 -21.254,11.021 -28.55,14.179 -22.187,9.987 -15.067,5.335 -7.889,1.605 -4.21,-0.307 -0.399,-1.968 3.392,-3.447 2.313,-2.352 1.106,-1.268 0,0"
             style="fill:#f14821;fill-opacity:1;fill-rule:nonzero;stroke:none"
             id="path16781" />
        </g>
        <g
           id="g16783"
           transform="translate(385.6934,332.7139)">
          <path
             d="m 0,0 c -1.467,1.693 -2.946,3.539 -4.428,5.496 -5.285,0.588 -10.979,1.421 -16.833,2.593 1.104,-1.207 2.195,-2.36 3.268,-3.44 1.125,-1.22 2.338,-2.242 3.422,-3.287 0.554,-0.509 1.076,-1.027 1.617,-1.489 0.547,-0.456 1.077,-0.898 1.592,-1.327 1.4,-1.224 2.739,-2.23 3.948,-3.114 3.228,-1.062 6.349,-2.027 9.229,-2.911 3.601,-1.103 6.822,-2.093 9.561,-3.068 C 8.104,-8.307 4.085,-4.743 0,0"
             style="fill:#f14821;fill-opacity:1;fill-rule:nonzero;stroke:none"
             id="path16785" />
        </g>
        <g
           id="g16787"
           transform="translate(284.248,478.127)">
          <path
             d="m 0,0 c -4.624,-4.686 -12.504,-11.457 -12.908,-11.804 l -0.062,-0.052 23.816,-30.151 c 5.196,2.092 8.189,3.416 8.237,3.438 l 1.739,0.772 1.164,12.744 C 15.43,-16.355 4.839,-5.057 0,0"
             style="fill:#f14821;fill-opacity:1;fill-rule:nonzero;stroke:none"
             id="path16789" />
        </g>
        <g
           id="g16791"
           transform="translate(308.0137,369.9702)">
          <path
             d="M 0,0 -1.26,-7.024 C 1.602,-6.447 4.98,-7.231 8.797,-8.889 5.566,-6.225 2.602,-3.277 0,0"
             style="fill:#f14821;fill-opacity:1;fill-rule:nonzero;stroke:none"
             id="path16793" />
        </g>
        <g
           id="g16795"
           transform="translate(349.291,452.4092)">
          <path
             d="m 0,0 c -0.244,1.021 -0.37,1.572 -0.37,1.572 0,0 0.143,-0.556 0.421,-1.581 8.912,-1.569 18.587,-3.095 28.372,-4.332 -0.981,4.466 -2.988,10.977 -6.905,15.496 -6.5,7.5 -15.083,31.083 -15.083,31.083 L 16.814,24.293 c 0,0 2.858,-3.014 5.834,-6.072 C 20.093,23.797 16.346,33.006 12.98,41.492 8.159,44.62 4.286,55.996 2.634,61.563 l -4.788,-2.83 c -1.354,-2.918 -4.35,-6.875 -4.487,-7.055 l -0.328,-0.433 -0.54,-0.222 C -2.043,46.664 9.847,35.392 9.268,20.155 -3.964,38.529 -27.416,33.337 -42.086,37.616 -44.043,36.888 -45.941,36.165 -47.742,35.46 -44.369,30.322 -38.927,16.964 -35.125,7.052 -27.62,5.357 -14.886,2.622 0,0"
             style="fill:#f14821;fill-opacity:1;fill-rule:nonzero;stroke:none"
             id="path16797" />
        </g>
        <g
           id="g16799"
           transform="translate(407.8574,335.98)">
          <path
             d="M 0,0 C 0.107,0.292 0.214,0.592 0.32,0.89 -0.21,0.881 -0.814,0.874 -1.48,0.871 -0.949,0.542 -0.446,0.252 0,0"
             style="fill:#f14821;fill-opacity:1;fill-rule:nonzero;stroke:none"
             id="path16801" />
        </g>
        <g
           id="g16803"
           transform="translate(319.0469,421.8589)">
          <path
             d="m 0,0 c 1.119,-2.989 2.377,-6.202 3.738,-9.572 6.118,-1.927 13.859,-4.052 22.98,-5.907 -1.68,4.192 -3.213,8.162 -4.573,11.781 -1.237,3.29 -2.33,6.285 -3.274,8.926 C 11.343,6.417 3.808,7.908 -3.521,9.763 -2.535,6.907 -1.362,3.625 0,0"
             style="fill:#f14821;fill-opacity:1;fill-rule:nonzero;stroke:none"
             id="path16805" />
        </g>
        <g
           id="g16807"
           transform="translate(454.8008,448.3984)">
          <path
             d="m 0,0 c 2.834,-0.611 5.742,-1.761 8.646,-3.457 3.874,-2.264 7.452,-5.335 10.523,-8.853 L 28.541,0.812 C 27.455,2.57 26.522,4.101 25.9,5.125 L 15.672,16.244 Z"
             style="fill:#f14821;fill-opacity:1;fill-rule:nonzero;stroke:none"
             id="path16809" />
        </g>
        <g
           id="g16811"
           transform="translate(458.3691,373.2178)">
          <path
             d="m 0,0 -4.879,-1.465 c -2.974,-0.894 -6.243,-2 -8.717,-2.965 10.562,1.31 35.804,7.333 39.242,11.264 l 0.312,0.357 0.461,0.113 c 22.063,5.382 28.59,18.184 31.378,23.651 0.547,1.073 0.918,1.8 1.309,2.305 -0.462,2.487 -8.261,12.09 -10.873,15.305 -1.657,2.041 -2.465,3.042 -2.747,3.509 -0.152,0.255 -0.544,0.697 -1.094,1.259 C 40.628,51.75 32.937,48.26 30.844,46.129 30.148,45.421 29.62,43.232 29.11,41.116 27.789,35.634 25.979,28.127 18.272,25.41 L 17.6,25.172 16.99,25.544 c -0.237,0.146 -5.858,3.594 -8.323,6.29 -0.688,0.65 -6.241,3.806 -11.313,6.534 -2.646,0.152 -5.638,0.188 -7.419,0.063 1.302,-0.953 3.712,-1.806 5.468,-2.427 0.733,-0.259 1.441,-0.51 2.081,-0.76 2.045,-0.799 3.499,-2.347 4.096,-4.359 0.78,-2.635 -0.02,-5.801 -2.256,-8.913 -1.525,-2.126 -6.045,-0.998 -19.768,3.719 -2.113,0.726 -4.534,1.559 -6.327,2.11 0.231,-0.337 0.424,-0.599 0.55,-0.762 L 1.65,10.457 l -8.5,1.668 c -7.491,1.469 -19.24,3.701 -22.913,4.231 0.102,-0.249 0.228,-0.522 0.364,-0.786 L -5.725,7.176 -6.591,4.307 c -8.719,2.175 -18.305,4.378 -22.035,4.983 0.464,-0.603 1.122,-1.23 1.657,-1.413 1.418,-0.484 15.06,-4.44 22.074,-6.464 z"
             style="fill:#ddab7d;fill-opacity:1;fill-rule:nonzero;stroke:none"
             id="path16813" />
        </g>
        <g
           id="g16815"
           transform="translate(494.8115,435.7285)">
          <path
             d="M 0,0 V 0 C -0.001,0.001 -0.002,0.002 -0.003,0.002 Z"
             style="fill:#ffffff;fill-opacity:1;fill-rule:nonzero;stroke:none"
             id="path16817" />
        </g>
        <g
           id="g16819"
           transform="translate(240.4805,180.4893)">
          <path
             d="m 0,0 c 2.402,0.67 4.951,1.45 7.387,2.458 1.213,0.507 2.402,1.073 3.461,1.757 0.518,0.347 1.027,0.716 1.406,1.147 0.362,0.39 0.69,0.987 1.043,1.508 1.395,2.127 2.921,4.036 4.66,5.193 0.857,0.581 1.788,0.924 2.632,0.975 0.418,0.078 0.815,-0.022 1.173,-0.036 0.348,-0.101 0.677,-0.151 0.95,-0.272 0.27,-0.123 0.511,-0.232 0.721,-0.327 0.193,-0.124 0.357,-0.229 0.49,-0.315 0.264,-0.171 0.405,-0.263 0.405,-0.263 0,0 -0.147,0.081 -0.422,0.235 -0.138,0.075 -0.307,0.169 -0.507,0.277 -0.212,0.079 -0.456,0.17 -0.729,0.27 -0.273,0.1 -0.598,0.125 -0.935,0.201 -0.346,-0.014 -0.724,0.058 -1.112,-0.044 C 19.835,12.66 18.996,12.282 18.226,11.679 16.668,10.48 15.321,8.544 14.11,6.381 13.791,5.84 13.553,5.273 13.084,4.665 12.64,4.092 12.101,3.646 11.553,3.219 10.443,2.388 9.237,1.71 8.012,1.094 5.556,-0.128 3.014,-1.103 0.617,-1.956 c -2.399,-0.85 -4.663,-1.555 -6.611,-2.135 -0.177,-0.053 -0.349,-0.103 -0.521,-0.153 2.239,-4.263 4.1,-7.609 5.187,-9.22 2.357,0.897 8.607,3.621 24.154,11.84 2.896,5.76 24.863,48.471 46.447,63.186 l 0.102,0.063 c 0.412,0.246 0.913,0.528 1.477,0.845 3.371,1.895 9.646,5.426 9.943,9.317 C 80.935,73.616 52.828,85.29 47.361,87.565 43.186,82.896 36.406,75.253 26.992,61.132 17.107,46.304 -3.035,22.605 -16.689,16.057 c 2.997,-6.202 6.183,-12.605 8.944,-17.941 0.36,0.077 0.729,0.157 1.116,0.243 C -4.677,-1.205 -2.405,-0.668 0,0"
             style="fill:#ddab7d;fill-opacity:1;fill-rule:nonzero;stroke:none"
             id="path16821" />
        </g>
        <g
           id="g16823"
           transform="translate(327.375,272.999)">
          <path
             d="M 0,0 C 0.97,-1.233 1.806,-2.236 2.42,-2.915 2.713,-3.272 2.993,-3.491 3.162,-3.672 3.34,-3.843 3.434,-3.935 3.434,-3.935 l -5.05,6.032 C -1.048,1.348 -0.505,0.642 0,0"
             style="fill:#ffffff;fill-opacity:1;fill-rule:nonzero;stroke:none"
             id="path16825" />
        </g>
        <g
           id="g16827"
           transform="translate(365.9063,499.4165)">
          <path
             d="M 0,0 13.419,-28.869 24.311,-7.084 C 18.775,-8.551 12.496,-10.113 0,0"
             style="fill:#ddab7d;fill-opacity:1;fill-rule:nonzero;stroke:none"
             id="path16829" />
        </g>
        <g
           id="g16831"
           transform="translate(517.4746,406.478)">
          <path
             d="m 0,0 c -0.462,2.487 -8.261,12.089 -10.872,15.305 -1.657,2.041 -2.466,3.042 -2.747,3.509 -0.153,0.255 -0.544,0.696 -1.095,1.258 C -18.478,18.49 -26.169,15 -28.262,12.869 -28.957,12.161 -29.485,9.972 -29.995,7.855 -31.317,2.374 -33.127,-5.133 -40.833,-7.851 l -0.673,-0.237 -0.609,0.372 c -0.238,0.146 -5.859,3.594 -8.324,6.29 -0.687,0.65 -6.241,3.806 -11.312,6.534 -2.647,0.152 -5.639,0.187 -7.42,0.063 1.303,-0.954 3.713,-1.806 5.469,-2.427 0.732,-0.26 1.44,-0.51 2.081,-0.761 2.045,-0.798 3.499,-2.346 4.096,-4.358 0.78,-2.636 -0.021,-5.801 -2.256,-8.914 -1.526,-2.126 -6.045,-0.998 -19.769,3.72 -2.112,0.726 -4.533,1.558 -6.326,2.11 0.229,-0.337 0.424,-0.599 0.55,-0.763 l 27.871,-16.582 -8.5,1.668 c -7.491,1.47 -19.24,3.702 -22.913,4.232 0.101,-0.249 0.227,-0.522 0.363,-0.786 l 23.674,-8.394 -0.865,-2.869 c -8.72,2.175 -18.305,4.377 -22.036,4.982 0.464,-0.602 1.123,-1.229 1.658,-1.412 1.418,-0.484 15.059,-4.441 22.074,-6.465 l 4.894,-1.412 -4.878,-1.466 c -2.974,-0.893 -6.244,-1.999 -8.717,-2.964 10.561,1.31 35.803,7.333 39.241,11.264 l 0.312,0.357 0.46,0.113 c 22.064,5.381 28.591,18.184 31.379,23.65 C -0.762,-1.232 -0.391,-0.505 0,0 m -36.801,-31.671 c -2.512,-1.055 -5.625,-2.122 -9.017,-3.138 -0.463,-5.689 -1.461,-11.131 -3.132,-16.09 3.705,2.681 6.93,6.761 9.442,12.06 1.066,2.249 1.966,4.651 2.707,7.168 M -50.33,-51.816 c 1.87,5.099 2.981,10.763 3.494,16.708 -9.27,-2.705 -20.282,-4.982 -26.643,-5.556 2.213,-5.144 4.885,-9.614 8.017,-13.037 2.548,-0.793 5.13,-1.063 7.69,-0.756 2.617,0.314 5.112,1.217 7.442,2.641 m -25.118,16.249 c 1.385,0.621 3.26,1.349 5.85,2.215 -2.121,0.615 -4.703,1.364 -7.229,2.1 0.43,-1.471 0.889,-2.91 1.379,-4.315 m 8.074,-17.445 c -2.754,3.365 -5.131,7.546 -7.133,12.268 -0.593,-0.038 -1.146,-0.063 -1.628,-0.063 -1.159,0 -1.975,0.116 -2.355,0.365 -0.629,0.413 -0.942,1.083 -0.839,1.792 0.076,0.516 0.206,1.292 2.992,2.666 -0.572,1.64 -1.103,3.328 -1.597,5.054 -4.367,1.274 -8.33,2.442 -9.11,2.708 -0.298,0.102 -0.6,0.262 -0.9,0.445 2.195,-6.006 5.147,-11.395 8.736,-15.823 3.638,-4.486 7.669,-7.665 11.834,-9.412 m -29.439,30.062 c -8.691,-0.904 -26.702,-2.288 -46.551,-0.953 2.708,-5.894 5.576,-11.622 8.551,-16.927 1.03,-1.84 2.076,-3.625 3.132,-5.35 9.296,-0.568 19.391,-0.296 30.254,1.151 2.095,7.625 3.804,15.281 4.614,22.079 m -14.162,-51.251 c -0.136,0.074 -0.256,0.14 -0.403,0.218 -0.672,0.404 -1.455,0.862 -2.276,1.436 -1.181,0.794 -2.469,1.801 -3.816,2.991 -3.968,0.105 -8.819,0.343 -14.246,0.833 0.824,-0.97 1.645,-1.913 2.455,-2.797 4.348,-4.765 8.491,-8.14 11.593,-10.027 0.768,-0.488 1.48,-0.863 2.092,-1.202 0.42,-0.2 0.778,-0.379 1.11,-0.539 0.941,2.367 2.147,5.469 3.491,9.087 m -32.913,-46.796 c -1.229,6.836 -4.524,18.579 -8.116,20.904 -2.615,1.691 -20.309,5.245 -35.293,-1.716 -6.885,-3.199 -11.947,-8.112 -15.164,-14.654 1.611,-2.31 3.539,-5.047 5.497,-7.774 1.807,-2.517 3.634,-5.015 5.248,-7.145 0.568,-0.749 1.112,-1.455 1.616,-2.097 0.97,-1.233 1.806,-2.236 2.42,-2.915 0.293,-0.357 0.574,-0.576 0.742,-0.757 0.178,-0.171 0.272,-0.263 0.272,-0.263 0,0 -0.104,0.08 -0.299,0.228 -0.187,0.157 3.93,-5.545 3.598,-5.228 -0.696,0.604 -6.085,7.404 -7.2,8.52 -2.232,2.23 -5.109,5.297 -7.949,8.394 -1.851,2.021 -3.684,4.05 -5.318,5.874 -1.045,-2.792 -1.802,-5.832 -2.26,-9.129 0,0 12.205,-16.75 13.128,-21.038 0.075,-0.348 0.121,-0.702 0.153,-1.058 0.228,-0.558 0.377,-1.12 0.48,-1.686 0.15,0.097 0.302,0.2 0.464,0.299 0.511,0.341 1.035,0.763 1.552,1.212 1.02,0.913 1.955,1.981 2.611,2.823 0.657,0.843 1.04,1.456 1.04,1.456 0,0 -0.15,-0.706 -0.487,-1.747 -0.338,-1.041 -0.867,-2.418 -1.581,-3.757 -0.367,-0.662 -0.765,-1.322 -1.2,-1.918 -0.227,-0.292 -0.423,-0.595 -0.661,-0.85 -0.233,-0.258 -0.44,-0.518 -0.664,-0.733 -0.445,-0.437 -0.84,-0.795 -1.153,-1.016 -0.257,-0.196 -0.415,-0.315 -0.459,-0.35 -1.14,-2.702 -3.57,-4.929 -6.133,-6.722 1.38,-1.458 4.55,-3.787 7.016,-5.594 3.476,-2.547 7.196,-5.279 10.164,-8.129 0.477,0.284 1.04,0.586 1.664,0.833 0.681,0.286 1.414,0.522 2.091,0.788 0.682,0.268 1.321,0.574 1.919,1.025 0.597,0.454 1.168,1.051 1.679,1.797 0.487,0.729 0.987,1.667 1.499,2.611 0.523,0.94 1.054,1.895 1.585,2.85 1.09,1.904 2.246,3.783 3.487,5.449 1.239,1.658 2.566,3.126 3.983,4.059 0.705,0.465 1.436,0.781 2.12,0.899 0.682,0.126 1.297,0.044 1.753,-0.118 0.236,-0.062 0.428,-0.162 0.593,-0.249 0.171,-0.076 0.303,-0.164 0.406,-0.24 0.21,-0.144 0.321,-0.222 0.321,-0.222 0,0 -0.119,0.064 -0.344,0.183 -0.219,0.122 -0.565,0.274 -1.019,0.362 -0.45,0.104 -1.023,0.111 -1.627,-0.077 -0.606,-0.179 -1.234,-0.539 -1.832,-1.041 -1.204,-1.008 -2.299,-2.533 -3.298,-4.255 -1.001,-1.726 -1.908,-3.669 -2.754,-5.642 -0.411,-0.996 -0.823,-1.992 -1.229,-2.973 -0.399,-0.985 -0.77,-1.961 -1.295,-2.995 -0.525,-1.002 -1.209,-1.943 -2.014,-2.717 -0.803,-0.777 -1.715,-1.345 -2.503,-1.763 -0.797,-0.422 -1.456,-0.721 -1.964,-1.011 -0.233,-0.125 -0.43,-0.247 -0.606,-0.366 0.828,-1.02 1.531,-2.051 2.05,-3.093 3.427,0.937 12.486,4.496 15.67,7.306 1.308,1.154 3.147,2.307 5.276,3.642 5.185,3.251 11.638,7.298 13.925,13.464 2.718,7.327 -0.234,29.959 -1.6,38.06 m -62.255,-42.522 c 3.371,1.895 9.646,5.425 9.944,9.317 0.139,1.83 -27.967,13.503 -33.434,15.779 -4.175,-4.67 -10.955,-12.313 -20.369,-26.434 -9.885,-14.828 -30.027,-38.528 -43.681,-45.075 2.996,-6.201 6.183,-12.605 8.944,-17.94 0.36,0.077 0.729,0.157 1.115,0.243 1.953,0.435 4.225,0.972 6.63,1.64 2.402,0.67 4.951,1.451 7.387,2.458 1.213,0.507 2.401,1.073 3.461,1.757 0.518,0.348 1.026,0.716 1.406,1.148 0.362,0.389 0.69,0.986 1.043,1.507 1.395,2.127 2.921,4.036 4.659,5.192 0.858,0.582 1.789,0.926 2.633,0.976 0.418,0.079 0.815,-0.022 1.173,-0.036 0.348,-0.1 0.677,-0.151 0.95,-0.272 0.27,-0.122 0.511,-0.232 0.72,-0.326 0.194,-0.124 0.358,-0.23 0.491,-0.316 0.264,-0.171 0.405,-0.262 0.405,-0.262 0,0 -0.147,0.08 -0.422,0.234 -0.138,0.075 -0.308,0.168 -0.507,0.277 -0.212,0.079 -0.456,0.17 -0.729,0.271 -0.273,0.099 -0.598,0.125 -0.935,0.2 -0.346,-0.014 -0.724,0.059 -1.113,-0.044 -0.787,-0.104 -1.627,-0.481 -2.396,-1.085 -1.558,-1.198 -2.905,-3.135 -4.116,-5.298 -0.319,-0.541 -0.557,-1.107 -1.026,-1.716 -0.444,-0.573 -0.983,-1.018 -1.531,-1.446 -1.11,-0.831 -2.316,-1.509 -3.541,-2.125 -2.456,-1.222 -4.998,-2.196 -7.395,-3.05 -2.399,-0.849 -4.664,-1.556 -6.611,-2.135 -0.177,-0.052 -0.349,-0.103 -0.521,-0.153 2.239,-4.263 4.1,-7.608 5.187,-9.22 2.357,0.897 8.607,3.622 24.154,11.84 2.896,5.76 24.863,48.471 46.447,63.185 l 0.102,0.064 c 0.411,0.246 0.912,0.529 1.476,0.845 m -3.318,127.011 -1.26,-7.024 c 2.862,0.577 6.24,-0.207 10.057,-1.865 -3.231,2.664 -6.195,5.612 -8.797,8.889 m -1.289,64.091 c 0.639,-4.189 1.677,-10.992 2.591,-16.965 2.419,-0.984 6.618,-2.613 12.367,-4.459 -1.171,3.165 -2.256,6.189 -3.224,9.01 -1.293,3.752 -2.395,7.14 -3.316,10.07 -2.841,0.725 -5.652,1.505 -8.418,2.344 m -3.395,5.497 1.741,0.772 1.164,12.744 c -6.556,8.698 -17.147,19.996 -21.987,25.053 -4.623,-4.686 -12.504,-11.457 -12.908,-11.804 l -0.061,-0.053 23.815,-30.15 c 5.196,2.092 8.19,3.416 8.236,3.438 m -24.056,-9.604 c -2.922,4.06 -10.6,14.885 -16.246,22.855 l -3.576,4.636 c -8.685,-4.413 -28.778,-15.638 -32.164,-22.893 l -0.137,-0.247 c -2.144,-3.29 -4.016,-7.015 -4.069,-8.081 0.129,-0.455 0.191,-1.048 0.296,-2.047 0.574,-5.448 2.318,-22.024 19.196,-33.108 3.157,-2.073 5.427,-4.216 7.067,-6.256 2.563,4.511 8.296,13.696 12.974,14.703 -1.14,3.256 -1.742,6.161 -2.278,8.75 -0.909,4.39 -1.627,7.858 -4.398,11.183 l -1.777,2.133 c -0.122,0.053 -0.209,0.134 -0.226,0.27 -0.023,0.472 0.939,4.694 0.771,6.032 -0.064,0.675 -0.198,1.353 -0.317,2.053 -0.163,0.684 -0.299,1.397 -0.524,2.08 -0.213,0.689 -0.433,1.381 -0.724,2.034 -0.25,0.674 -0.571,1.302 -0.89,1.911 -0.292,0.627 -0.667,1.177 -1,1.719 -0.322,0.552 -0.678,1.032 -1.019,1.47 -0.341,0.438 -0.627,0.869 -0.936,1.208 -0.307,0.341 -0.575,0.639 -0.795,0.884 -0.441,0.49 -0.693,0.77 -0.693,0.77 0,0 0.295,-0.234 0.811,-0.645 0.258,-0.205 0.571,-0.455 0.93,-0.74 0.361,-0.283 0.721,-0.666 1.144,-1.054 0.424,-0.39 0.874,-0.825 1.295,-1.33 0.434,-0.495 0.919,-1.005 1.33,-1.601 0.438,-0.579 0.887,-1.185 1.27,-1.85 0.425,-0.643 0.783,-1.336 1.136,-2.039 0.366,-0.698 0.642,-1.434 0.942,-2.152 0.256,-0.729 0.526,-1.451 0.717,-2.161 0.424,-1.416 0.701,-2.763 0.934,-3.867 0.116,-0.53 0.223,-1.016 0.319,-1.448 5.522,1.561 12.984,4.029 20.637,6.828 m -11.123,-41.342 c -0.338,0.501 -0.66,0.996 -0.967,1.485 -4.184,1.043 -11.167,-4.69 -15.289,-8.685 1.769,-3.35 1.94,-6.049 1.926,-7.097 0.918,-2.179 7.522,-12.659 9.443,-13.86 1.863,-1.164 1.779,-2.47 1.563,-3.145 -0.368,-1.151 -1.409,-1.754 -3.367,-1.892 l 0.209,-4.764 8.264,-2.162 c 0.752,0.285 1.651,0.653 2.635,1.082 l -0.771,12.179 2.618,-11.343 c 1.556,0.729 3.242,1.582 4.943,2.544 l -1.216,11.36 2.918,-10.361 c 1.252,0.762 2.475,1.578 3.629,2.436 l -1.13,9.05 2.746,-7.771 c 2.042,1.717 3.719,3.565 4.62,5.484 -0.875,2.595 -1.82,4.603 -2.839,6.235 -3.065,-1.682 -9.715,-4.921 -15.951,-5.198 l 15.74,5.518 c -2.156,3.311 -4.641,5.03 -7.517,7.005 -3.653,2.51 -7.792,5.353 -12.207,11.9 m -4.368,7.926 c -3.971,-1.159 -9.91,-8.576 -13.173,-13.021 0.265,-0.384 0.51,-0.762 0.733,-1.133 2.912,3.042 9.341,9.281 14.333,10.287 -0.733,1.337 -1.356,2.624 -1.893,3.867 m 37.766,91.332 c 3.373,-5.139 8.817,-18.497 12.617,-28.409 7.505,-1.695 20.24,-4.43 35.126,-7.052 -0.245,1.021 -0.371,1.572 -0.371,1.572 0,0 0.144,-0.556 0.421,-1.581 8.912,-1.568 18.587,-3.095 28.372,-4.332 -0.98,4.466 -2.989,10.977 -6.905,15.496 -6.5,7.5 -15.083,31.083 -15.083,31.083 l 10.379,-17.944 c 0,0 2.858,-3.015 5.835,-6.073 -2.556,5.577 -6.303,14.786 -9.668,23.271 -4.821,3.128 -8.695,14.504 -10.347,20.071 l -4.788,-2.83 c -1.353,-2.918 -4.35,-6.875 -4.486,-7.055 l -0.328,-0.433 -0.54,-0.221 c 5.466,-4.36 17.355,-15.632 16.776,-30.869 -13.232,18.374 -36.683,13.183 -51.354,17.461 -1.959,-0.728 -3.855,-1.451 -5.656,-2.155 m 97.406,66.649 -1.886,-1.495 -0.402,-0.037 c -0.875,-0.079 -8.576,-0.78 -9.62,-0.78 -0.613,0 -2.124,0.458 -7.805,2.277 -3.057,0.979 -7.207,2.307 -8.125,2.464 -1.001,-0.241 -5.447,-2.353 -9.444,-4.387 l 1.788,-10.468 -0.144,-0.357 c -1.19,-2.949 -5.26,-9.474 -6.022,-9.43 0.234,-0.931 0.458,-1.866 0.645,-2.817 0.119,-0.645 0.247,-1.27 0.259,-1.987 -0.008,-0.454 -0.167,-0.748 -0.287,-1.047 l -0.375,-0.88 c -0.233,-0.582 -0.456,-1.175 -0.515,-1.79 -0.078,-0.61 0.073,-1.263 0.537,-1.721 -0.522,0.387 -0.789,1.069 -0.787,1.729 -0.022,0.666 0.131,1.313 0.291,1.941 l 0.26,0.927 c 0.086,0.302 0.168,0.616 0.126,0.808 -0.08,0.559 -0.282,1.176 -0.476,1.767 -0.396,1.177 -0.854,2.346 -1.323,3.508 -1.14,0.48 -2.704,1.415 -4.881,3.132 -0.238,-0.033 -0.461,-0.104 -0.576,-0.243 -0.572,-0.696 -0.053,-3.309 0.365,-5.408 0.28,-1.409 0.597,-3.006 0.76,-4.591 0.494,-4.813 3.486,-5.273 5.465,-5.577 l 1.175,-0.181 0.587,-5.385 c 0.469,-1.223 1.677,-4.371 3.281,-8.495 2.036,-1.286 3.674,-3.125 5.942,-4.744 1.514,-1.08 2.96,-2.112 4.021,-2.817 -0.106,0.816 -0.142,1.698 -0.145,2.581 0,1.33 0.068,2.642 0.085,3.622 0.009,0.491 0.003,0.898 -0.03,1.179 -0.02,0.288 -0.131,0.415 -0.139,0.411 0.002,0.01 0.145,-0.103 0.222,-0.392 0.089,-0.278 0.173,-0.686 0.258,-1.173 0.171,-0.976 0.353,-2.279 0.6,-3.553 0.243,-1.269 0.57,-2.526 0.953,-3.283 0.188,-0.378 0.383,-0.599 0.487,-0.67 0.106,-0.066 0.114,-0.032 0.117,-0.046 l -0.052,-0.098 c 2.549,-1.394 7.003,-3.198 14.662,-2.336 0.862,0.62 1.702,1.303 1.934,1.577 0.392,1.077 2.054,4.628 9.093,18.638 2.756,7.141 1.548,14.912 0.279,16.418 -0.111,-0.06 -0.225,-0.109 -0.346,-0.13 -1.5,-0.259 -2.164,0.947 -2.164,0.947 l -3.472,-0.151 0.678,1.055 1.583,0.922 3.1,1.533 c 0.108,0.319 0.226,0.636 0.347,0.951 0.279,0.721 0.594,1.547 0.839,2.536 -0.97,0.048 -2.784,0.02 -4.145,-0.014 -1.101,-1.274 -4.175,-4.811 -4.911,-5.466 -0.153,-0.769 0.275,-5.269 1.191,-9.195 l -0.479,-0.112 c -2.176,9.332 -1.59,9.772 -1.338,9.961 0.379,0.285 2.135,4.666 3.814,6.977 v 0.499 l 0.415,0.034 5.858,0.476 c 0.04,3.755 -1.334,9.433 -2.128,12.386 m -1.896,-61.874 c -2.227,-2.911 -4.316,-7.329 -6.473,-10.538 -6.018,-12.437 -8.727,-17.061 -10.217,-18.775 -0.87,-4.369 -1.352,-10.93 -1.595,-15.396 19.372,-2.404 39.053,-3.635 53.932,-1.774 7.751,12.805 14.857,28.361 18.189,36.277 -2.447,0.759 -6.765,2.766 -11.474,5.169 l -42.362,-15.044 c 0,0 13.5,17.5 14.5,24.25 0.437,2.947 0.921,5.226 1.328,6.859 -2.362,1.495 -5.048,3.118 -7.435,4.521 -2.44,-5.048 -6.282,-12.792 -8.393,-15.549 M -36.773,47.045 -47.002,58.165 -62.674,41.92 c 2.834,-0.61 5.742,-1.76 8.645,-3.457 3.875,-2.263 7.452,-5.334 10.524,-8.852 l 9.373,13.122 c -1.087,1.757 -2.019,3.288 -2.641,4.312 M -28,33.117 -37.019,20.042 c 1.328,-2.619 2.365,-5.306 3.036,-7.973 0.358,0.541 0.709,1.085 1.056,1.623 2.955,4.58 6.25,9.658 13.135,10.885 -1.553,1.182 -3.11,2.27 -4.154,3.139 -0.744,0.62 -2.277,2.742 -4.054,5.401 m 5.334,-3.864 0.003,-0.003 c -0.001,0.001 -0.002,0.002 -0.003,0.003 M -41.172,-4.766 c 2.44,1.034 4.093,2.759 5.282,4.779 l -1.208,6.584 c -2.252,8.033 -5.795,15.212 -10.36,20.842 -1.656,2.044 -3.396,3.807 -5.192,5.297 -1.1,0.827 -2.232,1.594 -3.397,2.274 -2.218,1.296 -4.421,2.22 -6.561,2.781 1.96,-2.532 3.751,-6.015 4.879,-8.425 3.463,-7.389 6.816,-17.455 9.135,-28.444 0.156,-0.123 0.288,-0.235 0.368,-0.323 1.739,-1.901 5.555,-4.411 7.054,-5.365 m -96.977,68.836 10.892,21.784 c -5.536,-1.466 -11.816,-3.028 -24.311,7.084 z m 11.401,25.668 c -0.038,-0.076 -0.088,-0.207 -0.103,-0.383 0.008,0.077 0.032,0.185 0.103,0.383 m 28.83,-93.546 c 0.469,6.58 2.207,13.98 4.887,20.898 -6.916,-0.614 -34.92,-2.047 -66.646,1.016 2.203,-6.609 4.772,-13.892 7.659,-21.378 15.731,-1.886 34.023,-2.544 54.1,-0.536 m -37.245,-42.121 c -0.691,1.243 -1.378,2.503 -2.052,3.795 -3.031,5.789 -5.909,12.025 -8.592,18.409 -4.841,0.379 -9.77,0.926 -14.684,1.684 1.593,-3.233 3.241,-6.48 4.94,-9.703 2.221,-4.207 4.527,-8.364 6.884,-12.387 4.282,-0.782 8.785,-1.397 13.504,-1.798 m -45.59,-11.35 c 6.361,-4.192 13.483,-8.844 20.661,-12.574 3.679,-1.911 7.49,-3.573 11.279,-5.052 -1.079,1.095 -2.284,2.18 -3.39,3.447 -1.962,2.086 -3.97,4.407 -5.993,6.899 -7.567,1.761 -15.262,4.122 -22.557,7.28 m -21.196,82.423 c 0.987,-2.856 2.159,-6.138 3.522,-9.763 1.118,-2.989 2.376,-6.202 3.738,-9.572 6.118,-1.927 13.857,-4.052 22.979,-5.908 -1.679,4.193 -3.213,8.162 -4.573,11.782 -1.237,3.29 -2.329,6.285 -3.273,8.925 -7.529,1.189 -15.064,2.681 -22.393,4.536 m 50.218,-68.678 c -1.92,3.562 -3.794,7.207 -5.602,10.884 -1.786,3.634 -3.506,7.295 -5.159,10.928 -7.716,1.285 -15.353,3.118 -22.503,5.663 0.245,-0.506 0.486,-1.011 0.733,-1.519 0.989,-1.965 1.987,-3.947 2.988,-5.937 1.051,-1.962 2.065,-3.954 3.153,-5.905 1.093,-1.948 2.148,-3.917 3.293,-5.824 0.345,-0.593 0.694,-1.181 1.041,-1.771 6.466,-2.533 13.831,-4.825 22.056,-6.519 m -27.421,64.08 c 1.001,-2.565 2.154,-5.463 3.45,-8.635 1.535,-3.753 3.267,-7.879 5.167,-12.244 5.189,-1.028 10.806,-1.965 16.812,-2.728 -2.62,7.467 -4.933,14.704 -6.906,21.26 -6.086,0.603 -12.3,1.373 -18.523,2.347 m -27.118,-38.6 c 2.961,-2.61 12.911,-10.723 29.188,-17.617 -0.964,1.753 -1.874,3.54 -2.806,5.315 -1.041,1.994 -2.006,4.027 -3.009,6.031 -0.949,2.028 -1.896,4.047 -2.835,6.051 -0.451,0.996 -0.896,1.989 -1.337,2.979 -7.028,2.678 -13.531,6.084 -19.096,10.399 0.043,-4.018 -0.053,-10.249 -0.105,-13.158 m 85.866,-66.257 c -3.273,2.24 -7.291,5.804 -11.377,10.547 -1.467,1.693 -2.947,3.539 -4.427,5.496 -5.286,0.588 -10.98,1.421 -16.834,2.593 1.103,-1.207 2.194,-2.36 3.268,-3.44 1.124,-1.22 2.336,-2.242 3.421,-3.287 0.555,-0.509 1.077,-1.027 1.617,-1.489 0.548,-0.456 1.078,-0.898 1.592,-1.327 1.401,-1.224 2.74,-2.23 3.95,-3.114 3.227,-1.063 6.348,-2.027 9.228,-2.911 3.601,-1.103 6.821,-2.093 9.562,-3.068 m 46.588,67.75 -6.744,4.013 c 0.111,-0.94 0.233,-1.879 0.366,-2.815 2.1,-0.387 4.307,-0.803 6.378,-1.198 m -15.963,14.142 c 0.837,0.931 1.839,0.842 7.434,-1.03 -0.408,7.483 -0.207,14.814 0.644,21.377 0.928,7.148 2.541,12.867 4.696,16.856 -6.041,-4.99 -11.148,-14.721 -14.161,-24.67 -1.292,-6.737 -1.53,-14.096 -0.629,-21.608 0.115,-0.957 0.253,-1.904 0.401,-2.847 0.38,0.338 0.876,0.54 1.447,0.551 0.774,0.018 4.431,-0.601 8.732,-1.386 -0.152,1.085 -0.288,2.173 -0.411,3.263 l -5.699,3.39 -0.166,0.202 c -0.059,0.072 -1.466,1.794 -2.534,4.078 -0.294,0.629 -0.2,1.328 0.246,1.824 m 17.152,9.533 c 0.436,0.514 1.342,1.586 11.387,0.969 l 0.327,-0.02 0.29,-0.155 c 2.642,-1.418 8.084,-4.379 10.837,-6.158 -2.294,10.497 -5.52,20.09 -8.848,27.192 -1.96,4.184 -3.884,7.345 -5.56,9.204 -0.906,0.162 -1.795,0.25 -2.667,0.273 -0.679,-0.002 -1.356,-0.042 -2.034,-0.124 -1.391,-0.166 -2.75,-0.497 -4.067,-0.984 -0.122,-0.052 -0.246,-0.097 -0.366,-0.152 -0.538,-0.248 -1.07,-0.55 -1.596,-0.876 -2.692,-3.775 -4.699,-10.111 -5.785,-18.483 -0.859,-6.626 -1.051,-14.038 -0.622,-21.59 0.831,-0.281 1.737,-0.591 2.756,-0.942 5.083,-1.747 14.426,-4.964 16.512,-4.587 1.567,2.263 2.157,4.419 1.661,6.091 -0.332,1.121 -1.13,1.957 -2.309,2.416 -0.614,0.24 -1.291,0.479 -1.992,0.728 -3.564,1.26 -7.603,2.689 -8.296,5.678 -0.125,0.538 0.011,1.092 0.372,1.52 M 2.394,-1.808 C 2.21,-2.008 1.76,-2.89 1.363,-3.668 c -2.956,-5.8 -9.86,-19.336 -32.931,-25.102 -0.131,-0.119 -0.289,-0.24 -0.448,-0.361 -0.923,-4.068 -2.215,-7.911 -3.878,-11.421 -4.96,-10.468 -12.56,-16.816 -21.4,-17.876 -0.869,-0.104 -1.739,-0.156 -2.607,-0.156 -7.966,-10e-4 -15.836,4.351 -22.413,12.464 -4.661,5.749 -8.316,12.974 -10.729,21.027 -3.605,-26.48 -19.06,-63.071 -19.782,-64.77 l -0.841,-0.968 -1.573,-0.265 c -1.496,-5.209 -5.545,-18.899 -7.427,-21.318 -2.334,-3 -7,-15 -9,-20.333 -1.161,-3.095 -3.777,-6.632 -5.772,-9.062 0.461,-7.285 0.401,-14.593 -1.1,-18.639 -2.759,-7.441 -10.152,-12.077 -15.55,-15.462 -1.98,-1.242 -3.691,-2.315 -4.755,-3.253 -2.717,-2.398 -8.064,-4.755 -11.01,-5.948 -2.776,-1.124 -4.704,-1.788 -6.07,-2.16 -0.318,-1.272 -0.924,-2.676 -1.752,-4.168 -18.499,7.719 -26.554,15.813 -29.91,22.166 -1.043,-0.803 -2.087,-1.674 -3.131,-2.603 4.855,-8.656 15.191,-16.367 30.875,-22.992 -1.307,-1.871 -2.841,-3.816 -4.494,-5.768 -20.815,8.749 -28.271,17.961 -30.726,24.565 -0.994,-1.033 -1.985,-2.109 -2.97,-3.221 4.263,-9.262 14.629,-17.486 30.923,-24.509 -1.282,-1.419 -2.592,-2.82 -3.89,-4.175 -20.716,8.743 -28.125,17.938 -30.557,24.526 -0.948,-1.166 -1.887,-2.357 -2.814,-3.567 4.315,-9.062 14.504,-17.12 30.388,-24.027 -0.927,-0.942 -1.83,-1.849 -2.685,-2.703 -8.334,-8.334 -25.334,-17.334 -39.786,-30.334 -14.453,-13 -13.214,-18.334 -14.881,-19.666 -1.666,-1.334 -1.333,5.333 -1.333,5.333 1.5,8.001 -15.57,6.145 -20.07,10.145 -4.397,3.908 6.706,6.726 13.28,13.383 -12.358,-6.363 -16.968,-8.198 -18.635,-8.722 l -0.742,-1.139 c 0,0 0.226,-1.019 -2.079,-3.119 -15.699,16.474 -18.334,27.869 -17.65,34.665 0.109,1.086 0.307,2.086 0.561,3.015 -0.069,0.143 -0.137,0.285 -0.195,0.406 0,0 1.916,1.978 2.03,2.023 11.118,4.368 31.118,27.541 42.836,45.119 7.882,11.824 18.897,24.866 24.889,31.73 v 10e-4 l 6.498,13.976 c -4.187,9.493 -8.394,19.384 -8.723,21.517 -0.667,4.333 2,31.666 2,31.666 0.438,4.695 4.726,6.734 13.466,17.896 l 2.495,13.918 c -0.227,0.356 0.074,1.031 -0.145,1.393 0,2.583 0.498,5.001 1.714,7.351 l 0.861,4.799 c 0.13,7.256 0.175,15.306 0.023,16.327 -0.234,1.401 -3.516,22.9 -4.667,30.455 -3.265,-1.382 -9.698,-4.033 -18.301,-7.227 l -1.41,-0.523 -0.001,0.001 c -7.633,-2.813 -16.747,-6.01 -22.09,-7.553 2.022,-3.353 2.744,-6.84 3.5,-10.49 1.054,-5.095 2.25,-10.869 7.213,-18.228 3.99,-5.917 7.633,-8.419 11.156,-10.84 4.689,-3.221 9.118,-6.263 12.341,-16.336 l 0.213,-0.665 -0.248,-0.654 c -3.947,-10.406 -23.385,-17.539 -24.211,-17.838 l -0.585,-0.211 -12.331,3.226 -0.527,12.023 1.458,-0.087 c -3.645,4.397 -8.924,12.956 -8.924,14.597 l 0.011,0.207 c 0.02,0.259 0.434,6.969 -9.442,13.454 -18.462,12.125 -20.356,30.12 -20.978,36.033 -0.06,0.569 -0.128,1.214 -0.171,1.393 -0.625,1.869 0.884,5.663 4.498,11.226 4.713,9.744 28.758,22.223 33.131,24.431 l -1.237,1.603 13.063,8.215 c 1.73,1.494 12.111,9.191 14.894,12.684 3.372,4.231 30.553,13.503 36.15,15.379 l 20.059,8.248 c 0.813,1.102 2.209,3.096 3.155,4.787 0.037,4.171 4.263,8.802 6.312,10.802 -0.302,0.806 -0.523,1.743 -0.635,2.83 -0.149,1.459 -0.441,2.923 -0.723,4.34 -0.636,3.204 -1.187,5.972 0.201,7.659 0.41,0.499 0.961,0.832 1.617,1.036 -0.511,2.703 -2.021,14.545 -1.102,16.948 1.328,3.475 8.074,11.651 9.344,12.661 3.853,3.064 26.619,8.005 34.518,1.808 2.457,-1.928 4.429,-4.437 6.335,-8.119 l 2.198,-4.449 c 0.126,-0.416 3.08,-10.242 2.769,-15.843 -0.15,-2.689 -0.876,-4.567 -1.407,-5.939 -0.65,-1.683 -0.641,-1.885 -0.294,-2.263 1.587,-1.73 2.583,-6.979 1.893,-12.679 1.606,-2.304 4.305,-6.524 3.591,-7.952 -0.084,-0.168 -0.21,-0.428 -0.367,-0.753 3.937,-2.311 12.21,-7.272 14.392,-9.412 2.405,-2.357 27.575,-15.95 30.957,-16.293 3.445,-0.044 12.346,-9.234 19.201,-16.935 l 12.277,-13.404 c 5.016,-8.279 10.904,-17.464 12.076,-18.504 0.092,-0.077 8.994,-8.196 10.334,-10.427 0.189,-0.313 1.365,-1.761 2.503,-3.162 C 1.991,4.224 4.342,0.139 2.394,-1.808 m -130.561,112.384 c 0.452,0.453 4.823,3.015 4.823,3.241 0,0.226 -11.123,0 -11.123,0 0,0 5.848,-3.693 6.3,-3.241 m -6.481,17.033 c -0.603,0.452 -3.015,0.753 -4.823,1.507 -1.809,0.754 -9.345,0 -9.948,0 l 6.719,-2.713 c 0,0 -0.026,-1.976 1.631,-1.96 1.658,0.017 2.502,1.055 2.502,1.055 h 3.427 c 0,0 1.095,1.658 0.492,2.111 m 0.904,4.823 c 0,0 0.302,0.904 0,2.562 -0.301,1.658 -13.566,0.151 -14.784,0 l 0.465,-0.895 z m -12.962,-26.377 -0.13,0.128 c 0.027,-0.069 0.066,-0.118 0.13,-0.128 m -1.822,6.783 c -4.083,0.15 -9.451,6.933 -9.451,6.933 l 6.441,-8.963 4.702,-4.625 c -0.36,0.91 2.104,6.514 -1.692,6.655 m 14.483,-16.129 -0.603,0.067 1.206,-2.026 h 6.33 l 0.904,1.959 c 0,0 -5.878,0.151 -7.837,0 m -1.095,5.352 c -0.189,0.226 -1.467,-2.488 -1.467,-2.488 2.411,1.809 11.907,-0.754 11.907,-0.754 0,0 1.959,2.111 2.034,3.242 0.076,1.13 -12.284,-0.227 -12.474,0 M -373,-306.415 c 1.667,4.334 1.667,8.001 2.334,9.334 0,0 6.5,2.626 4.75,5.147 -1.75,2.52 -4.75,4.77 -7,5.27 -2.25,0.5 -14.25,-4 -18.25,-0.75 -4,3.25 -1,11.25 0.5,11.5 l -2.059,2.561 c -2.166,-0.406 -5.274,-2.397 -6.608,-3.062 -1.333,-0.666 -5.666,-5.666 -6,-6.666 -0.333,-1 -6.667,-10.666 -7.333,-12.666 -0.667,-2 -1.334,-9.334 0,-11.334 1.333,-2 7.333,-4.5 9.333,-6.834 2,-2.335 7.699,-14.666 10.167,-15.332 1.014,-0.274 0.982,-3.461 1.833,-4.5 0.562,-0.683 2.296,0.683 4.167,0.333 1.116,-0.208 2.637,-2.236 3,-2.333 1.541,-0.418 4.561,-1.505 6.833,-1.334 2.274,0.172 5.907,-0.457 8.167,-0.018 4.521,0.875 6.166,4.018 6.166,4.018 0,0 -6.999,8.331 -8.333,9.666 -1.333,1.334 -3.334,12.665 -1.667,17 m 108.5,53.778 c -9.666,0.222 -11.333,1.89 -11.333,1.89 0,0 -6.5,-5.845 -10.333,-8.006 -3.834,-2.162 -8,-5.328 -9,-7.162 -1,-1.832 -2.05,-6.666 -2.192,-8.166 -0.142,-1.5 -2.142,-4.166 -1.142,-5 1,-0.834 3,-0.666 3,-0.666 0,0 1.833,1.833 3,1.166 1.167,-0.666 0,-3.166 0.334,-4.166 0.333,-1 1.489,-1.668 2.328,-2.5 0.838,-0.834 3.505,0 3.505,0 0,0 2.334,1.666 3.5,0.332 1.167,-1.332 -2.167,-4.665 -1.667,-4.499 0.5,0.167 3.001,-1.667 4.167,-2.333 1.167,-0.668 2.667,0.666 2.667,0.666 0,0 2.021,1.501 3.927,1.667 1.906,0.167 3.906,1.333 5.406,1.999 1.5,0.668 4.167,8.668 4,9.834 -0.167,1.166 4.5,13.815 7.5,13.658 3,-0.158 2,11.063 -7.667,11.286 m -56.373,29.543 c 0.122,1.15 0.329,2.218 0.589,3.227 -3.356,-2.05 -6.473,-4.145 -8.882,-6.046 -9.5,-7.5 -44.642,-50.898 -60.142,-47.898 1.986,-3.178 -4.937,-6.382 0.333,-12 1.605,-1.711 12.834,2.666 15.667,1.666 2.833,-1 11.142,-5.269 11.142,-5.269 0,0 23.5,17.481 50,25.491 3.52,1.063 6.706,2.19 9.598,3.342 -13.281,14.051 -19.451,26.649 -18.305,37.487 m 27.323,-33.357 c -13.389,14.118 -19.61,26.771 -18.46,37.652 0.158,1.489 0.458,2.843 0.837,4.094 -1.16,-0.609 -2.339,-1.246 -3.52,-1.904 -1.032,-1.802 -1.922,-4.115 -2.212,-7.003 -0.692,-6.883 2.029,-18.488 18.272,-35.306 1.834,0.822 3.527,1.648 5.083,2.467 m 3.598,2.016 c -16.082,16.717 -18.779,28.261 -18.09,35.118 0.311,3.086 1.303,5.525 2.425,7.375 1.234,0.575 2.394,1.086 3.454,1.521 -0.151,-0.725 -0.283,-1.47 -0.367,-2.262 -1.153,-10.903 5.095,-23.587 18.543,-37.741 -1.617,-1.237 -3.594,-2.597 -5.965,-4.011"
             style="fill:#110f0d;fill-opacity:1;fill-rule:nonzero;stroke:none"
             id="path16833" />
        </g>
        <g
           id="g16835"
           transform="translate(434.79,286.6455)">
          <path
             d="M 0,0 0.048,-0.023 Z"
             style="fill:#110f0d;fill-opacity:1;fill-rule:nonzero;stroke:none"
             id="path16837" />
        </g>
      </g>
    </g>
  </g>
</svg>
