<?xml version="1.0" encoding="utf-8"?>
<svg version="1.1" id="Ebene_1" xmlns="http://www.w3.org/2000/svg" xmlns:xlink="http://www.w3.org/1999/xlink" x="0px" y="0px"
	 viewBox="0 0 54.75 54.75" style="enable-background:new 0 0 54.75 54.75;" xml:space="preserve">
<style type="text/css">
	.st0{fill:#FFFFFF;}
	.st1{fill:#E52528;}
	.st2{fill:#000000;}
</style>
<g id="antifa" transform="matrix(1.25,0,0,-1.25,0,367.35)">
	<circle class="st0" cx="21.9" cy="271.98" r="27.38"/>
	<g id="g14" transform="scale(0.12,0.12)">
		<path id="path22" class="st1" d="M234.29,2148.61l63.23,174.98l-5.12,3.01c-15.35,13.85-21.98,22.58-38.24,28.91
			c-25.02,9.73-45.77-9.34-67.15-15.06c-32.85-8.79-63.09-6.49-90.79,11.88c-2.98,1.98-4,3.92-6.33,6.62
			c-19.57-21.68-34.69-49.59-37.61-81.85c-0.09-0.94,0.14-1.47,0.3-2.41c6.62-5.42,54.33-50.19,120.87-26.42
			c26.91,9.63,44.86-1.2,68.04-15.65c3.77-2.36,3.54-2.31,5.72-3.92l-28.6-86.72l7.53,2.11L234.29,2148.61"/>
		<path id="path24" class="st2" d="M213.53,2241.36l-37.72-104.22c-1.86-0.07-2.92-0.09-4.78,0.09c-3.31,0.3-5.19,0.71-8.32,1.81
			l19.22,56.86l-3.01,2.11c-11.14,4.22-16.17,7.8-31.02,5.12c-31.62-5.72-72.96,9.05-88.41,41.38c-3.31,6.92-5.16,10.1-6.26,17.14
			c-0.46,2.89-0.61,4.55-0.61,7.49c30.38-25.18,61.14-37.92,103.09-30.77c19.71,3.35,32.29,13.67,50.89,6.33
			C209.38,2243.57,210.92,2242.84,213.53,2241.36"/>
		<g>
			<polygon class="st2" points="113.4,2126.33 118.96,2123.97 119.64,2133.71 119.58,2133.74 			"/>
			<path class="st2" d="M181.14,2439.2c-95.16,0-172.71-77.57-172.71-172.71c0-95.16,77.55-172.71,172.71-172.71
				s172.71,77.55,172.71,172.71C353.85,2361.63,276.28,2439.2,181.14,2439.2z M315.91,2362.44l-8.5-5.3l4.86-7.78l8.5,5.3l2.63-4.21
				l-21.56-13.47l-2.63,4.21l9.6,6.08l-4.81,7.72l-9.64-6.03l-2.63,4.21l21.56,13.47L315.91,2362.44z M302.9,2379.22
				c1.36-1.46,2.3-3.25,2.77-5.16l-4.34-4.05c0.29,2.15-0.39,4.38-1.85,5.94c-3.24,3.48-8.31,2.49-11.52-0.51
				c-3.14-2.92-4.34-7.91-1.19-11.29c1.45-1.55,3.71-2.34,5.81-2.28l-4.32-4.02c-1.91,0.75-3.64,1.68-5.04,3.18
				c-4.87,5.23-3.97,13.31,1.16,18.1C289.69,2384.05,297.82,2384.67,302.9,2379.22z M272.74,2381.9c1.62,2.07,0.16,4.15-0.94,6
				c-1.49,2.62-2.34,4.99-1.08,7.56c0.23,0.46,0.53,0.91,0.9,1.39c1.46,1.86,3.54,2.95,5.69,3.03c1.66,0.07,3.37-0.45,4.84-1.59
				c0.87-0.68,1.72-1.71,2.41-2.83c0.71-1.19,1.24-2.49,1.33-3.67l-3.97-1.3c0.04,1.59-0.42,2.99-1.72,4
				c-1.24,0.98-3.17,0.97-4.19-0.33c-2.63-3.38,6.4-8.18,1.14-14.9c-3.14-4.02-7.86-4.91-11.95-1.72c-2.76,2.15-3.53,5.33-3.11,8.73
				l4.45,0.48c-0.68-1.95-0.35-4.44,1.33-5.75C269.47,2379.74,271.53,2380.35,272.74,2381.9z M267.88,2407.45l-12.72-22.03l0,0
				l-4.29,2.47l12.72,22.03L267.88,2407.45z M242.04,2415.77l1.76,3.95l13.89-6.19l-1.76-3.95l-4.68,2.08l-8.59-19.28l0,0
				l-4.52,2.02l8.59,19.28L242.04,2415.77z M217.98,2407.62l2.63,1.24c0-2.07,1.11-4.29,3.12-4.99c1.91-0.66,3.66,0.55,4.29,2.4
				c0.85,2.49-1.2,3.97-2.83,5.36c-2.66,2.34-4.36,4.68-3.08,8.41c1.37,3.99,5.43,6.19,9.5,4.78c0.79-0.27,1.65-0.74,2.46-1.32
				c1.36-0.97,2.6-2.28,3.17-3.61l-3.3-2.5c-0.48,1.52-1.36,2.69-2.92,3.22c-1.5,0.52-3.34-0.13-3.87-1.71
				c-1.39-4.05,8.72-5.65,5.94-13.72c-0.84-2.43-2.31-4.23-4.21-5.22c-1.85-0.95-4.12-1.1-6.55-0.27c-3.31,1.14-5.07,3.9-5.77,7.24
				L217.98,2407.62z M209.74,2429.52l4.89-0.87l-4.42-25.05l-4.89,0.87L209.74,2429.52z M182.09,2432.34l4.94-0.35l-0.69-9.99
				l9.15-0.64l0.69,9.99l4.94-0.35l-1.78-25.36l-4.94,0.35l0.79,11.33l-9.15,0.64l-0.79-11.33l-4.94,0.35L182.09,2432.34z
				 M165.79,2432.05c1.98,0.25,3.99-0.06,5.81-0.78l0,0l0.72-5.9c-1.58,1.5-3.77,2.25-5.88,1.99c-4.73-0.58-6.89-5.26-6.36-9.61
				c0.52-4.25,3.86-8.15,8.44-7.59c2.11,0.26,4.08,1.62,5.26,3.37l0.72-5.85c-1.73-1.1-3.5-1.95-5.54-2.21
				c-7.1-0.87-13.11,4.61-13.96,11.58C154.11,2424.2,158.39,2431.14,165.79,2432.05z M138.05,2427.02c0.81,0.23,1.76,0.35,2.77,0.33
				c1.68-0.01,3.44-0.38,4.67-1.14l-1.27-3.95c-1.26,0.97-2.66,1.42-4.25,0.97c-1.52-0.43-2.66-2.02-2.2-3.61
				c1.19-4.12,10.39,0.38,12.73-7.83c0.71-2.47,0.53-4.8-0.45-6.68c-0.97-1.85-2.75-3.27-5.2-3.97c-3.37-0.97-6.39,0.29-8.89,2.62
				l0.78,1.36l1.45,2.53c1.19-1.69,3.38-2.88,5.42-2.28c1.95,0.56,2.67,2.54,2.14,4.42c-0.72,2.53-3.27,2.57-5.39,2.77
				c-3.51,0.39-6.26,1.33-7.34,5.12C131.87,2421.71,133.95,2425.83,138.05,2427.02z M115.59,2418.88l19.44-19.92l-4.84-2.15
				l-3.96,4.1l-8.06-3.6l0.27-5.75l-4.77-2.12l-1.56,27.88L115.59,2418.88z M99.71,2410.8l2.36-3.63l-6.42-4.16l3.05-4.7l6.03,3.92
				l2.36-3.63l-6.03-3.92l6.1-9.39l-4.16-2.7l-13.86,21.35L99.71,2410.8z M82.39,2399.21l15.65-20.03l-3.9-3.05l-15.65,20.03
				L82.39,2399.21z M73.04,2391.91l2.99-3.11l-3.69-3.56l14.67-15.19l-3.57-3.44l-14.67,15.19l-3.69-3.56l-2.99,3.11L73.04,2391.91z
				 M44.9,2361.63l22.24-0.39l0.04,0.06l-13.47,10.52l3.05,3.9l20.44-15.97l-2.2-2.82l-22.24,0.39l-0.04-0.06l13.6-10.62l-3.05-4
				l-20.57,16.17L44.9,2361.63z M33.73,2342.48l27.63-3.25l-2.4-4.71l-5.67,0.69l-4.02-7.88l3.83-4.29l-2.37-4.65l-18.76,20.67
				L33.73,2342.48z M123.22,2111.94l-4.87,2.07l0.29,5.69l-8.14,3.45l-4.02-4.12l-4.81,2.04l19.32,20.15l3.54-1.5L123.22,2111.94z
				 M153.05,2103.81l-6.21,1.43l-5.35,12.96l-0.07,0.01l-2.56-11.14l-4.83,1.11l5.72,24.77l4.83-1.11l-2.41-10.45l0.07-0.01
				l10.07,8.69l5.94-1.37l-12.04-9.26L153.05,2103.81z M179.68,2121.61l-5.1,0.53l-2.2-21l-4.93,0.52l2.21,21l-5.1,0.53l0.45,4.29
				l15.13-1.59L179.68,2121.61z M189.2,2100.51l-0.45,25.42l4.96,0.09l0.45-25.42L189.2,2100.51z M218.93,2103.16
				c-7.23-1.66-13.64,3.15-15.28,10.25c-1.6,6.94,2.02,14.18,9.25,15.84s13.66-3.25,15.26-10.19
				C229.81,2111.97,226.16,2104.83,218.93,2103.16z M259.34,2118.74l-20,9.76l-0.06-0.03l7.83-15.38l-4.42-2.25l-11.85,23.25
				l3.18,1.62l20-9.76l0.06,0.03l-7.76,15.23l4.42,2.25l11.78-23.11L259.34,2118.74z M181.14,2133.05
				c-73.93,0-133.44,59.52-133.44,133.44c0,73.94,59.52,133.44,133.44,133.44c73.94,0,133.44-59.52,133.44-133.44
				C314.58,2192.55,255.06,2133.05,181.14,2133.05z M326.27,2335.85l-5.12-2.27l3.21-7.21l-3.95-1.76l-3.21,7.21l-6.29-2.8
				l3.34-7.49l-3.95-1.75l-5.35,12.01l23.23,10.33l5.35-12.01l-3.95-1.75L326.27,2335.85z"/>
			<path class="st2" d="M214,2124.49c-4.23-0.98-6.33-5.72-5.41-9.73c0.87-3.74,5.12-7.78,9.22-6.84c4.1,0.95,6.16,6.45,5.3,10.19
				C222.2,2122.12,218.25,2125.47,214,2124.49z"/>
			<polygon class="st2" points="46.32,2330.43 49.07,2335.81 39.4,2337.18 			"/>
			<polygon class="st2" points="123.31,2404.05 116.66,2411.21 117.8,2401.6 			"/>
		</g>
	</g>
</g>
</svg>
